<?xml version="1.0" encoding="UTF-8"?>
<svg xmlns="http://www.w3.org/2000/svg" xmlns:xlink="http://www.w3.org/1999/xlink" width="143pt" height="274pt" viewBox="0 0 143 274" version="1.1">
<g id="surface1">
<path style="fill-rule:nonzero;fill:rgb(100%,100%,100%);fill-opacity:1;stroke-width:40;stroke-linecap:butt;stroke-linejoin:miter;stroke:rgb(13.729858%,12.159729%,12.548828%);stroke-opacity:1;stroke-miterlimit:4;" d="M 1113.085938 2708.828125 C 987.265625 2677.695312 901.015625 2686.796875 790.78125 2612.96875 C 696.523438 2549.765625 633.4375 2470.195312 554.453125 2394.53125 C 300.3125 2151.171875 108.632812 1949.726562 45 1641.640625 C 17.617188 1509.257812 16.445312 1402.773438 38.046875 1267.851562 C 67.96875 1081.289062 37.148438 884.960938 137.734375 708.554688 C 204.53125 591.40625 337.851562 525.585938 418.085938 421.015625 C 492.148438 324.492188 528.515625 284.921875 643.359375 208.867188 C 853.671875 69.53125 958.632812 -50.429688 1203.515625 71.289062 C 1198.164062 156.25 1081.640625 258.75 1035.078125 336.757812 C 961.054688 460.742188 923.125 586.171875 880.976562 711.992188 C 797.851562 960.234375 802.578125 1212.8125 770.976562 1466.640625 C 743.632812 1686.25 758.90625 1859.101562 953.867188 2025.976562 C 1109.53125 2159.21875 1254.257812 2302.773438 1358.59375 2452.109375 C 1496.484375 2649.53125 1305.039062 2762.890625 1050.976562 2685.585938 " transform="matrix(0.1,0,0,-0.1,0,274)"/>
</g>
</svg>
