<?xml version="1.0" encoding="UTF-8"?>
<svg xmlns="http://www.w3.org/2000/svg" xmlns:xlink="http://www.w3.org/1999/xlink" width="353pt" height="47pt" viewBox="0 0 353 47" version="1.1">
<g id="surface1">
<path style="fill-rule:nonzero;fill:rgb(100%,100%,100%);fill-opacity:1;stroke-width:10;stroke-linecap:butt;stroke-linejoin:miter;stroke:rgb(13.729858%,12.159729%,12.548828%);stroke-opacity:1;stroke-miterlimit:4;" d="M 2980 370 L 3070 370 L 3070 460 L 2980 460 Z M 2980 370 " transform="matrix(0.1,0,0,-0.1,0,47)"/>
<path style="fill-rule:nonzero;fill:rgb(100%,100%,100%);fill-opacity:1;stroke-width:10;stroke-linecap:butt;stroke-linejoin:miter;stroke:rgb(13.729858%,12.159729%,12.548828%);stroke-opacity:1;stroke-miterlimit:4;" d="M 3070 370 L 3160 370 L 3160 460 L 3070 460 Z M 3070 370 " transform="matrix(0.1,0,0,-0.1,0,47)"/>
<path style="fill-rule:nonzero;fill:rgb(100%,100%,100%);fill-opacity:1;stroke-width:10;stroke-linecap:butt;stroke-linejoin:miter;stroke:rgb(13.729858%,12.159729%,12.548828%);stroke-opacity:1;stroke-miterlimit:4;" d="M 3160 370 L 3250 370 L 3250 460 L 3160 460 Z M 3160 370 " transform="matrix(0.1,0,0,-0.1,0,47)"/>
<path style="fill-rule:nonzero;fill:rgb(100%,100%,100%);fill-opacity:1;stroke-width:10;stroke-linecap:butt;stroke-linejoin:miter;stroke:rgb(13.729858%,12.159729%,12.548828%);stroke-opacity:1;stroke-miterlimit:4;" d="M 3250 370 L 3340 370 L 3340 460 L 3250 460 Z M 3250 370 " transform="matrix(0.1,0,0,-0.1,0,47)"/>
<path style="fill-rule:nonzero;fill:rgb(100%,100%,100%);fill-opacity:1;stroke-width:10;stroke-linecap:butt;stroke-linejoin:miter;stroke:rgb(13.729858%,12.159729%,12.548828%);stroke-opacity:1;stroke-miterlimit:4;" d="M 3340 370 L 3430 370 L 3430 460 L 3340 460 Z M 3340 370 " transform="matrix(0.1,0,0,-0.1,0,47)"/>
<path style="fill-rule:nonzero;fill:rgb(100%,100%,100%);fill-opacity:1;stroke-width:10;stroke-linecap:butt;stroke-linejoin:miter;stroke:rgb(13.729858%,12.159729%,12.548828%);stroke-opacity:1;stroke-miterlimit:4;" d="M 3430 370 L 3520 370 L 3520 460 L 3430 460 Z M 3430 370 " transform="matrix(0.1,0,0,-0.1,0,47)"/>
<path style="fill-rule:nonzero;fill:rgb(100%,100%,100%);fill-opacity:1;stroke-width:10;stroke-linecap:butt;stroke-linejoin:miter;stroke:rgb(13.729858%,12.159729%,12.548828%);stroke-opacity:1;stroke-miterlimit:4;" d="M 2980 280 L 3070 280 L 3070 370 L 2980 370 Z M 2980 280 " transform="matrix(0.1,0,0,-0.1,0,47)"/>
<path style="fill-rule:nonzero;fill:rgb(100%,100%,100%);fill-opacity:1;stroke-width:10;stroke-linecap:butt;stroke-linejoin:miter;stroke:rgb(13.729858%,12.159729%,12.548828%);stroke-opacity:1;stroke-miterlimit:4;" d="M 2980 190 L 3070 190 L 3070 280 L 2980 280 Z M 2980 190 " transform="matrix(0.1,0,0,-0.1,0,47)"/>
<path style="fill-rule:nonzero;fill:rgb(100%,100%,100%);fill-opacity:1;stroke-width:10;stroke-linecap:butt;stroke-linejoin:miter;stroke:rgb(13.729858%,12.159729%,12.548828%);stroke-opacity:1;stroke-miterlimit:4;" d="M 2980 100 L 3070 100 L 3070 190 L 2980 190 Z M 2980 100 " transform="matrix(0.1,0,0,-0.1,0,47)"/>
<path style="fill-rule:nonzero;fill:rgb(100%,100%,100%);fill-opacity:1;stroke-width:10;stroke-linecap:butt;stroke-linejoin:miter;stroke:rgb(13.729858%,12.159729%,12.548828%);stroke-opacity:1;stroke-miterlimit:4;" d="M 2980 10 L 3070 10 L 3070 100 L 2980 100 Z M 2980 10 " transform="matrix(0.1,0,0,-0.1,0,47)"/>
<path style="fill-rule:nonzero;fill:rgb(100%,100%,100%);fill-opacity:1;stroke-width:10;stroke-linecap:butt;stroke-linejoin:miter;stroke:rgb(13.729858%,12.159729%,12.548828%);stroke-opacity:1;stroke-miterlimit:4;" d="M 3070 280 L 3160 280 L 3160 370 L 3070 370 Z M 3070 280 " transform="matrix(0.1,0,0,-0.1,0,47)"/>
<path style="fill-rule:nonzero;fill:rgb(100%,100%,100%);fill-opacity:1;stroke-width:10;stroke-linecap:butt;stroke-linejoin:miter;stroke:rgb(13.729858%,12.159729%,12.548828%);stroke-opacity:1;stroke-miterlimit:4;" d="M 3070 190 L 3160 190 L 3160 280 L 3070 280 Z M 3070 190 " transform="matrix(0.1,0,0,-0.1,0,47)"/>
<path style="fill-rule:nonzero;fill:rgb(100%,100%,100%);fill-opacity:1;stroke-width:10;stroke-linecap:butt;stroke-linejoin:miter;stroke:rgb(13.729858%,12.159729%,12.548828%);stroke-opacity:1;stroke-miterlimit:4;" d="M 3070 100 L 3160 100 L 3160 190 L 3070 190 Z M 3070 100 " transform="matrix(0.1,0,0,-0.1,0,47)"/>
<path style="fill-rule:nonzero;fill:rgb(100%,100%,100%);fill-opacity:1;stroke-width:10;stroke-linecap:butt;stroke-linejoin:miter;stroke:rgb(13.729858%,12.159729%,12.548828%);stroke-opacity:1;stroke-miterlimit:4;" d="M 3160 280 L 3250 280 L 3250 370 L 3160 370 Z M 3160 280 " transform="matrix(0.1,0,0,-0.1,0,47)"/>
<path style="fill-rule:nonzero;fill:rgb(100%,100%,100%);fill-opacity:1;stroke-width:10;stroke-linecap:butt;stroke-linejoin:miter;stroke:rgb(13.729858%,12.159729%,12.548828%);stroke-opacity:1;stroke-miterlimit:4;" d="M 3160 190 L 3250 190 L 3250 280 L 3160 280 Z M 3160 190 " transform="matrix(0.1,0,0,-0.1,0,47)"/>
<path style="fill-rule:nonzero;fill:rgb(100%,100%,100%);fill-opacity:1;stroke-width:10;stroke-linecap:butt;stroke-linejoin:miter;stroke:rgb(13.729858%,12.159729%,12.548828%);stroke-opacity:1;stroke-miterlimit:4;" d="M 3160 100 L 3250 100 L 3250 190 L 3160 190 Z M 3160 100 " transform="matrix(0.1,0,0,-0.1,0,47)"/>
<path style="fill-rule:nonzero;fill:rgb(100%,100%,100%);fill-opacity:1;stroke-width:10;stroke-linecap:butt;stroke-linejoin:miter;stroke:rgb(13.729858%,12.159729%,12.548828%);stroke-opacity:1;stroke-miterlimit:4;" d="M 3250 280 L 3340 280 L 3340 370 L 3250 370 Z M 3250 280 " transform="matrix(0.1,0,0,-0.1,0,47)"/>
<path style="fill-rule:nonzero;fill:rgb(100%,100%,100%);fill-opacity:1;stroke-width:10;stroke-linecap:butt;stroke-linejoin:miter;stroke:rgb(13.729858%,12.159729%,12.548828%);stroke-opacity:1;stroke-miterlimit:4;" d="M 10 10 L 550 10 L 550 460 L 10 460 Z M 10 10 " transform="matrix(0.1,0,0,-0.1,0,47)"/>
<path style="fill-rule:nonzero;fill:rgb(100%,100%,100%);fill-opacity:1;stroke-width:10;stroke-linecap:butt;stroke-linejoin:miter;stroke:rgb(13.729858%,12.159729%,12.548828%);stroke-opacity:1;stroke-miterlimit:4;" d="M 10 370 L 100 370 L 100 460 L 10 460 Z M 10 370 " transform="matrix(0.1,0,0,-0.1,0,47)"/>
<path style="fill-rule:nonzero;fill:rgb(100%,100%,100%);fill-opacity:1;stroke-width:10;stroke-linecap:butt;stroke-linejoin:miter;stroke:rgb(13.729858%,12.159729%,12.548828%);stroke-opacity:1;stroke-miterlimit:4;" d="M 100 370 L 190 370 L 190 460 L 100 460 Z M 100 370 " transform="matrix(0.1,0,0,-0.1,0,47)"/>
<path style="fill-rule:nonzero;fill:rgb(100%,100%,100%);fill-opacity:1;stroke-width:10;stroke-linecap:butt;stroke-linejoin:miter;stroke:rgb(13.729858%,12.159729%,12.548828%);stroke-opacity:1;stroke-miterlimit:4;" d="M 190 370 L 280 370 L 280 460 L 190 460 Z M 190 370 " transform="matrix(0.1,0,0,-0.1,0,47)"/>
<path style="fill-rule:nonzero;fill:rgb(100%,100%,100%);fill-opacity:1;stroke-width:10;stroke-linecap:butt;stroke-linejoin:miter;stroke:rgb(13.729858%,12.159729%,12.548828%);stroke-opacity:1;stroke-miterlimit:4;" d="M 280 370 L 370 370 L 370 460 L 280 460 Z M 280 370 " transform="matrix(0.1,0,0,-0.1,0,47)"/>
<path style="fill-rule:nonzero;fill:rgb(100%,100%,100%);fill-opacity:1;stroke-width:10;stroke-linecap:butt;stroke-linejoin:miter;stroke:rgb(13.729858%,12.159729%,12.548828%);stroke-opacity:1;stroke-miterlimit:4;" d="M 370 370 L 460 370 L 460 460 L 370 460 Z M 370 370 " transform="matrix(0.1,0,0,-0.1,0,47)"/>
<path style="fill-rule:nonzero;fill:rgb(100%,100%,100%);fill-opacity:1;stroke-width:10;stroke-linecap:butt;stroke-linejoin:miter;stroke:rgb(13.729858%,12.159729%,12.548828%);stroke-opacity:1;stroke-miterlimit:4;" d="M 10 280 L 100 280 L 100 370 L 10 370 Z M 10 280 " transform="matrix(0.1,0,0,-0.1,0,47)"/>
<path style="fill-rule:nonzero;fill:rgb(100%,100%,100%);fill-opacity:1;stroke-width:10;stroke-linecap:butt;stroke-linejoin:miter;stroke:rgb(13.729858%,12.159729%,12.548828%);stroke-opacity:1;stroke-miterlimit:4;" d="M 100 280 L 190 280 L 190 370 L 100 370 Z M 100 280 " transform="matrix(0.1,0,0,-0.1,0,47)"/>
<path style="fill-rule:nonzero;fill:rgb(100%,100%,100%);fill-opacity:1;stroke-width:10;stroke-linecap:butt;stroke-linejoin:miter;stroke:rgb(13.729858%,12.159729%,12.548828%);stroke-opacity:1;stroke-miterlimit:4;" d="M 190 280 L 280 280 L 280 370 L 190 370 Z M 190 280 " transform="matrix(0.1,0,0,-0.1,0,47)"/>
<path style="fill-rule:nonzero;fill:rgb(100%,100%,100%);fill-opacity:1;stroke-width:10;stroke-linecap:butt;stroke-linejoin:miter;stroke:rgb(13.729858%,12.159729%,12.548828%);stroke-opacity:1;stroke-miterlimit:4;" d="M 10 190 L 100 190 L 100 280 L 10 280 Z M 10 190 " transform="matrix(0.1,0,0,-0.1,0,47)"/>
<path style="fill-rule:nonzero;fill:rgb(100%,100%,100%);fill-opacity:1;stroke-width:10;stroke-linecap:butt;stroke-linejoin:miter;stroke:rgb(13.729858%,12.159729%,12.548828%);stroke-opacity:1;stroke-miterlimit:4;" d="M 100 190 L 190 190 L 190 280 L 100 280 Z M 100 190 " transform="matrix(0.1,0,0,-0.1,0,47)"/>
<path style="fill-rule:nonzero;fill:rgb(100%,100%,100%);fill-opacity:1;stroke-width:10;stroke-linecap:butt;stroke-linejoin:miter;stroke:rgb(13.729858%,12.159729%,12.548828%);stroke-opacity:1;stroke-miterlimit:4;" d="M 190 190 L 280 190 L 280 280 L 190 280 Z M 190 190 " transform="matrix(0.1,0,0,-0.1,0,47)"/>
<path style="fill-rule:nonzero;fill:rgb(100%,100%,100%);fill-opacity:1;stroke-width:10;stroke-linecap:butt;stroke-linejoin:miter;stroke:rgb(13.729858%,12.159729%,12.548828%);stroke-opacity:1;stroke-miterlimit:4;" d="M 10 100 L 100 100 L 100 190 L 10 190 Z M 10 100 " transform="matrix(0.1,0,0,-0.1,0,47)"/>
<path style="fill-rule:nonzero;fill:rgb(100%,100%,100%);fill-opacity:1;stroke-width:10;stroke-linecap:butt;stroke-linejoin:miter;stroke:rgb(13.729858%,12.159729%,12.548828%);stroke-opacity:1;stroke-miterlimit:4;" d="M 100 100 L 190 100 L 190 190 L 100 190 Z M 100 100 " transform="matrix(0.1,0,0,-0.1,0,47)"/>
<path style="fill-rule:nonzero;fill:rgb(100%,100%,100%);fill-opacity:1;stroke-width:10;stroke-linecap:butt;stroke-linejoin:miter;stroke:rgb(13.729858%,12.159729%,12.548828%);stroke-opacity:1;stroke-miterlimit:4;" d="M 1000 10 L 1540 10 L 1540 460 L 1000 460 Z M 1000 10 " transform="matrix(0.1,0,0,-0.1,0,47)"/>
<path style="fill-rule:nonzero;fill:rgb(100%,100%,100%);fill-opacity:1;stroke-width:10;stroke-linecap:butt;stroke-linejoin:miter;stroke:rgb(13.729858%,12.159729%,12.548828%);stroke-opacity:1;stroke-miterlimit:4;" d="M 1450 10 L 1540 10 L 1540 100 L 1450 100 Z M 1450 10 " transform="matrix(0.1,0,0,-0.1,0,47)"/>
<path style="fill-rule:nonzero;fill:rgb(100%,100%,100%);fill-opacity:1;stroke-width:10;stroke-linecap:butt;stroke-linejoin:miter;stroke:rgb(13.729858%,12.159729%,12.548828%);stroke-opacity:1;stroke-miterlimit:4;" d="M 1360 10 L 1450 10 L 1450 100 L 1360 100 Z M 1360 10 " transform="matrix(0.1,0,0,-0.1,0,47)"/>
<path style="fill-rule:nonzero;fill:rgb(100%,100%,100%);fill-opacity:1;stroke-width:10;stroke-linecap:butt;stroke-linejoin:miter;stroke:rgb(13.729858%,12.159729%,12.548828%);stroke-opacity:1;stroke-miterlimit:4;" d="M 1270 10 L 1360 10 L 1360 100 L 1270 100 Z M 1270 10 " transform="matrix(0.1,0,0,-0.1,0,47)"/>
<path style="fill-rule:nonzero;fill:rgb(100%,100%,100%);fill-opacity:1;stroke-width:10;stroke-linecap:butt;stroke-linejoin:miter;stroke:rgb(13.729858%,12.159729%,12.548828%);stroke-opacity:1;stroke-miterlimit:4;" d="M 1180 10 L 1270 10 L 1270 100 L 1180 100 Z M 1180 10 " transform="matrix(0.1,0,0,-0.1,0,47)"/>
<path style="fill-rule:nonzero;fill:rgb(100%,100%,100%);fill-opacity:1;stroke-width:10;stroke-linecap:butt;stroke-linejoin:miter;stroke:rgb(13.729858%,12.159729%,12.548828%);stroke-opacity:1;stroke-miterlimit:4;" d="M 1090 10 L 1180 10 L 1180 100 L 1090 100 Z M 1090 10 " transform="matrix(0.1,0,0,-0.1,0,47)"/>
<path style="fill-rule:nonzero;fill:rgb(100%,100%,100%);fill-opacity:1;stroke-width:10;stroke-linecap:butt;stroke-linejoin:miter;stroke:rgb(13.729858%,12.159729%,12.548828%);stroke-opacity:1;stroke-miterlimit:4;" d="M 1450 100 L 1540 100 L 1540 190 L 1450 190 Z M 1450 100 " transform="matrix(0.1,0,0,-0.1,0,47)"/>
<path style="fill-rule:nonzero;fill:rgb(100%,100%,100%);fill-opacity:1;stroke-width:10;stroke-linecap:butt;stroke-linejoin:miter;stroke:rgb(13.729858%,12.159729%,12.548828%);stroke-opacity:1;stroke-miterlimit:4;" d="M 1360 100 L 1450 100 L 1450 190 L 1360 190 Z M 1360 100 " transform="matrix(0.1,0,0,-0.1,0,47)"/>
<path style="fill-rule:nonzero;fill:rgb(100%,100%,100%);fill-opacity:1;stroke-width:10;stroke-linecap:butt;stroke-linejoin:miter;stroke:rgb(13.729858%,12.159729%,12.548828%);stroke-opacity:1;stroke-miterlimit:4;" d="M 1270 100 L 1360 100 L 1360 190 L 1270 190 Z M 1270 100 " transform="matrix(0.1,0,0,-0.1,0,47)"/>
<path style="fill-rule:nonzero;fill:rgb(100%,100%,100%);fill-opacity:1;stroke-width:10;stroke-linecap:butt;stroke-linejoin:miter;stroke:rgb(13.729858%,12.159729%,12.548828%);stroke-opacity:1;stroke-miterlimit:4;" d="M 1450 190 L 1540 190 L 1540 280 L 1450 280 Z M 1450 190 " transform="matrix(0.1,0,0,-0.1,0,47)"/>
<path style="fill-rule:nonzero;fill:rgb(100%,100%,100%);fill-opacity:1;stroke-width:10;stroke-linecap:butt;stroke-linejoin:miter;stroke:rgb(13.729858%,12.159729%,12.548828%);stroke-opacity:1;stroke-miterlimit:4;" d="M 1360 190 L 1450 190 L 1450 280 L 1360 280 Z M 1360 190 " transform="matrix(0.1,0,0,-0.1,0,47)"/>
<path style="fill-rule:nonzero;fill:rgb(100%,100%,100%);fill-opacity:1;stroke-width:10;stroke-linecap:butt;stroke-linejoin:miter;stroke:rgb(13.729858%,12.159729%,12.548828%);stroke-opacity:1;stroke-miterlimit:4;" d="M 1270 190 L 1360 190 L 1360 280 L 1270 280 Z M 1270 190 " transform="matrix(0.1,0,0,-0.1,0,47)"/>
<path style="fill-rule:nonzero;fill:rgb(100%,100%,100%);fill-opacity:1;stroke-width:10;stroke-linecap:butt;stroke-linejoin:miter;stroke:rgb(13.729858%,12.159729%,12.548828%);stroke-opacity:1;stroke-miterlimit:4;" d="M 1450 280 L 1540 280 L 1540 370 L 1450 370 Z M 1450 280 " transform="matrix(0.1,0,0,-0.1,0,47)"/>
<path style="fill-rule:nonzero;fill:rgb(100%,100%,100%);fill-opacity:1;stroke-width:10;stroke-linecap:butt;stroke-linejoin:miter;stroke:rgb(13.729858%,12.159729%,12.548828%);stroke-opacity:1;stroke-miterlimit:4;" d="M 1360 280 L 1450 280 L 1450 370 L 1360 370 Z M 1360 280 " transform="matrix(0.1,0,0,-0.1,0,47)"/>
<path style="fill-rule:nonzero;fill:rgb(100%,100%,100%);fill-opacity:1;stroke-width:10;stroke-linecap:butt;stroke-linejoin:miter;stroke:rgb(13.729858%,12.159729%,12.548828%);stroke-opacity:1;stroke-miterlimit:4;" d="M 1990 10 L 2530 10 L 2530 460 L 1990 460 Z M 1990 10 " transform="matrix(0.1,0,0,-0.1,0,47)"/>
<path style="fill-rule:nonzero;fill:rgb(78.431702%,78.039551%,78.137207%);fill-opacity:1;stroke-width:10;stroke-linecap:butt;stroke-linejoin:miter;stroke:rgb(13.729858%,12.159729%,12.548828%);stroke-opacity:1;stroke-miterlimit:4;" d="M 2440 10 L 2530 10 L 2530 100 L 2440 100 Z M 2440 10 " transform="matrix(0.1,0,0,-0.1,0,47)"/>
<path style="fill-rule:nonzero;fill:rgb(78.431702%,78.039551%,78.137207%);fill-opacity:1;stroke-width:10;stroke-linecap:butt;stroke-linejoin:miter;stroke:rgb(13.729858%,12.159729%,12.548828%);stroke-opacity:1;stroke-miterlimit:4;" d="M 2350 10 L 2440 10 L 2440 100 L 2350 100 Z M 2350 10 " transform="matrix(0.1,0,0,-0.1,0,47)"/>
<path style="fill-rule:nonzero;fill:rgb(78.431702%,78.039551%,78.137207%);fill-opacity:1;stroke-width:10;stroke-linecap:butt;stroke-linejoin:miter;stroke:rgb(13.729858%,12.159729%,12.548828%);stroke-opacity:1;stroke-miterlimit:4;" d="M 2260 10 L 2350 10 L 2350 100 L 2260 100 Z M 2260 10 " transform="matrix(0.1,0,0,-0.1,0,47)"/>
<path style="fill-rule:nonzero;fill:rgb(78.431702%,78.039551%,78.137207%);fill-opacity:1;stroke-width:10;stroke-linecap:butt;stroke-linejoin:miter;stroke:rgb(13.729858%,12.159729%,12.548828%);stroke-opacity:1;stroke-miterlimit:4;" d="M 2170 10 L 2260 10 L 2260 100 L 2170 100 Z M 2170 10 " transform="matrix(0.1,0,0,-0.1,0,47)"/>
<path style="fill-rule:nonzero;fill:rgb(78.431702%,78.039551%,78.137207%);fill-opacity:1;stroke-width:10;stroke-linecap:butt;stroke-linejoin:miter;stroke:rgb(13.729858%,12.159729%,12.548828%);stroke-opacity:1;stroke-miterlimit:4;" d="M 2080 10 L 2170 10 L 2170 100 L 2080 100 Z M 2080 10 " transform="matrix(0.1,0,0,-0.1,0,47)"/>
<path style="fill-rule:nonzero;fill:rgb(78.431702%,78.039551%,78.137207%);fill-opacity:1;stroke-width:10;stroke-linecap:butt;stroke-linejoin:miter;stroke:rgb(13.729858%,12.159729%,12.548828%);stroke-opacity:1;stroke-miterlimit:4;" d="M 2440 100 L 2530 100 L 2530 190 L 2440 190 Z M 2440 100 " transform="matrix(0.1,0,0,-0.1,0,47)"/>
<path style="fill-rule:nonzero;fill:rgb(78.431702%,78.039551%,78.137207%);fill-opacity:1;stroke-width:10;stroke-linecap:butt;stroke-linejoin:miter;stroke:rgb(13.729858%,12.159729%,12.548828%);stroke-opacity:1;stroke-miterlimit:4;" d="M 2350 100 L 2440 100 L 2440 190 L 2350 190 Z M 2350 100 " transform="matrix(0.1,0,0,-0.1,0,47)"/>
<path style="fill-rule:nonzero;fill:rgb(78.431702%,78.039551%,78.137207%);fill-opacity:1;stroke-width:10;stroke-linecap:butt;stroke-linejoin:miter;stroke:rgb(13.729858%,12.159729%,12.548828%);stroke-opacity:1;stroke-miterlimit:4;" d="M 2260 100 L 2350 100 L 2350 190 L 2260 190 Z M 2260 100 " transform="matrix(0.1,0,0,-0.1,0,47)"/>
<path style="fill-rule:nonzero;fill:rgb(78.431702%,78.039551%,78.137207%);fill-opacity:1;stroke-width:10;stroke-linecap:butt;stroke-linejoin:miter;stroke:rgb(13.729858%,12.159729%,12.548828%);stroke-opacity:1;stroke-miterlimit:4;" d="M 2440 190 L 2530 190 L 2530 280 L 2440 280 Z M 2440 190 " transform="matrix(0.1,0,0,-0.1,0,47)"/>
<path style="fill-rule:nonzero;fill:rgb(78.431702%,78.039551%,78.137207%);fill-opacity:1;stroke-width:10;stroke-linecap:butt;stroke-linejoin:miter;stroke:rgb(13.729858%,12.159729%,12.548828%);stroke-opacity:1;stroke-miterlimit:4;" d="M 2350 190 L 2440 190 L 2440 280 L 2350 280 Z M 2350 190 " transform="matrix(0.1,0,0,-0.1,0,47)"/>
<path style="fill-rule:nonzero;fill:rgb(78.431702%,78.039551%,78.137207%);fill-opacity:1;stroke-width:10;stroke-linecap:butt;stroke-linejoin:miter;stroke:rgb(13.729858%,12.159729%,12.548828%);stroke-opacity:1;stroke-miterlimit:4;" d="M 2260 190 L 2350 190 L 2350 280 L 2260 280 Z M 2260 190 " transform="matrix(0.1,0,0,-0.1,0,47)"/>
<path style="fill-rule:nonzero;fill:rgb(78.431702%,78.039551%,78.137207%);fill-opacity:1;stroke-width:10;stroke-linecap:butt;stroke-linejoin:miter;stroke:rgb(13.729858%,12.159729%,12.548828%);stroke-opacity:1;stroke-miterlimit:4;" d="M 2440 280 L 2530 280 L 2530 370 L 2440 370 Z M 2440 280 " transform="matrix(0.1,0,0,-0.1,0,47)"/>
<path style="fill-rule:nonzero;fill:rgb(78.431702%,78.039551%,78.137207%);fill-opacity:1;stroke-width:10;stroke-linecap:butt;stroke-linejoin:miter;stroke:rgb(13.729858%,12.159729%,12.548828%);stroke-opacity:1;stroke-miterlimit:4;" d="M 2350 280 L 2440 280 L 2440 370 L 2350 370 Z M 2350 280 " transform="matrix(0.1,0,0,-0.1,0,47)"/>
<path style="fill-rule:nonzero;fill:rgb(100%,100%,100%);fill-opacity:1;stroke-width:10;stroke-linecap:butt;stroke-linejoin:miter;stroke:rgb(13.729858%,12.159729%,12.548828%);stroke-opacity:1;stroke-miterlimit:4;" d="M 1990 370 L 2080 370 L 2080 460 L 1990 460 Z M 1990 370 " transform="matrix(0.1,0,0,-0.1,0,47)"/>
<path style="fill-rule:nonzero;fill:rgb(100%,100%,100%);fill-opacity:1;stroke-width:10;stroke-linecap:butt;stroke-linejoin:miter;stroke:rgb(13.729858%,12.159729%,12.548828%);stroke-opacity:1;stroke-miterlimit:4;" d="M 2080 370 L 2170 370 L 2170 460 L 2080 460 Z M 2080 370 " transform="matrix(0.1,0,0,-0.1,0,47)"/>
<path style="fill-rule:nonzero;fill:rgb(100%,100%,100%);fill-opacity:1;stroke-width:10;stroke-linecap:butt;stroke-linejoin:miter;stroke:rgb(13.729858%,12.159729%,12.548828%);stroke-opacity:1;stroke-miterlimit:4;" d="M 2170 370 L 2260 370 L 2260 460 L 2170 460 Z M 2170 370 " transform="matrix(0.1,0,0,-0.1,0,47)"/>
<path style="fill-rule:nonzero;fill:rgb(100%,100%,100%);fill-opacity:1;stroke-width:10;stroke-linecap:butt;stroke-linejoin:miter;stroke:rgb(13.729858%,12.159729%,12.548828%);stroke-opacity:1;stroke-miterlimit:4;" d="M 2260 370 L 2350 370 L 2350 460 L 2260 460 Z M 2260 370 " transform="matrix(0.1,0,0,-0.1,0,47)"/>
<path style="fill-rule:nonzero;fill:rgb(100%,100%,100%);fill-opacity:1;stroke-width:10;stroke-linecap:butt;stroke-linejoin:miter;stroke:rgb(13.729858%,12.159729%,12.548828%);stroke-opacity:1;stroke-miterlimit:4;" d="M 1990 280 L 2080 280 L 2080 370 L 1990 370 Z M 1990 280 " transform="matrix(0.1,0,0,-0.1,0,47)"/>
<path style="fill-rule:nonzero;fill:rgb(100%,100%,100%);fill-opacity:1;stroke-width:10;stroke-linecap:butt;stroke-linejoin:miter;stroke:rgb(13.729858%,12.159729%,12.548828%);stroke-opacity:1;stroke-miterlimit:4;" d="M 2350 370 L 2440 370 L 2440 460 L 2350 460 Z M 2350 370 " transform="matrix(0.1,0,0,-0.1,0,47)"/>
<path style="fill-rule:nonzero;fill:rgb(100%,100%,100%);fill-opacity:1;stroke-width:10;stroke-linecap:butt;stroke-linejoin:miter;stroke:rgb(13.729858%,12.159729%,12.548828%);stroke-opacity:1;stroke-miterlimit:4;" d="M 2080 280 L 2170 280 L 2170 370 L 2080 370 Z M 2080 280 " transform="matrix(0.1,0,0,-0.1,0,47)"/>
<path style="fill-rule:nonzero;fill:rgb(100%,100%,100%);fill-opacity:1;stroke-width:10;stroke-linecap:butt;stroke-linejoin:miter;stroke:rgb(13.729858%,12.159729%,12.548828%);stroke-opacity:1;stroke-miterlimit:4;" d="M 2170 280 L 2260 280 L 2260 370 L 2170 370 Z M 2170 280 " transform="matrix(0.1,0,0,-0.1,0,47)"/>
<path style="fill-rule:nonzero;fill:rgb(100%,100%,100%);fill-opacity:1;stroke-width:10;stroke-linecap:butt;stroke-linejoin:miter;stroke:rgb(13.729858%,12.159729%,12.548828%);stroke-opacity:1;stroke-miterlimit:4;" d="M 1990 190 L 2080 190 L 2080 280 L 1990 280 Z M 1990 190 " transform="matrix(0.1,0,0,-0.1,0,47)"/>
<path style="fill-rule:nonzero;fill:rgb(100%,100%,100%);fill-opacity:1;stroke-width:10;stroke-linecap:butt;stroke-linejoin:miter;stroke:rgb(13.729858%,12.159729%,12.548828%);stroke-opacity:1;stroke-miterlimit:4;" d="M 2080 190 L 2170 190 L 2170 280 L 2080 280 Z M 2080 190 " transform="matrix(0.1,0,0,-0.1,0,47)"/>
<path style="fill-rule:nonzero;fill:rgb(100%,100%,100%);fill-opacity:1;stroke-width:10;stroke-linecap:butt;stroke-linejoin:miter;stroke:rgb(13.729858%,12.159729%,12.548828%);stroke-opacity:1;stroke-miterlimit:4;" d="M 2170 190 L 2260 190 L 2260 280 L 2170 280 Z M 2170 190 " transform="matrix(0.1,0,0,-0.1,0,47)"/>
<path style="fill-rule:nonzero;fill:rgb(100%,100%,100%);fill-opacity:1;stroke-width:10;stroke-linecap:butt;stroke-linejoin:miter;stroke:rgb(13.729858%,12.159729%,12.548828%);stroke-opacity:1;stroke-miterlimit:4;" d="M 1990 100 L 2080 100 L 2080 190 L 1990 190 Z M 1990 100 " transform="matrix(0.1,0,0,-0.1,0,47)"/>
<path style="fill-rule:nonzero;fill:rgb(100%,100%,100%);fill-opacity:1;stroke-width:10;stroke-linecap:butt;stroke-linejoin:miter;stroke:rgb(13.729858%,12.159729%,12.548828%);stroke-opacity:1;stroke-miterlimit:4;" d="M 2080 100 L 2170 100 L 2170 190 L 2080 190 Z M 2080 100 " transform="matrix(0.1,0,0,-0.1,0,47)"/>
<path style=" stroke:none;fill-rule:nonzero;fill:rgb(100%,100%,100%);fill-opacity:1;" d="M 194.035156 23 C 191.195312 24.054688 187.671875 25.851562 185.488281 27.753906 L 187.207031 23 L 185.488281 18.246094 C 187.671875 20.148438 191.195312 21.945312 194.035156 23 "/>
<path style="fill:none;stroke-width:10;stroke-linecap:butt;stroke-linejoin:miter;stroke:rgb(13.729858%,12.159729%,12.548828%);stroke-opacity:1;stroke-miterlimit:4;" d="M 1600 240 L 1880 240 " transform="matrix(0.1,0,0,-0.1,0,47)"/>
<path style=" stroke:none;fill-rule:nonzero;fill:rgb(13.729858%,12.159729%,12.548828%);fill-opacity:1;" d="M 194.035156 23 C 191.195312 24.054688 187.671875 25.851562 185.488281 27.753906 L 187.207031 23 L 185.488281 18.246094 C 187.671875 20.148438 191.195312 21.945312 194.035156 23 "/>
<path style=" stroke:none;fill-rule:nonzero;fill:rgb(100%,100%,100%);fill-opacity:1;" d="M 294.035156 24 C 291.195312 25.054688 287.671875 26.851562 285.488281 28.753906 L 287.207031 24 L 285.488281 19.246094 C 287.671875 21.148438 291.195312 22.945312 294.035156 24 "/>
<path style="fill:none;stroke-width:10;stroke-linecap:butt;stroke-linejoin:miter;stroke:rgb(13.729858%,12.159729%,12.548828%);stroke-opacity:1;stroke-miterlimit:4;" d="M 2600 230 L 2880 230 " transform="matrix(0.1,0,0,-0.1,0,47)"/>
<path style=" stroke:none;fill-rule:nonzero;fill:rgb(13.729858%,12.159729%,12.548828%);fill-opacity:1;" d="M 294.035156 24 C 291.195312 25.054688 287.671875 26.851562 285.488281 28.753906 L 287.207031 24 L 285.488281 19.246094 C 287.671875 21.148438 291.195312 22.945312 294.035156 24 "/>
<path style=" stroke:none;fill-rule:nonzero;fill:rgb(100%,100%,100%);fill-opacity:1;" d="M 95.035156 24 C 92.195312 25.054688 88.671875 26.851562 86.488281 28.753906 L 88.207031 24 L 86.488281 19.246094 C 88.671875 21.148438 92.195312 22.945312 95.035156 24 "/>
<path style="fill:none;stroke-width:10;stroke-linecap:butt;stroke-linejoin:miter;stroke:rgb(13.729858%,12.159729%,12.548828%);stroke-opacity:1;stroke-miterlimit:4;" d="M 610 230 L 890 230 " transform="matrix(0.1,0,0,-0.1,0,47)"/>
<path style=" stroke:none;fill-rule:nonzero;fill:rgb(13.729858%,12.159729%,12.548828%);fill-opacity:1;" d="M 95.035156 24 C 92.195312 25.054688 88.671875 26.851562 86.488281 28.753906 L 88.207031 24 L 86.488281 19.246094 C 88.671875 21.148438 92.195312 22.945312 95.035156 24 "/>
</g>
</svg>
