<?xml version="1.0" encoding="UTF-8"?>
<svg xmlns="http://www.w3.org/2000/svg" xmlns:xlink="http://www.w3.org/1999/xlink" width="147pt" height="46pt" viewBox="0 0 147 46" version="1.1">
<g id="surface1">
<path style=" stroke:none;fill-rule:nonzero;fill:rgb(13.729858%,12.159729%,12.548828%);fill-opacity:1;" d="M 7.375 3.972656 C 7.375 5.90625 5.808594 7.472656 3.875 7.472656 C 1.941406 7.472656 0.375 5.90625 0.375 3.972656 C 0.375 2.042969 1.941406 0.472656 3.875 0.472656 C 5.808594 0.472656 7.375 2.042969 7.375 3.972656 "/>
<path style=" stroke:none;fill-rule:nonzero;fill:rgb(13.729858%,12.159729%,12.548828%);fill-opacity:1;" d="M 7.375 16.507812 C 7.375 18.441406 5.808594 20.007812 3.875 20.007812 C 1.941406 20.007812 0.375 18.441406 0.375 16.507812 C 0.375 14.574219 1.941406 13.007812 3.875 13.007812 C 5.808594 13.007812 7.375 14.574219 7.375 16.507812 "/>
<path style=" stroke:none;fill-rule:nonzero;fill:rgb(13.729858%,12.159729%,12.548828%);fill-opacity:1;" d="M 7.375 30.007812 C 7.375 31.941406 5.808594 33.507812 3.875 33.507812 C 1.941406 33.507812 0.375 31.941406 0.375 30.007812 C 0.375 28.074219 1.941406 26.507812 3.875 26.507812 C 5.808594 26.507812 7.375 28.074219 7.375 30.007812 "/>
<path style=" stroke:none;fill-rule:nonzero;fill:rgb(13.729858%,12.159729%,12.548828%);fill-opacity:1;" d="M 7.375 41.675781 C 7.375 43.605469 5.808594 45.175781 3.875 45.175781 C 1.941406 45.175781 0.375 43.605469 0.375 41.675781 C 0.375 39.742188 1.941406 38.175781 3.875 38.175781 C 5.808594 38.175781 7.375 39.742188 7.375 41.675781 "/>
<path style=" stroke:none;fill-rule:nonzero;fill:rgb(13.729858%,12.159729%,12.548828%);fill-opacity:1;" d="M 20 3.972656 C 20 5.90625 18.433594 7.472656 16.5 7.472656 C 14.566406 7.472656 13 5.90625 13 3.972656 C 13 2.042969 14.566406 0.472656 16.5 0.472656 C 18.433594 0.472656 20 2.042969 20 3.972656 "/>
<path style=" stroke:none;fill-rule:nonzero;fill:rgb(13.729858%,12.159729%,12.548828%);fill-opacity:1;" d="M 20 16.507812 C 20 18.441406 18.433594 20.007812 16.5 20.007812 C 14.566406 20.007812 13 18.441406 13 16.507812 C 13 14.574219 14.566406 13.007812 16.5 13.007812 C 18.433594 13.007812 20 14.574219 20 16.507812 "/>
<path style=" stroke:none;fill-rule:nonzero;fill:rgb(13.729858%,12.159729%,12.548828%);fill-opacity:1;" d="M 20 30.007812 C 20 31.941406 18.433594 33.507812 16.5 33.507812 C 14.566406 33.507812 13 31.941406 13 30.007812 C 13 28.074219 14.566406 26.507812 16.5 26.507812 C 18.433594 26.507812 20 28.074219 20 30.007812 "/>
<path style=" stroke:none;fill-rule:nonzero;fill:rgb(13.729858%,12.159729%,12.548828%);fill-opacity:1;" d="M 20 41.675781 C 20 43.605469 18.433594 45.175781 16.5 45.175781 C 14.566406 45.175781 13 43.605469 13 41.675781 C 13 39.742188 14.566406 38.175781 16.5 38.175781 C 18.433594 38.175781 20 39.742188 20 41.675781 "/>
<path style=" stroke:none;fill-rule:nonzero;fill:rgb(13.729858%,12.159729%,12.548828%);fill-opacity:1;" d="M 32.625 3.972656 C 32.625 5.90625 31.058594 7.472656 29.125 7.472656 C 27.191406 7.472656 25.625 5.90625 25.625 3.972656 C 25.625 2.042969 27.191406 0.472656 29.125 0.472656 C 31.058594 0.472656 32.625 2.042969 32.625 3.972656 "/>
<path style=" stroke:none;fill-rule:nonzero;fill:rgb(13.729858%,12.159729%,12.548828%);fill-opacity:1;" d="M 32.625 16.507812 C 32.625 18.441406 31.058594 20.007812 29.125 20.007812 C 27.191406 20.007812 25.625 18.441406 25.625 16.507812 C 25.625 14.574219 27.191406 13.007812 29.125 13.007812 C 31.058594 13.007812 32.625 14.574219 32.625 16.507812 "/>
<path style=" stroke:none;fill-rule:nonzero;fill:rgb(13.729858%,12.159729%,12.548828%);fill-opacity:1;" d="M 32.625 30.007812 C 32.625 31.941406 31.058594 33.507812 29.125 33.507812 C 27.191406 33.507812 25.625 31.941406 25.625 30.007812 C 25.625 28.074219 27.191406 26.507812 29.125 26.507812 C 31.058594 26.507812 32.625 28.074219 32.625 30.007812 "/>
<path style=" stroke:none;fill-rule:nonzero;fill:rgb(13.729858%,12.159729%,12.548828%);fill-opacity:1;" d="M 45.25 3.972656 C 45.25 5.90625 43.683594 7.472656 41.75 7.472656 C 39.816406 7.472656 38.25 5.90625 38.25 3.972656 C 38.25 2.042969 39.816406 0.472656 41.75 0.472656 C 43.683594 0.472656 45.25 2.042969 45.25 3.972656 "/>
<path style=" stroke:none;fill-rule:nonzero;fill:rgb(13.729858%,12.159729%,12.548828%);fill-opacity:1;" d="M 57.875 3.972656 C 57.875 5.90625 56.308594 7.472656 54.375 7.472656 C 52.441406 7.472656 50.875 5.90625 50.875 3.972656 C 50.875 2.042969 52.441406 0.472656 54.375 0.472656 C 56.308594 0.472656 57.875 2.042969 57.875 3.972656 "/>
<path style="fill-rule:nonzero;fill:rgb(100%,100%,100%);fill-opacity:1;stroke-width:10;stroke-linecap:butt;stroke-linejoin:miter;stroke:rgb(13.729858%,12.159729%,12.548828%);stroke-opacity:1;stroke-miterlimit:4;" d="M 1063.75 318.242188 L 1163.75 318.242188 L 1163.75 418.242188 L 1063.75 418.242188 Z M 1063.75 318.242188 " transform="matrix(0.1,0,0,-0.1,0,46)"/>
<path style="fill-rule:nonzero;fill:rgb(100%,100%,100%);fill-opacity:1;stroke-width:10;stroke-linecap:butt;stroke-linejoin:miter;stroke:rgb(13.729858%,12.159729%,12.548828%);stroke-opacity:1;stroke-miterlimit:4;" d="M 1063.75 223.242188 L 1163.75 223.242188 L 1163.75 323.242188 L 1063.75 323.242188 Z M 1063.75 223.242188 " transform="matrix(0.1,0,0,-0.1,0,46)"/>
<path style="fill-rule:nonzero;fill:rgb(100%,100%,100%);fill-opacity:1;stroke-width:10;stroke-linecap:butt;stroke-linejoin:miter;stroke:rgb(13.729858%,12.159729%,12.548828%);stroke-opacity:1;stroke-miterlimit:4;" d="M 1063.75 128.242188 L 1163.75 128.242188 L 1163.75 228.242188 L 1063.75 228.242188 Z M 1063.75 128.242188 " transform="matrix(0.1,0,0,-0.1,0,46)"/>
<path style="fill-rule:nonzero;fill:rgb(100%,100%,100%);fill-opacity:1;stroke-width:10;stroke-linecap:butt;stroke-linejoin:miter;stroke:rgb(13.729858%,12.159729%,12.548828%);stroke-opacity:1;stroke-miterlimit:4;" d="M 1063.75 28.242188 L 1163.75 28.242188 L 1163.75 128.242188 L 1063.75 128.242188 Z M 1063.75 28.242188 " transform="matrix(0.1,0,0,-0.1,0,46)"/>
<path style="fill-rule:nonzero;fill:rgb(100%,100%,100%);fill-opacity:1;stroke-width:10;stroke-linecap:butt;stroke-linejoin:miter;stroke:rgb(13.729858%,12.159729%,12.548828%);stroke-opacity:1;stroke-miterlimit:4;" d="M 1163.75 318.242188 L 1263.75 318.242188 L 1263.75 418.242188 L 1163.75 418.242188 Z M 1163.75 318.242188 " transform="matrix(0.1,0,0,-0.1,0,46)"/>
<path style="fill-rule:nonzero;fill:rgb(100%,100%,100%);fill-opacity:1;stroke-width:10;stroke-linecap:butt;stroke-linejoin:miter;stroke:rgb(13.729858%,12.159729%,12.548828%);stroke-opacity:1;stroke-miterlimit:4;" d="M 1163.75 223.242188 L 1263.75 223.242188 L 1263.75 323.242188 L 1163.75 323.242188 Z M 1163.75 223.242188 " transform="matrix(0.1,0,0,-0.1,0,46)"/>
<path style="fill-rule:nonzero;fill:rgb(100%,100%,100%);fill-opacity:1;stroke-width:10;stroke-linecap:butt;stroke-linejoin:miter;stroke:rgb(13.729858%,12.159729%,12.548828%);stroke-opacity:1;stroke-miterlimit:4;" d="M 1163.75 128.242188 L 1263.75 128.242188 L 1263.75 228.242188 L 1163.75 228.242188 Z M 1163.75 128.242188 " transform="matrix(0.1,0,0,-0.1,0,46)"/>
<path style="fill-rule:nonzero;fill:rgb(100%,100%,100%);fill-opacity:1;stroke-width:10;stroke-linecap:butt;stroke-linejoin:miter;stroke:rgb(13.729858%,12.159729%,12.548828%);stroke-opacity:1;stroke-miterlimit:4;" d="M 1263.75 320.625 L 1363.75 320.625 L 1363.75 418.359375 L 1263.75 418.359375 Z M 1263.75 320.625 " transform="matrix(0.1,0,0,-0.1,0,46)"/>
<path style="fill-rule:nonzero;fill:rgb(100%,100%,100%);fill-opacity:1;stroke-width:10;stroke-linecap:butt;stroke-linejoin:miter;stroke:rgb(13.729858%,12.159729%,12.548828%);stroke-opacity:1;stroke-miterlimit:4;" d="M 1363.75 320.625 L 1463.75 320.625 L 1463.75 418.359375 L 1363.75 418.359375 Z M 1363.75 320.625 " transform="matrix(0.1,0,0,-0.1,0,46)"/>
<path style="fill-rule:nonzero;fill:rgb(100%,100%,100%);fill-opacity:1;stroke-width:10;stroke-linecap:butt;stroke-linejoin:miter;stroke:rgb(13.729858%,12.159729%,12.548828%);stroke-opacity:1;stroke-miterlimit:4;" d="M 963.75 318.242188 L 1063.75 318.242188 L 1063.75 418.242188 L 963.75 418.242188 Z M 963.75 318.242188 " transform="matrix(0.1,0,0,-0.1,0,46)"/>
<path style="fill-rule:nonzero;fill:rgb(100%,100%,100%);fill-opacity:1;stroke-width:10;stroke-linecap:butt;stroke-linejoin:miter;stroke:rgb(13.729858%,12.159729%,12.548828%);stroke-opacity:1;stroke-miterlimit:4;" d="M 963.75 223.242188 L 1063.75 223.242188 L 1063.75 323.242188 L 963.75 323.242188 Z M 963.75 223.242188 " transform="matrix(0.1,0,0,-0.1,0,46)"/>
<path style="fill-rule:nonzero;fill:rgb(100%,100%,100%);fill-opacity:1;stroke-width:10;stroke-linecap:butt;stroke-linejoin:miter;stroke:rgb(13.729858%,12.159729%,12.548828%);stroke-opacity:1;stroke-miterlimit:4;" d="M 963.75 128.242188 L 1063.75 128.242188 L 1063.75 228.242188 L 963.75 228.242188 Z M 963.75 128.242188 " transform="matrix(0.1,0,0,-0.1,0,46)"/>
<path style="fill-rule:nonzero;fill:rgb(100%,100%,100%);fill-opacity:1;stroke-width:10;stroke-linecap:butt;stroke-linejoin:miter;stroke:rgb(13.729858%,12.159729%,12.548828%);stroke-opacity:1;stroke-miterlimit:4;" d="M 963.75 28.242188 L 1063.75 28.242188 L 1063.75 128.242188 L 963.75 128.242188 Z M 963.75 28.242188 " transform="matrix(0.1,0,0,-0.1,0,46)"/>
</g>
</svg>
