<?xml version="1.0" encoding="UTF-8"?>
<svg xmlns="http://www.w3.org/2000/svg" xmlns:xlink="http://www.w3.org/1999/xlink" width="299pt" height="44pt" viewBox="0 0 299 44" version="1.1">
<g id="surface1">
<path style="fill:none;stroke-width:10;stroke-linecap:butt;stroke-linejoin:miter;stroke:rgb(13.729858%,12.159729%,12.548828%);stroke-opacity:1;stroke-miterlimit:4;" d="M 9.609375 5.039062 L 1245.664062 5.039062 " transform="matrix(0.1,0,0,-0.1,0,44)"/>
<path style="fill:none;stroke-width:10;stroke-linecap:butt;stroke-linejoin:miter;stroke:rgb(13.729858%,12.159729%,12.548828%);stroke-opacity:1;stroke-miterlimit:4;" d="M 1751.757812 10.039062 L 2989.414062 10.039062 " transform="matrix(0.1,0,0,-0.1,0,44)"/>
<path style="fill:none;stroke-width:10;stroke-linecap:butt;stroke-linejoin:miter;stroke:rgb(13.729858%,12.159729%,12.548828%);stroke-opacity:1;stroke-miterlimit:4;" d="M 226.25 423.203125 L 226.25 1.171875 " transform="matrix(0.1,0,0,-0.1,0,44)"/>
<path style="fill:none;stroke-width:10;stroke-linecap:butt;stroke-linejoin:miter;stroke:rgb(13.729858%,12.159729%,12.548828%);stroke-opacity:1;stroke-miterlimit:4;" d="M 632.539062 430.585938 L 632.539062 8.554688 " transform="matrix(0.1,0,0,-0.1,0,44)"/>
<path style="fill:none;stroke-width:10;stroke-linecap:butt;stroke-linejoin:miter;stroke:rgb(13.729858%,12.159729%,12.548828%);stroke-opacity:1;stroke-miterlimit:4;" d="M 1038.789062 423.203125 L 1038.789062 1.171875 " transform="matrix(0.1,0,0,-0.1,0,44)"/>
<path style="fill:none;stroke-width:10;stroke-linecap:butt;stroke-linejoin:miter;stroke:rgb(13.729858%,12.159729%,12.548828%);stroke-opacity:1;stroke-miterlimit:4;" d="M 1962.578125 428.203125 L 1962.578125 6.171875 " transform="matrix(0.1,0,0,-0.1,0,44)"/>
<path style="fill:none;stroke-width:10;stroke-linecap:butt;stroke-linejoin:miter;stroke:rgb(13.729858%,12.159729%,12.548828%);stroke-opacity:1;stroke-miterlimit:4;" d="M 2368.867188 435.585938 L 2368.867188 13.554688 " transform="matrix(0.1,0,0,-0.1,0,44)"/>
<path style="fill:none;stroke-width:10;stroke-linecap:butt;stroke-linejoin:miter;stroke:rgb(13.729858%,12.159729%,12.548828%);stroke-opacity:1;stroke-miterlimit:4;" d="M 2775.117188 428.203125 L 2775.117188 6.171875 " transform="matrix(0.1,0,0,-0.1,0,44)"/>
<path style="fill-rule:nonzero;fill:rgb(100%,100%,100%);fill-opacity:1;stroke-width:10;stroke-linecap:butt;stroke-linejoin:miter;stroke:rgb(13.729858%,12.159729%,12.548828%);stroke-opacity:1;stroke-miterlimit:4;" d="M 70.507812 20 L 385.507812 20 L 385.507812 70 L 70.507812 70 Z M 70.507812 20 " transform="matrix(0.1,0,0,-0.1,0,44)"/>
<path style="fill-rule:nonzero;fill:rgb(100%,100%,100%);fill-opacity:1;stroke-width:10;stroke-linecap:butt;stroke-linejoin:miter;stroke:rgb(13.729858%,12.159729%,12.548828%);stroke-opacity:1;stroke-miterlimit:4;" d="M 90.507812 80 L 365.507812 80 L 365.507812 135 L 90.507812 135 Z M 90.507812 80 " transform="matrix(0.1,0,0,-0.1,0,44)"/>
<path style="fill-rule:nonzero;fill:rgb(100%,100%,100%);fill-opacity:1;stroke-width:10;stroke-linecap:butt;stroke-linejoin:miter;stroke:rgb(13.729858%,12.159729%,12.548828%);stroke-opacity:1;stroke-miterlimit:4;" d="M 118.007812 142.5 L 338.007812 142.5 L 338.007812 197.5 L 118.007812 197.5 Z M 118.007812 142.5 " transform="matrix(0.1,0,0,-0.1,0,44)"/>
<path style="fill-rule:nonzero;fill:rgb(100%,100%,100%);fill-opacity:1;stroke-width:10;stroke-linecap:butt;stroke-linejoin:miter;stroke:rgb(13.729858%,12.159729%,12.548828%);stroke-opacity:1;stroke-miterlimit:4;" d="M 150.507812 205 L 305.507812 205 L 305.507812 260 L 150.507812 260 Z M 150.507812 205 " transform="matrix(0.1,0,0,-0.1,0,44)"/>
<path style="fill-rule:nonzero;fill:rgb(100%,100%,100%);fill-opacity:1;stroke-width:10;stroke-linecap:butt;stroke-linejoin:miter;stroke:rgb(13.729858%,12.159729%,12.548828%);stroke-opacity:1;stroke-miterlimit:4;" d="M 175.507812 260 L 280.507812 260 L 280.507812 310 L 175.507812 310 Z M 175.507812 260 " transform="matrix(0.1,0,0,-0.1,0,44)"/>
<path style="fill-rule:nonzero;fill:rgb(100%,100%,100%);fill-opacity:1;stroke-width:10;stroke-linecap:butt;stroke-linejoin:miter;stroke:rgb(13.729858%,12.159729%,12.548828%);stroke-opacity:1;stroke-miterlimit:4;" d="M 2615.507812 20 L 2930.507812 20 L 2930.507812 70 L 2615.507812 70 Z M 2615.507812 20 " transform="matrix(0.1,0,0,-0.1,0,44)"/>
<path style="fill-rule:nonzero;fill:rgb(100%,100%,100%);fill-opacity:1;stroke-width:10;stroke-linecap:butt;stroke-linejoin:miter;stroke:rgb(13.729858%,12.159729%,12.548828%);stroke-opacity:1;stroke-miterlimit:4;" d="M 2635.507812 80 L 2910.507812 80 L 2910.507812 135 L 2635.507812 135 Z M 2635.507812 80 " transform="matrix(0.1,0,0,-0.1,0,44)"/>
<path style="fill-rule:nonzero;fill:rgb(100%,100%,100%);fill-opacity:1;stroke-width:10;stroke-linecap:butt;stroke-linejoin:miter;stroke:rgb(13.729858%,12.159729%,12.548828%);stroke-opacity:1;stroke-miterlimit:4;" d="M 2663.007812 142.5 L 2883.007812 142.5 L 2883.007812 197.5 L 2663.007812 197.5 Z M 2663.007812 142.5 " transform="matrix(0.1,0,0,-0.1,0,44)"/>
<path style="fill-rule:nonzero;fill:rgb(100%,100%,100%);fill-opacity:1;stroke-width:10;stroke-linecap:butt;stroke-linejoin:miter;stroke:rgb(13.729858%,12.159729%,12.548828%);stroke-opacity:1;stroke-miterlimit:4;" d="M 2695.507812 205 L 2850.507812 205 L 2850.507812 260 L 2695.507812 260 Z M 2695.507812 205 " transform="matrix(0.1,0,0,-0.1,0,44)"/>
<path style="fill-rule:nonzero;fill:rgb(100%,100%,100%);fill-opacity:1;stroke-width:10;stroke-linecap:butt;stroke-linejoin:miter;stroke:rgb(13.729858%,12.159729%,12.548828%);stroke-opacity:1;stroke-miterlimit:4;" d="M 2720.507812 260 L 2825.507812 260 L 2825.507812 310 L 2720.507812 310 Z M 2720.507812 260 " transform="matrix(0.1,0,0,-0.1,0,44)"/>
<path style="fill:none;stroke-width:10;stroke-linecap:butt;stroke-linejoin:miter;stroke:rgb(13.729858%,12.159729%,12.548828%);stroke-opacity:1;stroke-miterlimit:4;" d="M 1295 245 L 1710 245 " transform="matrix(0.1,0,0,-0.1,0,44)"/>
<path style=" stroke:none;fill-rule:nonzero;fill:rgb(13.729858%,12.159729%,12.548828%);fill-opacity:1;" d="M 169.066406 21.195312 L 170.765625 19.5 L 169.066406 17.804688 L 170.507812 17.804688 L 172.203125 19.5 L 170.507812 21.195312 L 169.066406 21.195312 "/>
</g>
</svg>
