<?xml version="1.0" encoding="UTF-8"?>
<svg xmlns="http://www.w3.org/2000/svg" xmlns:xlink="http://www.w3.org/1999/xlink" width="106pt" height="92pt" viewBox="0 0 106 92" version="1.1">
<defs>
<clipPath id="clip1">
  <path d="M 1 0 L 105 0 L 105 92 L 1 92 Z M 1 0 "/>
</clipPath>
<clipPath id="clip2">
  <path d="M 22 40 L 105 40 L 105 92 L 22 92 Z M 22 40 "/>
</clipPath>
<clipPath id="clip3">
  <path d="M 1 0 L 85 0 L 85 53 L 1 53 Z M 1 0 "/>
</clipPath>
<clipPath id="clip4">
  <path d="M 23 0 L 105 0 L 105 53 L 23 53 Z M 23 0 "/>
</clipPath>
<clipPath id="clip5">
  <path d="M 1 39 L 84 39 L 84 92 L 1 92 Z M 1 39 "/>
</clipPath>
<clipPath id="clip6">
  <path d="M 1 38 L 12 38 L 12 54 L 1 54 Z M 1 38 "/>
</clipPath>
<clipPath id="clip7">
  <path d="M 94 38 L 105 38 L 105 54 L 94 54 Z M 94 38 "/>
</clipPath>
</defs>
<g id="surface1">
<path style=" stroke:none;fill-rule:nonzero;fill:rgb(100%,100%,100%);fill-opacity:1;" d="M 28.671875 89.789062 L 3.675781 46.488281 L 28.671875 3.1875 L 78.671875 3.1875 L 103.675781 46.488281 L 78.671875 89.789062 L 28.671875 89.789062 "/>
<g clip-path="url(#clip1)" clip-rule="nonzero">
<path style="fill:none;stroke-width:10;stroke-linecap:butt;stroke-linejoin:miter;stroke:rgb(13.729858%,12.159729%,12.548828%);stroke-opacity:1;stroke-miterlimit:4;" d="M 276.71875 22.109375 L 26.757812 455.117188 L 276.71875 888.125 L 776.71875 888.125 L 1026.757812 455.117188 L 776.71875 22.109375 Z M 276.71875 22.109375 " transform="matrix(0.1,0,0,-0.1,1,92)"/>
</g>
<path style="fill:none;stroke-width:10;stroke-linecap:butt;stroke-linejoin:miter;stroke:rgb(13.729858%,12.159729%,12.548828%);stroke-opacity:1;stroke-miterlimit:4;" d="M 276.71875 888.125 L 276.71875 22.109375 " transform="matrix(0.1,0,0,-0.1,1,92)"/>
<path style="fill:none;stroke-width:10;stroke-linecap:butt;stroke-linejoin:miter;stroke:rgb(13.729858%,12.159729%,12.548828%);stroke-opacity:1;stroke-miterlimit:4;" d="M 771.71875 878.125 L 771.71875 12.109375 " transform="matrix(0.1,0,0,-0.1,1,92)"/>
<path style=" stroke:none;fill-rule:nonzero;fill:rgb(100%,100%,100%);fill-opacity:1;" d="M 27.863281 89.824219 L 102.863281 46.523438 "/>
<g clip-path="url(#clip2)" clip-rule="nonzero">
<path style="fill:none;stroke-width:10;stroke-linecap:butt;stroke-linejoin:miter;stroke:rgb(13.729858%,12.159729%,12.548828%);stroke-opacity:1;stroke-miterlimit:4;" d="M 268.632812 21.757812 L 1018.632812 454.765625 " transform="matrix(0.1,0,0,-0.1,1,92)"/>
</g>
<path style=" stroke:none;fill-rule:nonzero;fill:rgb(100%,100%,100%);fill-opacity:1;" d="M 3.980469 46.457031 L 78.980469 3.152344 "/>
<g clip-path="url(#clip3)" clip-rule="nonzero">
<path style="fill:none;stroke-width:10;stroke-linecap:butt;stroke-linejoin:miter;stroke:rgb(13.729858%,12.159729%,12.548828%);stroke-opacity:1;stroke-miterlimit:4;" d="M 29.804688 455.429688 L 779.804688 888.476562 " transform="matrix(0.1,0,0,-0.1,1,92)"/>
</g>
<path style=" stroke:none;fill-rule:nonzero;fill:rgb(100%,100%,100%);fill-opacity:1;" d="M 103.730469 46.453125 L 28.730469 3.152344 "/>
<g clip-path="url(#clip4)" clip-rule="nonzero">
<path style="fill:none;stroke-width:10;stroke-linecap:butt;stroke-linejoin:miter;stroke:rgb(13.729858%,12.159729%,12.548828%);stroke-opacity:1;stroke-miterlimit:4;" d="M 1027.304688 455.46875 L 277.304688 888.476562 " transform="matrix(0.1,0,0,-0.1,1,92)"/>
</g>
<path style=" stroke:none;fill-rule:nonzero;fill:rgb(100%,100%,100%);fill-opacity:1;" d="M 78.113281 88.820312 L 3.113281 45.519531 "/>
<g clip-path="url(#clip5)" clip-rule="nonzero">
<path style="fill:none;stroke-width:10;stroke-linecap:butt;stroke-linejoin:miter;stroke:rgb(13.729858%,12.159729%,12.548828%);stroke-opacity:1;stroke-miterlimit:4;" d="M 771.132812 31.796875 L 21.132812 464.804688 " transform="matrix(0.1,0,0,-0.1,1,92)"/>
</g>
<path style=" stroke:none;fill-rule:nonzero;fill:rgb(13.729858%,12.159729%,12.548828%);fill-opacity:1;" d="M 30.5 89 C 30.5 90.105469 29.605469 91 28.5 91 C 27.394531 91 26.5 90.105469 26.5 89 C 26.5 87.894531 27.394531 87 28.5 87 C 29.605469 87 30.5 87.894531 30.5 89 "/>
<path style="fill:none;stroke-width:10;stroke-linecap:butt;stroke-linejoin:miter;stroke:rgb(13.729858%,12.159729%,12.548828%);stroke-opacity:1;stroke-miterlimit:4;" d="M 295 30 C 295 18.945312 286.054688 10 275 10 C 263.945312 10 255 18.945312 255 30 C 255 41.054688 263.945312 50 275 50 C 286.054688 50 295 41.054688 295 30 Z M 295 30 " transform="matrix(0.1,0,0,-0.1,1,92)"/>
<path style=" stroke:none;fill-rule:nonzero;fill:rgb(13.729858%,12.159729%,12.548828%);fill-opacity:1;" d="M 5.5 46 C 5.5 47.105469 4.605469 48 3.5 48 C 2.394531 48 1.5 47.105469 1.5 46 C 1.5 44.894531 2.394531 44 3.5 44 C 4.605469 44 5.5 44.894531 5.5 46 "/>
<g clip-path="url(#clip6)" clip-rule="nonzero">
<path style="fill:none;stroke-width:10;stroke-linecap:butt;stroke-linejoin:miter;stroke:rgb(13.729858%,12.159729%,12.548828%);stroke-opacity:1;stroke-miterlimit:4;" d="M 45 460 C 45 448.945312 36.054688 440 25 440 C 13.945312 440 5 448.945312 5 460 C 5 471.054688 13.945312 480 25 480 C 36.054688 480 45 471.054688 45 460 Z M 45 460 " transform="matrix(0.1,0,0,-0.1,1,92)"/>
</g>
<path style=" stroke:none;fill-rule:nonzero;fill:rgb(13.729858%,12.159729%,12.548828%);fill-opacity:1;" d="M 30.5 2.59375 C 30.5 3.699219 29.605469 4.59375 28.5 4.59375 C 27.394531 4.59375 26.5 3.699219 26.5 2.59375 C 26.5 1.488281 27.394531 0.59375 28.5 0.59375 C 29.605469 0.59375 30.5 1.488281 30.5 2.59375 "/>
<path style="fill:none;stroke-width:10;stroke-linecap:butt;stroke-linejoin:miter;stroke:rgb(13.729858%,12.159729%,12.548828%);stroke-opacity:1;stroke-miterlimit:4;" d="M 295 894.0625 C 295 883.007812 286.054688 874.0625 275 874.0625 C 263.945312 874.0625 255 883.007812 255 894.0625 C 255 905.117188 263.945312 914.0625 275 914.0625 C 286.054688 914.0625 295 905.117188 295 894.0625 Z M 295 894.0625 " transform="matrix(0.1,0,0,-0.1,1,92)"/>
<path style=" stroke:none;fill-rule:nonzero;fill:rgb(13.729858%,12.159729%,12.548828%);fill-opacity:1;" d="M 80.171875 2.59375 C 80.171875 3.699219 79.277344 4.59375 78.171875 4.59375 C 77.070312 4.59375 76.171875 3.699219 76.171875 2.59375 C 76.171875 1.488281 77.070312 0.59375 78.171875 0.59375 C 79.277344 0.59375 80.171875 1.488281 80.171875 2.59375 "/>
<path style="fill:none;stroke-width:10;stroke-linecap:butt;stroke-linejoin:miter;stroke:rgb(13.729858%,12.159729%,12.548828%);stroke-opacity:1;stroke-miterlimit:4;" d="M 791.71875 894.0625 C 791.71875 883.007812 782.773438 874.0625 771.71875 874.0625 C 760.703125 874.0625 751.71875 883.007812 751.71875 894.0625 C 751.71875 905.117188 760.703125 914.0625 771.71875 914.0625 C 782.773438 914.0625 791.71875 905.117188 791.71875 894.0625 Z M 791.71875 894.0625 " transform="matrix(0.1,0,0,-0.1,1,92)"/>
<path style=" stroke:none;fill-rule:nonzero;fill:rgb(13.729858%,12.159729%,12.548828%);fill-opacity:1;" d="M 104.5 46 C 104.5 47.105469 103.605469 48 102.5 48 C 101.394531 48 100.5 47.105469 100.5 46 C 100.5 44.894531 101.394531 44 102.5 44 C 103.605469 44 104.5 44.894531 104.5 46 "/>
<g clip-path="url(#clip7)" clip-rule="nonzero">
<path style="fill:none;stroke-width:10;stroke-linecap:butt;stroke-linejoin:miter;stroke:rgb(13.729858%,12.159729%,12.548828%);stroke-opacity:1;stroke-miterlimit:4;" d="M 1035 460 C 1035 448.945312 1026.054688 440 1015 440 C 1003.945312 440 995 448.945312 995 460 C 995 471.054688 1003.945312 480 1015 480 C 1026.054688 480 1035 471.054688 1035 460 Z M 1035 460 " transform="matrix(0.1,0,0,-0.1,1,92)"/>
</g>
<path style=" stroke:none;fill-rule:nonzero;fill:rgb(13.729858%,12.159729%,12.548828%);fill-opacity:1;" d="M 80.171875 88.789062 C 80.171875 89.894531 79.277344 90.789062 78.171875 90.789062 C 77.066406 90.789062 76.171875 89.894531 76.171875 88.789062 C 76.171875 87.6875 77.066406 86.789062 78.171875 86.789062 C 79.277344 86.789062 80.171875 87.6875 80.171875 88.789062 "/>
<path style="fill:none;stroke-width:10;stroke-linecap:butt;stroke-linejoin:miter;stroke:rgb(13.729858%,12.159729%,12.548828%);stroke-opacity:1;stroke-miterlimit:4;" d="M 791.71875 32.109375 C 791.71875 21.054688 782.773438 12.109375 771.71875 12.109375 C 760.664062 12.109375 751.71875 21.054688 751.71875 32.109375 C 751.71875 43.125 760.664062 52.109375 771.71875 52.109375 C 782.773438 52.109375 791.71875 43.125 791.71875 32.109375 Z M 791.71875 32.109375 " transform="matrix(0.1,0,0,-0.1,1,92)"/>
</g>
</svg>
