<?xml version="1.0" encoding="UTF-8"?>
<svg xmlns="http://www.w3.org/2000/svg" xmlns:xlink="http://www.w3.org/1999/xlink" width="98pt" height="89pt" viewBox="0 0 98 89" version="1.1">
<defs>
<clipPath id="clip1">
  <path d="M 1 39 L 13 39 L 13 54 L 1 54 Z M 1 39 "/>
</clipPath>
</defs>
<g id="surface1">
<path style=" stroke:none;fill-rule:nonzero;fill:rgb(56.864929%,56.079102%,56.274414%);fill-opacity:1;" d="M 21 17.5 C 21 19.710938 19.210938 21.5 17 21.5 C 14.789062 21.5 13 19.710938 13 17.5 C 13 15.289062 14.789062 13.5 17 13.5 C 19.210938 13.5 21 15.289062 21 17.5 "/>
<path style="fill:none;stroke-width:5;stroke-linecap:butt;stroke-linejoin:miter;stroke:rgb(13.729858%,12.159729%,12.548828%);stroke-opacity:1;stroke-miterlimit:4;" d="M 200 715 C 200 692.890625 182.109375 675 160 675 C 137.890625 675 120 692.890625 120 715 C 120 737.109375 137.890625 755 160 755 C 182.109375 755 200 737.109375 200 715 Z M 200 715 " transform="matrix(0.1,0,0,-0.1,1,89)"/>
<path style=" stroke:none;fill-rule:nonzero;fill:rgb(56.864929%,56.079102%,56.274414%);fill-opacity:1;" d="M 9.25 46.25 C 9.25 48.460938 7.457031 50.25 5.25 50.25 C 3.042969 50.25 1.25 48.460938 1.25 46.25 C 1.25 44.042969 3.042969 42.25 5.25 42.25 C 7.457031 42.25 9.25 44.042969 9.25 46.25 "/>
<g clip-path="url(#clip1)" clip-rule="nonzero">
<path style="fill:none;stroke-width:5;stroke-linecap:butt;stroke-linejoin:miter;stroke:rgb(13.729858%,12.159729%,12.548828%);stroke-opacity:1;stroke-miterlimit:4;" d="M 82.5 427.5 C 82.5 405.390625 64.570312 387.5 42.5 387.5 C 20.429688 387.5 2.5 405.390625 2.5 427.5 C 2.5 449.570312 20.429688 467.5 42.5 467.5 C 64.570312 467.5 82.5 449.570312 82.5 427.5 Z M 82.5 427.5 " transform="matrix(0.1,0,0,-0.1,1,89)"/>
</g>
<path style=" stroke:none;fill-rule:nonzero;fill:rgb(56.864929%,56.079102%,56.274414%);fill-opacity:1;" d="M 21 74.25 C 21 76.460938 19.210938 78.25 17 78.25 C 14.789062 78.25 13 76.460938 13 74.25 C 13 72.042969 14.789062 70.25 17 70.25 C 19.210938 70.25 21 72.042969 21 74.25 "/>
<path style="fill:none;stroke-width:5;stroke-linecap:butt;stroke-linejoin:miter;stroke:rgb(13.729858%,12.159729%,12.548828%);stroke-opacity:1;stroke-miterlimit:4;" d="M 200 147.5 C 200 125.390625 182.109375 107.5 160 107.5 C 137.890625 107.5 120 125.390625 120 147.5 C 120 169.570312 137.890625 187.5 160 187.5 C 182.109375 187.5 200 169.570312 200 147.5 Z M 200 147.5 " transform="matrix(0.1,0,0,-0.1,1,89)"/>
<path style=" stroke:none;fill-rule:nonzero;fill:rgb(56.864929%,56.079102%,56.274414%);fill-opacity:1;" d="M 54 84.75 C 54 86.960938 52.210938 88.75 50 88.75 C 47.789062 88.75 46 86.960938 46 84.75 C 46 82.542969 47.789062 80.75 50 80.75 C 52.210938 80.75 54 82.542969 54 84.75 "/>
<path style="fill:none;stroke-width:5;stroke-linecap:butt;stroke-linejoin:miter;stroke:rgb(13.729858%,12.159729%,12.548828%);stroke-opacity:1;stroke-miterlimit:4;" d="M 530 42.5 C 530 20.390625 512.109375 2.5 490 2.5 C 467.890625 2.5 450 20.390625 450 42.5 C 450 64.570312 467.890625 82.5 490 82.5 C 512.109375 82.5 530 64.570312 530 42.5 Z M 530 42.5 " transform="matrix(0.1,0,0,-0.1,1,89)"/>
<path style=" stroke:none;fill-rule:nonzero;fill:rgb(56.864929%,56.079102%,56.274414%);fill-opacity:1;" d="M 84.25 74.25 C 84.25 76.460938 82.460938 78.25 80.25 78.25 C 78.042969 78.25 76.25 76.460938 76.25 74.25 C 76.25 72.042969 78.042969 70.25 80.25 70.25 C 82.460938 70.25 84.25 72.042969 84.25 74.25 "/>
<path style="fill:none;stroke-width:5;stroke-linecap:butt;stroke-linejoin:miter;stroke:rgb(13.729858%,12.159729%,12.548828%);stroke-opacity:1;stroke-miterlimit:4;" d="M 832.5 147.5 C 832.5 125.390625 814.609375 107.5 792.5 107.5 C 770.429688 107.5 752.5 125.390625 752.5 147.5 C 752.5 169.570312 770.429688 187.5 792.5 187.5 C 814.609375 187.5 832.5 169.570312 832.5 147.5 Z M 832.5 147.5 " transform="matrix(0.1,0,0,-0.1,1,89)"/>
<path style=" stroke:none;fill-rule:nonzero;fill:rgb(56.864929%,56.079102%,56.274414%);fill-opacity:1;" d="M 96.75 46.25 C 96.75 48.460938 94.960938 50.25 92.75 50.25 C 90.539062 50.25 88.75 48.460938 88.75 46.25 C 88.75 44.042969 90.539062 42.25 92.75 42.25 C 94.960938 42.25 96.75 44.042969 96.75 46.25 "/>
<path style="fill:none;stroke-width:5;stroke-linecap:butt;stroke-linejoin:miter;stroke:rgb(13.729858%,12.159729%,12.548828%);stroke-opacity:1;stroke-miterlimit:4;" d="M 957.5 427.5 C 957.5 405.390625 939.609375 387.5 917.5 387.5 C 895.390625 387.5 877.5 405.390625 877.5 427.5 C 877.5 449.570312 895.390625 467.5 917.5 467.5 C 939.609375 467.5 957.5 449.570312 957.5 427.5 Z M 957.5 427.5 " transform="matrix(0.1,0,0,-0.1,1,89)"/>
<path style=" stroke:none;fill-rule:nonzero;fill:rgb(56.864929%,56.079102%,56.274414%);fill-opacity:1;" d="M 84.25 17.5 C 84.25 19.710938 82.460938 21.5 80.25 21.5 C 78.042969 21.5 76.25 19.710938 76.25 17.5 C 76.25 15.289062 78.042969 13.5 80.25 13.5 C 82.460938 13.5 84.25 15.289062 84.25 17.5 "/>
<path style="fill:none;stroke-width:5;stroke-linecap:butt;stroke-linejoin:miter;stroke:rgb(13.729858%,12.159729%,12.548828%);stroke-opacity:1;stroke-miterlimit:4;" d="M 832.5 715 C 832.5 692.890625 814.609375 675 792.5 675 C 770.429688 675 752.5 692.890625 752.5 715 C 752.5 737.109375 770.429688 755 792.5 755 C 814.609375 755 832.5 737.109375 832.5 715 Z M 832.5 715 " transform="matrix(0.1,0,0,-0.1,1,89)"/>
<path style=" stroke:none;fill-rule:nonzero;fill:rgb(56.864929%,56.079102%,56.274414%);fill-opacity:1;" d="M 54.25 5.25 C 54.25 7.460938 52.460938 9.25 50.25 9.25 C 48.039062 9.25 46.25 7.460938 46.25 5.25 C 46.25 3.039062 48.039062 1.25 50.25 1.25 C 52.460938 1.25 54.25 3.039062 54.25 5.25 "/>
<path style="fill:none;stroke-width:5;stroke-linecap:butt;stroke-linejoin:miter;stroke:rgb(13.729858%,12.159729%,12.548828%);stroke-opacity:1;stroke-miterlimit:4;" d="M 532.5 837.5 C 532.5 815.390625 514.609375 797.5 492.5 797.5 C 470.390625 797.5 452.5 815.390625 452.5 837.5 C 452.5 859.609375 470.390625 877.5 492.5 877.5 C 514.609375 877.5 532.5 859.609375 532.5 837.5 Z M 532.5 837.5 " transform="matrix(0.1,0,0,-0.1,1,89)"/>
<path style="fill:none;stroke-width:5;stroke-linecap:butt;stroke-linejoin:miter;stroke:rgb(13.729858%,12.159729%,12.548828%);stroke-opacity:1;stroke-miterlimit:4;" d="M 452.5 837.5 L 187.5 742.5 " transform="matrix(0.1,0,0,-0.1,1,89)"/>
<path style="fill:none;stroke-width:5;stroke-linecap:butt;stroke-linejoin:miter;stroke:rgb(13.729858%,12.159729%,12.548828%);stroke-opacity:1;stroke-miterlimit:4;" d="M 135 690 L 42.5 467.5 " transform="matrix(0.1,0,0,-0.1,1,89)"/>
<path style="fill:none;stroke-width:5;stroke-linecap:butt;stroke-linejoin:miter;stroke:rgb(13.729858%,12.159729%,12.548828%);stroke-opacity:1;stroke-miterlimit:4;" d="M 42.5 387.5 L 130 177.5 " transform="matrix(0.1,0,0,-0.1,1,89)"/>
<path style="fill:none;stroke-width:5;stroke-linecap:butt;stroke-linejoin:miter;stroke:rgb(13.729858%,12.159729%,12.548828%);stroke-opacity:1;stroke-miterlimit:4;" d="M 192.5 127.5 L 450 42.5 " transform="matrix(0.1,0,0,-0.1,1,89)"/>
<path style="fill:none;stroke-width:5;stroke-linecap:butt;stroke-linejoin:miter;stroke:rgb(13.729858%,12.159729%,12.548828%);stroke-opacity:1;stroke-miterlimit:4;" d="M 530 42.5 L 757.5 125 " transform="matrix(0.1,0,0,-0.1,1,89)"/>
<path style="fill:none;stroke-width:5;stroke-linecap:butt;stroke-linejoin:miter;stroke:rgb(13.729858%,12.159729%,12.548828%);stroke-opacity:1;stroke-miterlimit:4;" d="M 802.5 187.5 L 917.5 387.5 " transform="matrix(0.1,0,0,-0.1,1,89)"/>
<path style="fill:none;stroke-width:5;stroke-linecap:butt;stroke-linejoin:miter;stroke:rgb(13.729858%,12.159729%,12.548828%);stroke-opacity:1;stroke-miterlimit:4;" d="M 917.5 467.5 L 812.5 685 " transform="matrix(0.1,0,0,-0.1,1,89)"/>
<path style="fill:none;stroke-width:5;stroke-linecap:butt;stroke-linejoin:miter;stroke:rgb(13.729858%,12.159729%,12.548828%);stroke-opacity:1;stroke-miterlimit:4;" d="M 762.5 742.5 L 532.5 837.5 " transform="matrix(0.1,0,0,-0.1,1,89)"/>
<path style="fill:none;stroke-width:5;stroke-linecap:butt;stroke-linejoin:miter;stroke:rgb(13.729858%,12.159729%,12.548828%);stroke-opacity:1;stroke-miterlimit:4;" d="M 475 802.5 L 75 455 " transform="matrix(0.1,0,0,-0.1,1,89)"/>
<path style="fill:none;stroke-width:5;stroke-linecap:butt;stroke-linejoin:miter;stroke:rgb(13.729858%,12.159729%,12.548828%);stroke-opacity:1;stroke-miterlimit:4;" d="M 172.851562 665.117188 L 164.648438 187.382812 " transform="matrix(0.1,0,0,-0.1,1,89)"/>
<path style="fill:none;stroke-width:5;stroke-linecap:butt;stroke-linejoin:miter;stroke:rgb(13.729858%,12.159729%,12.548828%);stroke-opacity:1;stroke-miterlimit:4;" d="M 80 417.5 L 465 75 " transform="matrix(0.1,0,0,-0.1,1,89)"/>
<path style="fill:none;stroke-width:5;stroke-linecap:butt;stroke-linejoin:miter;stroke:rgb(13.729858%,12.159729%,12.548828%);stroke-opacity:1;stroke-miterlimit:4;" d="M 200 147.5 L 757.5 145 " transform="matrix(0.1,0,0,-0.1,1,89)"/>
<path style="fill:none;stroke-width:5;stroke-linecap:butt;stroke-linejoin:miter;stroke:rgb(13.729858%,12.159729%,12.548828%);stroke-opacity:1;stroke-miterlimit:4;" d="M 515 75 L 880 412.5 " transform="matrix(0.1,0,0,-0.1,1,89)"/>
<path style="fill:none;stroke-width:5;stroke-linecap:butt;stroke-linejoin:miter;stroke:rgb(13.729858%,12.159729%,12.548828%);stroke-opacity:1;stroke-miterlimit:4;" d="M 787.5 190 L 785 675 " transform="matrix(0.1,0,0,-0.1,1,89)"/>
<path style="fill:none;stroke-width:5;stroke-linecap:butt;stroke-linejoin:miter;stroke:rgb(13.729858%,12.159729%,12.548828%);stroke-opacity:1;stroke-miterlimit:4;" d="M 882.5 450 L 517.5 807.5 " transform="matrix(0.1,0,0,-0.1,1,89)"/>
<path style="fill:none;stroke-width:5;stroke-linecap:butt;stroke-linejoin:miter;stroke:rgb(13.729858%,12.159729%,12.548828%);stroke-opacity:1;stroke-dasharray:40,40;stroke-miterlimit:4;" d="M 485 797.5 L 172.5 187.5 " transform="matrix(0.1,0,0,-0.1,1,89)"/>
<path style="fill:none;stroke-width:5;stroke-linecap:butt;stroke-linejoin:miter;stroke:rgb(13.729858%,12.159729%,12.548828%);stroke-opacity:1;stroke-dasharray:40,40;stroke-miterlimit:4;" d="M 485 797.5 L 490 82.5 " transform="matrix(0.1,0,0,-0.1,1,89)"/>
<path style="fill:none;stroke-width:5;stroke-linecap:butt;stroke-linejoin:miter;stroke:rgb(13.729858%,12.159729%,12.548828%);stroke-opacity:1;stroke-dasharray:40,40;stroke-miterlimit:4;" d="M 492.5 797.5 L 762.5 177.5 " transform="matrix(0.1,0,0,-0.1,1,89)"/>
<path style="fill:none;stroke-width:5;stroke-linecap:butt;stroke-linejoin:miter;stroke:rgb(13.729858%,12.159729%,12.548828%);stroke-opacity:1;stroke-miterlimit:4;" d="M 200 715 L 752.5 715 " transform="matrix(0.1,0,0,-0.1,1,89)"/>
<path style="fill:none;stroke-width:5;stroke-linecap:butt;stroke-linejoin:miter;stroke:rgb(13.729858%,12.159729%,12.548828%);stroke-opacity:1;stroke-dasharray:40,40;stroke-miterlimit:4;" d="M 185 690 L 472.5 85 " transform="matrix(0.1,0,0,-0.1,1,89)"/>
<path style="fill:none;stroke-width:5;stroke-linecap:butt;stroke-linejoin:miter;stroke:rgb(13.729858%,12.159729%,12.548828%);stroke-opacity:1;stroke-dasharray:40,40;stroke-miterlimit:4;" d="M 195 697.5 L 762.5 177.5 " transform="matrix(0.1,0,0,-0.1,1,89)"/>
<path style="fill:none;stroke-width:5;stroke-linecap:butt;stroke-linejoin:miter;stroke:rgb(13.729858%,12.159729%,12.548828%);stroke-opacity:1;stroke-dasharray:40,40;stroke-miterlimit:4;" d="M 197.5 705 L 875 440 " transform="matrix(0.1,0,0,-0.1,1,89)"/>
<path style="fill:none;stroke-width:5;stroke-linecap:butt;stroke-linejoin:miter;stroke:rgb(13.729858%,12.159729%,12.548828%);stroke-opacity:1;stroke-dasharray:40,40;stroke-miterlimit:4;" d="M 77.5 440 L 750 700 " transform="matrix(0.1,0,0,-0.1,1,89)"/>
<path style="fill:none;stroke-width:5;stroke-linecap:butt;stroke-linejoin:miter;stroke:rgb(13.729858%,12.159729%,12.548828%);stroke-opacity:1;stroke-dasharray:40,40;stroke-miterlimit:4;" d="M 77.5 440 L 875 440 " transform="matrix(0.1,0,0,-0.1,1,89)"/>
<path style="fill:none;stroke-width:5;stroke-linecap:butt;stroke-linejoin:miter;stroke:rgb(13.729858%,12.159729%,12.548828%);stroke-opacity:1;stroke-dasharray:40,40;stroke-miterlimit:4;" d="M 82.5 427.5 L 757.5 167.5 " transform="matrix(0.1,0,0,-0.1,1,89)"/>
<path style="fill:none;stroke-width:5;stroke-linecap:butt;stroke-linejoin:miter;stroke:rgb(13.729858%,12.159729%,12.548828%);stroke-opacity:1;stroke-dasharray:40,40;stroke-miterlimit:4;" d="M 182.5 185 L 762.5 682.5 " transform="matrix(0.1,0,0,-0.1,1,89)"/>
<path style="fill:none;stroke-width:5;stroke-linecap:butt;stroke-linejoin:miter;stroke:rgb(13.729858%,12.159729%,12.548828%);stroke-opacity:1;stroke-dasharray:40,40;stroke-miterlimit:4;" d="M 190 172.5 L 877.5 427.5 " transform="matrix(0.1,0,0,-0.1,1,89)"/>
<path style="fill:none;stroke-width:5;stroke-linecap:butt;stroke-linejoin:miter;stroke:rgb(13.729858%,12.159729%,12.548828%);stroke-opacity:1;stroke-dasharray:40,40;stroke-miterlimit:4;" d="M 497.5 80 L 777.5 677.5 " transform="matrix(0.1,0,0,-0.1,1,89)"/>
</g>
</svg>
