<?xml version="1.0" encoding="UTF-8"?>
<svg xmlns="http://www.w3.org/2000/svg" xmlns:xlink="http://www.w3.org/1999/xlink" width="178pt" height="197pt" viewBox="0 0 178 197" version="1.1">
<g id="surface1">
<path style=" stroke:none;fill-rule:nonzero;fill:rgb(100%,100%,100%);fill-opacity:1;" d="M 117.070312 26.667969 C 118 27.410156 118.953125 28.171875 120.03125 28.878906 C 124.222656 31.628906 128.1875 34.492188 131.101562 38.199219 C 134.578125 42.625 136.355469 47.671875 137.085938 52.839844 C 138.597656 63.511719 135.480469 74.140625 136.507812 84.800781 C 137.070312 90.648438 138.960938 97.277344 142.394531 102.5 C 151.207031 115.925781 167.300781 120.113281 171.9375 136.105469 C 175.292969 147.664062 178.355469 164.371094 172.054688 175.628906 C 164.394531 189.308594 121.578125 198.054688 105.152344 193.140625 C 99.847656 191.550781 95.890625 185.085938 92.070312 181.070312 C 74.835938 193.882812 69.917969 193.398438 45.917969 192.171875 C 33.34375 191.527344 15.03125 188.121094 7.164062 179.410156 C -2.179688 169.074219 4.882812 155.945312 6.863281 144.734375 C 8.023438 138.167969 9.269531 131.488281 14.644531 126.210938 C 20.421875 120.542969 30.878906 119.199219 35.851562 113.03125 C 41.992188 105.417969 42.367188 89.636719 44.804688 80.839844 C 47.796875 70.054688 49.203125 57.636719 54.136719 47.3125 C 63.027344 28.683594 76.808594 21.460938 95.371094 21.535156 C 100.109375 21.558594 105.066406 21.417969 109.652344 22.523438 C 112.882812 23.300781 114.917969 24.945312 117.070312 26.667969 "/>
<path style="fill:none;stroke-width:40;stroke-linecap:butt;stroke-linejoin:miter;stroke:rgb(13.729858%,12.159729%,12.548828%);stroke-opacity:1;stroke-miterlimit:4;" d="M 1170.703125 1703.320312 C 1180 1695.898438 1189.53125 1688.28125 1200.3125 1681.210938 C 1242.226562 1653.710938 1281.875 1625.078125 1311.015625 1588.007812 C 1345.78125 1543.75 1363.554688 1493.28125 1370.859375 1441.601562 C 1385.976562 1334.882812 1354.804688 1228.59375 1365.078125 1121.992188 C 1370.703125 1063.515625 1389.609375 997.226562 1423.945312 945 C 1512.070312 810.742188 1673.007812 768.867188 1719.375 608.945312 C 1752.929688 493.359375 1783.554688 326.289062 1720.546875 213.710938 C 1643.945312 76.914062 1215.78125 -10.546875 1051.523438 38.59375 C 998.476562 54.492188 958.90625 119.140625 920.703125 159.296875 C 748.359375 31.171875 699.179688 36.015625 459.179688 48.28125 C 333.4375 54.726562 150.3125 88.789062 71.640625 175.898438 C -21.796875 279.257812 48.828125 410.546875 68.632812 522.65625 C 80.234375 588.320312 92.695312 655.117188 146.445312 707.890625 C 204.21875 764.570312 308.789062 778.007812 358.515625 839.6875 C 419.921875 915.820312 423.671875 1073.632812 448.046875 1161.601562 C 477.96875 1269.453125 492.03125 1393.632812 541.367188 1496.875 C 630.273438 1683.164062 768.085938 1755.390625 953.710938 1754.648438 C 1001.09375 1754.414062 1050.664062 1755.820312 1096.523438 1744.765625 C 1128.828125 1736.992188 1149.179688 1720.546875 1170.703125 1703.320312 Z M 1170.703125 1703.320312 " transform="matrix(0.1,0,0,-0.1,0,197)"/>
<path style="fill-rule:nonzero;fill:rgb(100%,100%,100%);fill-opacity:1;stroke-width:80;stroke-linecap:butt;stroke-linejoin:miter;stroke:rgb(13.729858%,12.159729%,12.548828%);stroke-opacity:1;stroke-miterlimit:4;" d="M 834.296875 1925.039062 C 939.0625 1882.460938 952.539062 1848.4375 970.039062 1755.898438 " transform="matrix(0.1,0,0,-0.1,0,197)"/>
</g>
</svg>
