<?xml version="1.0" encoding="UTF-8"?>
<svg xmlns="http://www.w3.org/2000/svg" xmlns:xlink="http://www.w3.org/1999/xlink" width="199pt" height="46pt" viewBox="0 0 199 46" version="1.1">
<g id="surface1">
<path style="fill-rule:nonzero;fill:rgb(91.363525%,91.20636%,91.246033%);fill-opacity:1;stroke-width:10;stroke-linecap:butt;stroke-linejoin:miter;stroke:rgb(13.729858%,12.159729%,12.548828%);stroke-opacity:1;stroke-miterlimit:4;" d="M 5 365 L 95 365 L 95 455 L 5 455 Z M 5 365 " transform="matrix(0.1,0,0,-0.1,0,46)"/>
<path style="fill-rule:nonzero;fill:rgb(91.363525%,91.20636%,91.246033%);fill-opacity:1;stroke-width:10;stroke-linecap:butt;stroke-linejoin:miter;stroke:rgb(13.729858%,12.159729%,12.548828%);stroke-opacity:1;stroke-miterlimit:4;" d="M 95 365 L 185 365 L 185 455 L 95 455 Z M 95 365 " transform="matrix(0.1,0,0,-0.1,0,46)"/>
<path style="fill-rule:nonzero;fill:rgb(91.363525%,91.20636%,91.246033%);fill-opacity:1;stroke-width:10;stroke-linecap:butt;stroke-linejoin:miter;stroke:rgb(13.729858%,12.159729%,12.548828%);stroke-opacity:1;stroke-miterlimit:4;" d="M 185 365 L 275 365 L 275 455 L 185 455 Z M 185 365 " transform="matrix(0.1,0,0,-0.1,0,46)"/>
<path style="fill-rule:nonzero;fill:rgb(91.363525%,91.20636%,91.246033%);fill-opacity:1;stroke-width:10;stroke-linecap:butt;stroke-linejoin:miter;stroke:rgb(13.729858%,12.159729%,12.548828%);stroke-opacity:1;stroke-miterlimit:4;" d="M 275 365 L 365 365 L 365 455 L 275 455 Z M 275 365 " transform="matrix(0.1,0,0,-0.1,0,46)"/>
<path style="fill-rule:nonzero;fill:rgb(91.363525%,91.20636%,91.246033%);fill-opacity:1;stroke-width:10;stroke-linecap:butt;stroke-linejoin:miter;stroke:rgb(13.729858%,12.159729%,12.548828%);stroke-opacity:1;stroke-miterlimit:4;" d="M 365 365 L 455 365 L 455 455 L 365 455 Z M 365 365 " transform="matrix(0.1,0,0,-0.1,0,46)"/>
<path style="fill-rule:nonzero;fill:rgb(91.363525%,91.20636%,91.246033%);fill-opacity:1;stroke-width:10;stroke-linecap:butt;stroke-linejoin:miter;stroke:rgb(13.729858%,12.159729%,12.548828%);stroke-opacity:1;stroke-miterlimit:4;" d="M 5 275 L 95 275 L 95 365 L 5 365 Z M 5 275 " transform="matrix(0.1,0,0,-0.1,0,46)"/>
<path style="fill-rule:nonzero;fill:rgb(91.363525%,91.20636%,91.246033%);fill-opacity:1;stroke-width:10;stroke-linecap:butt;stroke-linejoin:miter;stroke:rgb(13.729858%,12.159729%,12.548828%);stroke-opacity:1;stroke-miterlimit:4;" d="M 5 185 L 95 185 L 95 275 L 5 275 Z M 5 185 " transform="matrix(0.1,0,0,-0.1,0,46)"/>
<path style="fill-rule:nonzero;fill:rgb(91.363525%,91.20636%,91.246033%);fill-opacity:1;stroke-width:10;stroke-linecap:butt;stroke-linejoin:miter;stroke:rgb(13.729858%,12.159729%,12.548828%);stroke-opacity:1;stroke-miterlimit:4;" d="M 5 95 L 95 95 L 95 185 L 5 185 Z M 5 95 " transform="matrix(0.1,0,0,-0.1,0,46)"/>
<path style="fill-rule:nonzero;fill:rgb(91.363525%,91.20636%,91.246033%);fill-opacity:1;stroke-width:10;stroke-linecap:butt;stroke-linejoin:miter;stroke:rgb(13.729858%,12.159729%,12.548828%);stroke-opacity:1;stroke-miterlimit:4;" d="M 5 5 L 95 5 L 95 95 L 5 95 Z M 5 5 " transform="matrix(0.1,0,0,-0.1,0,46)"/>
<path style="fill-rule:nonzero;fill:rgb(74.113464%,73.643494%,73.75946%);fill-opacity:1;stroke-width:10;stroke-linecap:butt;stroke-linejoin:miter;stroke:rgb(13.729858%,12.159729%,12.548828%);stroke-opacity:1;stroke-miterlimit:4;" d="M 95 275 L 185 275 L 185 365 L 95 365 Z M 95 275 " transform="matrix(0.1,0,0,-0.1,0,46)"/>
<path style="fill-rule:nonzero;fill:rgb(74.113464%,73.643494%,73.75946%);fill-opacity:1;stroke-width:10;stroke-linecap:butt;stroke-linejoin:miter;stroke:rgb(13.729858%,12.159729%,12.548828%);stroke-opacity:1;stroke-miterlimit:4;" d="M 185 275 L 275 275 L 275 365 L 185 365 Z M 185 275 " transform="matrix(0.1,0,0,-0.1,0,46)"/>
<path style="fill-rule:nonzero;fill:rgb(74.113464%,73.643494%,73.75946%);fill-opacity:1;stroke-width:10;stroke-linecap:butt;stroke-linejoin:miter;stroke:rgb(13.729858%,12.159729%,12.548828%);stroke-opacity:1;stroke-miterlimit:4;" d="M 95 185 L 185 185 L 185 275 L 95 275 Z M 95 185 " transform="matrix(0.1,0,0,-0.1,0,46)"/>
<path style="fill-rule:nonzero;fill:rgb(48.272705%,47.331238%,47.564697%);fill-opacity:1;stroke-width:10;stroke-linecap:butt;stroke-linejoin:miter;stroke:rgb(13.729858%,12.159729%,12.548828%);stroke-opacity:1;stroke-miterlimit:4;" d="M 185 185 L 275 185 L 275 275 L 185 275 Z M 185 185 " transform="matrix(0.1,0,0,-0.1,0,46)"/>
<path style="fill:none;stroke-width:10;stroke-linecap:butt;stroke-linejoin:miter;stroke:rgb(13.729858%,12.159729%,12.548828%);stroke-opacity:1;stroke-miterlimit:4;" d="M 635 275 L 905 275 " transform="matrix(0.1,0,0,-0.1,0,46)"/>
<path style=" stroke:none;fill-rule:nonzero;fill:rgb(13.729858%,12.159729%,12.548828%);fill-opacity:1;" d="M 92.863281 17.476562 C 91.207031 16.976562 90.132812 16.515625 88.808594 15.984375 L 88.808594 21.027344 C 89.28125 20.800781 91.207031 20.035156 92.863281 19.535156 C 94.632812 19 96.234375 18.636719 97.277344 18.503906 C 96.234375 18.375 94.632812 18.007812 92.863281 17.476562 "/>
<path style="fill-rule:nonzero;fill:rgb(91.363525%,91.20636%,91.246033%);fill-opacity:1;stroke-width:10;stroke-linecap:butt;stroke-linejoin:miter;stroke:rgb(13.729858%,12.159729%,12.548828%);stroke-opacity:1;stroke-miterlimit:4;" d="M 1175 365 L 1265 365 L 1265 455 L 1175 455 Z M 1175 365 " transform="matrix(0.1,0,0,-0.1,0,46)"/>
<path style="fill-rule:nonzero;fill:rgb(91.363525%,91.20636%,91.246033%);fill-opacity:1;stroke-width:10;stroke-linecap:butt;stroke-linejoin:miter;stroke:rgb(13.729858%,12.159729%,12.548828%);stroke-opacity:1;stroke-miterlimit:4;" d="M 1265 365 L 1355 365 L 1355 455 L 1265 455 Z M 1265 365 " transform="matrix(0.1,0,0,-0.1,0,46)"/>
<path style="fill-rule:nonzero;fill:rgb(91.363525%,91.20636%,91.246033%);fill-opacity:1;stroke-width:10;stroke-linecap:butt;stroke-linejoin:miter;stroke:rgb(13.729858%,12.159729%,12.548828%);stroke-opacity:1;stroke-miterlimit:4;" d="M 1355 365 L 1445 365 L 1445 455 L 1355 455 Z M 1355 365 " transform="matrix(0.1,0,0,-0.1,0,46)"/>
<path style="fill-rule:nonzero;fill:rgb(91.363525%,91.20636%,91.246033%);fill-opacity:1;stroke-width:10;stroke-linecap:butt;stroke-linejoin:miter;stroke:rgb(13.729858%,12.159729%,12.548828%);stroke-opacity:1;stroke-miterlimit:4;" d="M 1445 365 L 1535 365 L 1535 455 L 1445 455 Z M 1445 365 " transform="matrix(0.1,0,0,-0.1,0,46)"/>
<path style="fill-rule:nonzero;fill:rgb(91.363525%,91.20636%,91.246033%);fill-opacity:1;stroke-width:10;stroke-linecap:butt;stroke-linejoin:miter;stroke:rgb(13.729858%,12.159729%,12.548828%);stroke-opacity:1;stroke-miterlimit:4;" d="M 1535 365 L 1625 365 L 1625 455 L 1535 455 Z M 1535 365 " transform="matrix(0.1,0,0,-0.1,0,46)"/>
<path style="fill-rule:nonzero;fill:rgb(91.363525%,91.20636%,91.246033%);fill-opacity:1;stroke-width:10;stroke-linecap:butt;stroke-linejoin:miter;stroke:rgb(13.729858%,12.159729%,12.548828%);stroke-opacity:1;stroke-miterlimit:4;" d="M 1625 365 L 1715 365 L 1715 455 L 1625 455 Z M 1625 365 " transform="matrix(0.1,0,0,-0.1,0,46)"/>
<path style="fill-rule:nonzero;fill:rgb(91.363525%,91.20636%,91.246033%);fill-opacity:1;stroke-width:10;stroke-linecap:butt;stroke-linejoin:miter;stroke:rgb(13.729858%,12.159729%,12.548828%);stroke-opacity:1;stroke-miterlimit:4;" d="M 1715 365 L 1805 365 L 1805 455 L 1715 455 Z M 1715 365 " transform="matrix(0.1,0,0,-0.1,0,46)"/>
<path style="fill-rule:nonzero;fill:rgb(91.363525%,91.20636%,91.246033%);fill-opacity:1;stroke-width:10;stroke-linecap:butt;stroke-linejoin:miter;stroke:rgb(13.729858%,12.159729%,12.548828%);stroke-opacity:1;stroke-miterlimit:4;" d="M 1805 365 L 1895 365 L 1895 455 L 1805 455 Z M 1805 365 " transform="matrix(0.1,0,0,-0.1,0,46)"/>
<path style="fill-rule:nonzero;fill:rgb(91.363525%,91.20636%,91.246033%);fill-opacity:1;stroke-width:10;stroke-linecap:butt;stroke-linejoin:miter;stroke:rgb(13.729858%,12.159729%,12.548828%);stroke-opacity:1;stroke-miterlimit:4;" d="M 1895 365 L 1985 365 L 1985 455 L 1895 455 Z M 1895 365 " transform="matrix(0.1,0,0,-0.1,0,46)"/>
<path style="fill-rule:nonzero;fill:rgb(74.113464%,73.643494%,73.75946%);fill-opacity:1;stroke-width:10;stroke-linecap:butt;stroke-linejoin:miter;stroke:rgb(13.729858%,12.159729%,12.548828%);stroke-opacity:1;stroke-miterlimit:4;" d="M 1175 275 L 1265 275 L 1265 365 L 1175 365 Z M 1175 275 " transform="matrix(0.1,0,0,-0.1,0,46)"/>
<path style="fill-rule:nonzero;fill:rgb(74.113464%,73.643494%,73.75946%);fill-opacity:1;stroke-width:10;stroke-linecap:butt;stroke-linejoin:miter;stroke:rgb(13.729858%,12.159729%,12.548828%);stroke-opacity:1;stroke-miterlimit:4;" d="M 1265 275 L 1355 275 L 1355 365 L 1265 365 Z M 1265 275 " transform="matrix(0.1,0,0,-0.1,0,46)"/>
<path style="fill-rule:nonzero;fill:rgb(74.113464%,73.643494%,73.75946%);fill-opacity:1;stroke-width:10;stroke-linecap:butt;stroke-linejoin:miter;stroke:rgb(13.729858%,12.159729%,12.548828%);stroke-opacity:1;stroke-miterlimit:4;" d="M 1355 275 L 1445 275 L 1445 365 L 1355 365 Z M 1355 275 " transform="matrix(0.1,0,0,-0.1,0,46)"/>
<path style="fill-rule:nonzero;fill:rgb(48.272705%,47.331238%,47.564697%);fill-opacity:1;stroke-width:10;stroke-linecap:butt;stroke-linejoin:miter;stroke:rgb(13.729858%,12.159729%,12.548828%);stroke-opacity:1;stroke-miterlimit:4;" d="M 1175 185 L 1265 185 L 1265 275 L 1175 275 Z M 1175 185 " transform="matrix(0.1,0,0,-0.1,0,46)"/>
</g>
</svg>
