<?xml version="1.0" encoding="UTF-8"?>
<svg xmlns="http://www.w3.org/2000/svg" xmlns:xlink="http://www.w3.org/1999/xlink" width="453pt" height="132pt" viewBox="0 0 453 132" version="1.1">
<defs>
<clipPath id="clip1">
  <path d="M 376 0.5 L 396 0.5 L 396 16 L 376 16 Z M 376 0.5 "/>
</clipPath>
<clipPath id="clip2">
  <path d="M 435 1 L 452.476562 1 L 452.476562 20 L 435 20 Z M 435 1 "/>
</clipPath>
<clipPath id="clip3">
  <path d="M 435 42 L 452.476562 42 L 452.476562 62 L 435 62 Z M 435 42 "/>
</clipPath>
<clipPath id="clip4">
  <path d="M 384 0.5 L 447 0.5 L 447 17 L 384 17 Z M 384 0.5 "/>
</clipPath>
<clipPath id="clip5">
  <path d="M 438 77 L 452.476562 77 L 452.476562 96 L 438 96 Z M 438 77 "/>
</clipPath>
<clipPath id="clip6">
  <path d="M 438 118 L 452.476562 118 L 452.476562 132 L 438 132 Z M 438 118 "/>
</clipPath>
<clipPath id="clip7">
  <path d="M 412 102 L 452.476562 102 L 452.476562 131 L 412 131 Z M 412 102 "/>
</clipPath>
<clipPath id="clip8">
  <path d="M 281 0.5 L 301 0.5 L 301 14 L 281 14 Z M 281 0.5 "/>
</clipPath>
<clipPath id="clip9">
  <path d="M 340 0.5 L 360 0.5 L 360 18 L 340 18 Z M 340 0.5 "/>
</clipPath>
<clipPath id="clip10">
  <path d="M 193 0.5 L 213 0.5 L 213 15 L 193 15 Z M 193 0.5 "/>
</clipPath>
<clipPath id="clip11">
  <path d="M 252 0.5 L 272 0.5 L 272 19 L 252 19 Z M 252 0.5 "/>
</clipPath>
<clipPath id="clip12">
  <path d="M 106 0.5 L 126 0.5 L 126 15 L 106 15 Z M 106 0.5 "/>
</clipPath>
<clipPath id="clip13">
  <path d="M 165 0.5 L 185 0.5 L 185 19 L 165 19 Z M 165 0.5 "/>
</clipPath>
</defs>
<g id="surface1">
<path style=" stroke:none;fill-rule:nonzero;fill:rgb(56.864929%,56.079102%,56.274414%);fill-opacity:1;" d="M 8.988281 43.5 C 8.988281 45.433594 7.308594 47 5.238281 47 C 3.167969 47 1.488281 45.433594 1.488281 43.5 C 1.488281 41.566406 3.167969 40 5.238281 40 C 7.308594 40 8.988281 41.566406 8.988281 43.5 "/>
<path style="fill:none;stroke-width:10;stroke-linecap:butt;stroke-linejoin:miter;stroke:rgb(13.729858%,12.159729%,12.548828%);stroke-opacity:1;stroke-miterlimit:4;" d="M 89.882812 885 C 89.882812 865.664062 73.085938 850 52.382812 850 C 31.679688 850 14.882812 865.664062 14.882812 885 C 14.882812 904.335938 31.679688 920 52.382812 920 C 73.085938 920 89.882812 904.335938 89.882812 885 Z M 89.882812 885 " transform="matrix(0.1,0,0,-0.1,0,132)"/>
<path style=" stroke:none;fill-rule:nonzero;fill:rgb(56.864929%,56.079102%,56.274414%);fill-opacity:1;" d="M 67.488281 47.5 C 67.488281 49.433594 65.808594 51 63.738281 51 C 61.667969 51 59.988281 49.433594 59.988281 47.5 C 59.988281 45.566406 61.667969 44 63.738281 44 C 65.808594 44 67.488281 45.566406 67.488281 47.5 "/>
<path style="fill:none;stroke-width:10;stroke-linecap:butt;stroke-linejoin:miter;stroke:rgb(13.729858%,12.159729%,12.548828%);stroke-opacity:1;stroke-miterlimit:4;" d="M 674.882812 845 C 674.882812 825.664062 658.085938 810 637.382812 810 C 616.679688 810 599.882812 825.664062 599.882812 845 C 599.882812 864.335938 616.679688 880 637.382812 880 C 658.085938 880 674.882812 864.335938 674.882812 845 Z M 674.882812 845 " transform="matrix(0.1,0,0,-0.1,0,132)"/>
<path style=" stroke:none;fill-rule:nonzero;fill:rgb(56.864929%,56.079102%,56.274414%);fill-opacity:1;" d="M 36.488281 67 C 36.488281 68.933594 34.808594 70.5 32.738281 70.5 C 30.667969 70.5 28.988281 68.933594 28.988281 67 C 28.988281 65.066406 30.667969 63.5 32.738281 63.5 C 34.808594 63.5 36.488281 65.066406 36.488281 67 "/>
<path style="fill:none;stroke-width:10;stroke-linecap:butt;stroke-linejoin:miter;stroke:rgb(13.729858%,12.159729%,12.548828%);stroke-opacity:1;stroke-miterlimit:4;" d="M 364.882812 650 C 364.882812 630.664062 348.085938 615 327.382812 615 C 306.679688 615 289.882812 630.664062 289.882812 650 C 289.882812 669.335938 306.679688 685 327.382812 685 C 348.085938 685 364.882812 669.335938 364.882812 650 Z M 364.882812 650 " transform="matrix(0.1,0,0,-0.1,0,132)"/>
<path style=" stroke:none;fill-rule:nonzero;fill:rgb(56.864929%,56.079102%,56.274414%);fill-opacity:1;" d="M 7.988281 87 C 7.988281 88.933594 6.308594 90.5 4.238281 90.5 C 2.167969 90.5 0.488281 88.933594 0.488281 87 C 0.488281 85.066406 2.167969 83.5 4.238281 83.5 C 6.308594 83.5 7.988281 85.066406 7.988281 87 "/>
<path style="fill:none;stroke-width:10;stroke-linecap:butt;stroke-linejoin:miter;stroke:rgb(13.729858%,12.159729%,12.548828%);stroke-opacity:1;stroke-miterlimit:4;" d="M 79.882812 450 C 79.882812 430.664062 63.085938 415 42.382812 415 C 21.679688 415 4.882812 430.664062 4.882812 450 C 4.882812 469.335938 21.679688 485 42.382812 485 C 63.085938 485 79.882812 469.335938 79.882812 450 Z M 79.882812 450 " transform="matrix(0.1,0,0,-0.1,0,132)"/>
<path style=" stroke:none;fill-rule:nonzero;fill:rgb(56.864929%,56.079102%,56.274414%);fill-opacity:1;" d="M 67.988281 89 C 67.988281 90.933594 66.308594 92.5 64.238281 92.5 C 62.167969 92.5 60.488281 90.933594 60.488281 89 C 60.488281 87.066406 62.167969 85.5 64.238281 85.5 C 66.308594 85.5 67.988281 87.066406 67.988281 89 "/>
<path style="fill:none;stroke-width:10;stroke-linecap:butt;stroke-linejoin:miter;stroke:rgb(13.729858%,12.159729%,12.548828%);stroke-opacity:1;stroke-miterlimit:4;" d="M 679.882812 430 C 679.882812 410.664062 663.085938 395 642.382812 395 C 621.679688 395 604.882812 410.664062 604.882812 430 C 604.882812 449.335938 621.679688 465 642.382812 465 C 663.085938 465 679.882812 449.335938 679.882812 430 Z M 679.882812 430 " transform="matrix(0.1,0,0,-0.1,0,132)"/>
<path style="fill-rule:nonzero;fill:rgb(56.864929%,56.079102%,56.274414%);fill-opacity:1;stroke-width:10;stroke-linecap:butt;stroke-linejoin:miter;stroke:rgb(13.729858%,12.159729%,12.548828%);stroke-opacity:1;stroke-miterlimit:4;" d="M 52.382812 850 L 42.382812 485 " transform="matrix(0.1,0,0,-0.1,0,132)"/>
<path style="fill-rule:nonzero;fill:rgb(56.864929%,56.079102%,56.274414%);fill-opacity:1;stroke-width:10;stroke-linecap:butt;stroke-linejoin:miter;stroke:rgb(13.729858%,12.159729%,12.548828%);stroke-opacity:1;stroke-miterlimit:4;" d="M 79.882812 860 L 299.882812 680 " transform="matrix(0.1,0,0,-0.1,0,132)"/>
<path style="fill-rule:nonzero;fill:rgb(56.864929%,56.079102%,56.274414%);fill-opacity:1;stroke-width:10;stroke-linecap:butt;stroke-linejoin:miter;stroke:rgb(13.729858%,12.159729%,12.548828%);stroke-opacity:1;stroke-miterlimit:4;" d="M 609.882812 810 L 354.882812 670 " transform="matrix(0.1,0,0,-0.1,0,132)"/>
<path style="fill-rule:nonzero;fill:rgb(56.864929%,56.079102%,56.274414%);fill-opacity:1;stroke-width:10;stroke-linecap:butt;stroke-linejoin:miter;stroke:rgb(13.729858%,12.159729%,12.548828%);stroke-opacity:1;stroke-miterlimit:4;" d="M 642.382812 465 L 339.882812 625 " transform="matrix(0.1,0,0,-0.1,0,132)"/>
<path style="fill-rule:nonzero;fill:rgb(56.864929%,56.079102%,56.274414%);fill-opacity:1;stroke-width:10;stroke-linecap:butt;stroke-linejoin:miter;stroke:rgb(13.729858%,12.159729%,12.548828%);stroke-opacity:1;stroke-miterlimit:4;" d="M 304.882812 620 L 74.882812 470 " transform="matrix(0.1,0,0,-0.1,0,132)"/>
<path style="fill-rule:nonzero;fill:rgb(56.864929%,56.079102%,56.274414%);fill-opacity:1;stroke-width:10;stroke-linecap:butt;stroke-linejoin:miter;stroke:rgb(13.729858%,12.159729%,12.548828%);stroke-opacity:1;stroke-miterlimit:4;" d="M 89.882812 885 L 599.882812 845 " transform="matrix(0.1,0,0,-0.1,0,132)"/>
<path style=" stroke:none;fill-rule:nonzero;fill:rgb(56.864929%,56.079102%,56.274414%);fill-opacity:1;" d="M 389.988281 6.5 C 389.988281 8.433594 388.308594 10 386.238281 10 C 384.167969 10 382.488281 8.433594 382.488281 6.5 C 382.488281 4.566406 384.167969 3 386.238281 3 C 388.308594 3 389.988281 4.566406 389.988281 6.5 "/>
<g clip-path="url(#clip1)" clip-rule="nonzero">
<path style="fill:none;stroke-width:10;stroke-linecap:butt;stroke-linejoin:miter;stroke:rgb(13.729858%,12.159729%,12.548828%);stroke-opacity:1;stroke-miterlimit:4;" d="M 3899.882812 1255 C 3899.882812 1235.664062 3883.085938 1220 3862.382812 1220 C 3841.679688 1220 3824.882812 1235.664062 3824.882812 1255 C 3824.882812 1274.335938 3841.679688 1290 3862.382812 1290 C 3883.085938 1290 3899.882812 1274.335938 3899.882812 1255 Z M 3899.882812 1255 " transform="matrix(0.1,0,0,-0.1,0,132)"/>
</g>
<path style=" stroke:none;fill-rule:nonzero;fill:rgb(56.864929%,56.079102%,56.274414%);fill-opacity:1;" d="M 448.488281 10.5 C 448.488281 12.433594 446.808594 14 444.738281 14 C 442.667969 14 440.988281 12.433594 440.988281 10.5 C 440.988281 8.566406 442.667969 7 444.738281 7 C 446.808594 7 448.488281 8.566406 448.488281 10.5 "/>
<g clip-path="url(#clip2)" clip-rule="nonzero">
<path style="fill:none;stroke-width:10;stroke-linecap:butt;stroke-linejoin:miter;stroke:rgb(13.729858%,12.159729%,12.548828%);stroke-opacity:1;stroke-miterlimit:4;" d="M 4484.882812 1215 C 4484.882812 1195.664062 4468.085938 1180 4447.382812 1180 C 4426.679688 1180 4409.882812 1195.664062 4409.882812 1215 C 4409.882812 1234.335938 4426.679688 1250 4447.382812 1250 C 4468.085938 1250 4484.882812 1234.335938 4484.882812 1215 Z M 4484.882812 1215 " transform="matrix(0.1,0,0,-0.1,0,132)"/>
</g>
<path style=" stroke:none;fill-rule:nonzero;fill:rgb(56.864929%,56.079102%,56.274414%);fill-opacity:1;" d="M 417.488281 30 C 417.488281 31.933594 415.808594 33.5 413.738281 33.5 C 411.667969 33.5 409.988281 31.933594 409.988281 30 C 409.988281 28.066406 411.667969 26.5 413.738281 26.5 C 415.808594 26.5 417.488281 28.066406 417.488281 30 "/>
<path style="fill:none;stroke-width:10;stroke-linecap:butt;stroke-linejoin:miter;stroke:rgb(13.729858%,12.159729%,12.548828%);stroke-opacity:1;stroke-miterlimit:4;" d="M 4174.882812 1020 C 4174.882812 1000.664062 4158.085938 985 4137.382812 985 C 4116.679688 985 4099.882812 1000.664062 4099.882812 1020 C 4099.882812 1039.335938 4116.679688 1055 4137.382812 1055 C 4158.085938 1055 4174.882812 1039.335938 4174.882812 1020 Z M 4174.882812 1020 " transform="matrix(0.1,0,0,-0.1,0,132)"/>
<path style=" stroke:none;fill-rule:nonzero;fill:rgb(56.864929%,56.079102%,56.274414%);fill-opacity:1;" d="M 388.988281 50 C 388.988281 51.933594 387.308594 53.5 385.238281 53.5 C 383.167969 53.5 381.488281 51.933594 381.488281 50 C 381.488281 48.066406 383.167969 46.5 385.238281 46.5 C 387.308594 46.5 388.988281 48.066406 388.988281 50 "/>
<path style="fill:none;stroke-width:10;stroke-linecap:butt;stroke-linejoin:miter;stroke:rgb(13.729858%,12.159729%,12.548828%);stroke-opacity:1;stroke-miterlimit:4;" d="M 3889.882812 820 C 3889.882812 800.664062 3873.085938 785 3852.382812 785 C 3831.679688 785 3814.882812 800.664062 3814.882812 820 C 3814.882812 839.335938 3831.679688 855 3852.382812 855 C 3873.085938 855 3889.882812 839.335938 3889.882812 820 Z M 3889.882812 820 " transform="matrix(0.1,0,0,-0.1,0,132)"/>
<path style=" stroke:none;fill-rule:nonzero;fill:rgb(56.864929%,56.079102%,56.274414%);fill-opacity:1;" d="M 448.988281 52 C 448.988281 53.933594 447.308594 55.5 445.238281 55.5 C 443.167969 55.5 441.488281 53.933594 441.488281 52 C 441.488281 50.066406 443.167969 48.5 445.238281 48.5 C 447.308594 48.5 448.988281 50.066406 448.988281 52 "/>
<g clip-path="url(#clip3)" clip-rule="nonzero">
<path style="fill:none;stroke-width:10;stroke-linecap:butt;stroke-linejoin:miter;stroke:rgb(13.729858%,12.159729%,12.548828%);stroke-opacity:1;stroke-miterlimit:4;" d="M 4489.882812 800 C 4489.882812 780.664062 4473.085938 765 4452.382812 765 C 4431.679688 765 4414.882812 780.664062 4414.882812 800 C 4414.882812 819.335938 4431.679688 835 4452.382812 835 C 4473.085938 835 4489.882812 819.335938 4489.882812 800 Z M 4489.882812 800 " transform="matrix(0.1,0,0,-0.1,0,132)"/>
</g>
<path style="fill-rule:nonzero;fill:rgb(56.864929%,56.079102%,56.274414%);fill-opacity:1;stroke-width:10;stroke-linecap:butt;stroke-linejoin:miter;stroke:rgb(13.729858%,12.159729%,12.548828%);stroke-opacity:1;stroke-miterlimit:4;" d="M 3862.382812 1220 L 3852.382812 855 " transform="matrix(0.1,0,0,-0.1,0,132)"/>
<path style="fill-rule:nonzero;fill:rgb(56.864929%,56.079102%,56.274414%);fill-opacity:1;stroke-width:10;stroke-linecap:butt;stroke-linejoin:miter;stroke:rgb(13.729858%,12.159729%,12.548828%);stroke-opacity:1;stroke-miterlimit:4;" d="M 4452.382812 835 L 4149.882812 995 " transform="matrix(0.1,0,0,-0.1,0,132)"/>
<path style="fill-rule:nonzero;fill:rgb(56.864929%,56.079102%,56.274414%);fill-opacity:1;stroke-width:10;stroke-linecap:butt;stroke-linejoin:miter;stroke:rgb(13.729858%,12.159729%,12.548828%);stroke-opacity:1;stroke-miterlimit:4;" d="M 4114.882812 990 L 3884.882812 840 " transform="matrix(0.1,0,0,-0.1,0,132)"/>
<path style=" stroke:none;fill-rule:nonzero;fill:rgb(56.864929%,56.079102%,56.274414%);fill-opacity:1;" d="M 389.988281 6.5 L 440.988281 10.5 "/>
<g clip-path="url(#clip4)" clip-rule="nonzero">
<path style="fill:none;stroke-width:10;stroke-linecap:butt;stroke-linejoin:miter;stroke:rgb(13.729858%,12.159729%,12.548828%);stroke-opacity:1;stroke-miterlimit:4;" d="M 3899.882812 1255 L 4409.882812 1215 " transform="matrix(0.1,0,0,-0.1,0,132)"/>
</g>
<path style=" stroke:none;fill-rule:nonzero;fill:rgb(56.864929%,56.079102%,56.274414%);fill-opacity:1;" d="M 303.988281 82.5 C 303.988281 84.433594 302.308594 86 300.238281 86 C 298.167969 86 296.488281 84.433594 296.488281 82.5 C 296.488281 80.566406 298.167969 79 300.238281 79 C 302.308594 79 303.988281 80.566406 303.988281 82.5 "/>
<path style="fill:none;stroke-width:10;stroke-linecap:butt;stroke-linejoin:miter;stroke:rgb(13.729858%,12.159729%,12.548828%);stroke-opacity:1;stroke-miterlimit:4;" d="M 3039.882812 495 C 3039.882812 475.664062 3023.085938 460 3002.382812 460 C 2981.679688 460 2964.882812 475.664062 2964.882812 495 C 2964.882812 514.335938 2981.679688 530 3002.382812 530 C 3023.085938 530 3039.882812 514.335938 3039.882812 495 Z M 3039.882812 495 " transform="matrix(0.1,0,0,-0.1,0,132)"/>
<path style=" stroke:none;fill-rule:nonzero;fill:rgb(56.864929%,56.079102%,56.274414%);fill-opacity:1;" d="M 362.488281 86.5 C 362.488281 88.433594 360.808594 90 358.738281 90 C 356.667969 90 354.988281 88.433594 354.988281 86.5 C 354.988281 84.566406 356.667969 83 358.738281 83 C 360.808594 83 362.488281 84.566406 362.488281 86.5 "/>
<path style="fill:none;stroke-width:10;stroke-linecap:butt;stroke-linejoin:miter;stroke:rgb(13.729858%,12.159729%,12.548828%);stroke-opacity:1;stroke-miterlimit:4;" d="M 3624.882812 455 C 3624.882812 435.664062 3608.085938 420 3587.382812 420 C 3566.679688 420 3549.882812 435.664062 3549.882812 455 C 3549.882812 474.335938 3566.679688 490 3587.382812 490 C 3608.085938 490 3624.882812 474.335938 3624.882812 455 Z M 3624.882812 455 " transform="matrix(0.1,0,0,-0.1,0,132)"/>
<path style=" stroke:none;fill-rule:nonzero;fill:rgb(56.864929%,56.079102%,56.274414%);fill-opacity:1;" d="M 331.488281 106 C 331.488281 107.933594 329.808594 109.5 327.738281 109.5 C 325.667969 109.5 323.988281 107.933594 323.988281 106 C 323.988281 104.066406 325.667969 102.5 327.738281 102.5 C 329.808594 102.5 331.488281 104.066406 331.488281 106 "/>
<path style="fill:none;stroke-width:10;stroke-linecap:butt;stroke-linejoin:miter;stroke:rgb(13.729858%,12.159729%,12.548828%);stroke-opacity:1;stroke-miterlimit:4;" d="M 3314.882812 260 C 3314.882812 240.664062 3298.085938 225 3277.382812 225 C 3256.679688 225 3239.882812 240.664062 3239.882812 260 C 3239.882812 279.335938 3256.679688 295 3277.382812 295 C 3298.085938 295 3314.882812 279.335938 3314.882812 260 Z M 3314.882812 260 " transform="matrix(0.1,0,0,-0.1,0,132)"/>
<path style=" stroke:none;fill-rule:nonzero;fill:rgb(56.864929%,56.079102%,56.274414%);fill-opacity:1;" d="M 302.988281 126 C 302.988281 127.933594 301.308594 129.5 299.238281 129.5 C 297.167969 129.5 295.488281 127.933594 295.488281 126 C 295.488281 124.066406 297.167969 122.5 299.238281 122.5 C 301.308594 122.5 302.988281 124.066406 302.988281 126 "/>
<path style="fill:none;stroke-width:10;stroke-linecap:butt;stroke-linejoin:miter;stroke:rgb(13.729858%,12.159729%,12.548828%);stroke-opacity:1;stroke-miterlimit:4;" d="M 3029.882812 60 C 3029.882812 40.664062 3013.085938 25 2992.382812 25 C 2971.679688 25 2954.882812 40.664062 2954.882812 60 C 2954.882812 79.335938 2971.679688 95 2992.382812 95 C 3013.085938 95 3029.882812 79.335938 3029.882812 60 Z M 3029.882812 60 " transform="matrix(0.1,0,0,-0.1,0,132)"/>
<path style=" stroke:none;fill-rule:nonzero;fill:rgb(56.864929%,56.079102%,56.274414%);fill-opacity:1;" d="M 362.988281 128 C 362.988281 129.933594 361.308594 131.5 359.238281 131.5 C 357.167969 131.5 355.488281 129.933594 355.488281 128 C 355.488281 126.066406 357.167969 124.5 359.238281 124.5 C 361.308594 124.5 362.988281 126.066406 362.988281 128 "/>
<path style="fill:none;stroke-width:10;stroke-linecap:butt;stroke-linejoin:miter;stroke:rgb(13.729858%,12.159729%,12.548828%);stroke-opacity:1;stroke-miterlimit:4;" d="M 3629.882812 40 C 3629.882812 20.664062 3613.085938 5 3592.382812 5 C 3571.679688 5 3554.882812 20.664062 3554.882812 40 C 3554.882812 59.335938 3571.679688 75 3592.382812 75 C 3613.085938 75 3629.882812 59.335938 3629.882812 40 Z M 3629.882812 40 " transform="matrix(0.1,0,0,-0.1,0,132)"/>
<path style="fill-rule:nonzero;fill:rgb(56.864929%,56.079102%,56.274414%);fill-opacity:1;stroke-width:10;stroke-linecap:butt;stroke-linejoin:miter;stroke:rgb(13.729858%,12.159729%,12.548828%);stroke-opacity:1;stroke-miterlimit:4;" d="M 3002.382812 460 L 2992.382812 95 " transform="matrix(0.1,0,0,-0.1,0,132)"/>
<path style="fill-rule:nonzero;fill:rgb(56.864929%,56.079102%,56.274414%);fill-opacity:1;stroke-width:10;stroke-linecap:butt;stroke-linejoin:miter;stroke:rgb(13.729858%,12.159729%,12.548828%);stroke-opacity:1;stroke-miterlimit:4;" d="M 3559.882812 420 L 3304.882812 280 " transform="matrix(0.1,0,0,-0.1,0,132)"/>
<path style="fill-rule:nonzero;fill:rgb(56.864929%,56.079102%,56.274414%);fill-opacity:1;stroke-width:10;stroke-linecap:butt;stroke-linejoin:miter;stroke:rgb(13.729858%,12.159729%,12.548828%);stroke-opacity:1;stroke-miterlimit:4;" d="M 3592.382812 75 L 3289.882812 235 " transform="matrix(0.1,0,0,-0.1,0,132)"/>
<path style="fill-rule:nonzero;fill:rgb(56.864929%,56.079102%,56.274414%);fill-opacity:1;stroke-width:10;stroke-linecap:butt;stroke-linejoin:miter;stroke:rgb(13.729858%,12.159729%,12.548828%);stroke-opacity:1;stroke-miterlimit:4;" d="M 3039.882812 495 L 3549.882812 455 " transform="matrix(0.1,0,0,-0.1,0,132)"/>
<path style=" stroke:none;fill-rule:nonzero;fill:rgb(56.864929%,56.079102%,56.274414%);fill-opacity:1;" d="M 392.988281 82.5 C 392.988281 84.433594 391.308594 86 389.238281 86 C 387.167969 86 385.488281 84.433594 385.488281 82.5 C 385.488281 80.566406 387.167969 79 389.238281 79 C 391.308594 79 392.988281 80.566406 392.988281 82.5 "/>
<path style="fill:none;stroke-width:10;stroke-linecap:butt;stroke-linejoin:miter;stroke:rgb(13.729858%,12.159729%,12.548828%);stroke-opacity:1;stroke-miterlimit:4;" d="M 3929.882812 495 C 3929.882812 475.664062 3913.085938 460 3892.382812 460 C 3871.679688 460 3854.882812 475.664062 3854.882812 495 C 3854.882812 514.335938 3871.679688 530 3892.382812 530 C 3913.085938 530 3929.882812 514.335938 3929.882812 495 Z M 3929.882812 495 " transform="matrix(0.1,0,0,-0.1,0,132)"/>
<path style=" stroke:none;fill-rule:nonzero;fill:rgb(56.864929%,56.079102%,56.274414%);fill-opacity:1;" d="M 451.488281 86.5 C 451.488281 88.433594 449.808594 90 447.738281 90 C 445.667969 90 443.988281 88.433594 443.988281 86.5 C 443.988281 84.566406 445.667969 83 447.738281 83 C 449.808594 83 451.488281 84.566406 451.488281 86.5 "/>
<g clip-path="url(#clip5)" clip-rule="nonzero">
<path style="fill:none;stroke-width:10;stroke-linecap:butt;stroke-linejoin:miter;stroke:rgb(13.729858%,12.159729%,12.548828%);stroke-opacity:1;stroke-miterlimit:4;" d="M 4514.882812 455 C 4514.882812 435.664062 4498.085938 420 4477.382812 420 C 4456.679688 420 4439.882812 435.664062 4439.882812 455 C 4439.882812 474.335938 4456.679688 490 4477.382812 490 C 4498.085938 490 4514.882812 474.335938 4514.882812 455 Z M 4514.882812 455 " transform="matrix(0.1,0,0,-0.1,0,132)"/>
</g>
<path style=" stroke:none;fill-rule:nonzero;fill:rgb(56.864929%,56.079102%,56.274414%);fill-opacity:1;" d="M 420.488281 106 C 420.488281 107.933594 418.808594 109.5 416.738281 109.5 C 414.667969 109.5 412.988281 107.933594 412.988281 106 C 412.988281 104.066406 414.667969 102.5 416.738281 102.5 C 418.808594 102.5 420.488281 104.066406 420.488281 106 "/>
<path style="fill:none;stroke-width:10;stroke-linecap:butt;stroke-linejoin:miter;stroke:rgb(13.729858%,12.159729%,12.548828%);stroke-opacity:1;stroke-miterlimit:4;" d="M 4204.882812 260 C 4204.882812 240.664062 4188.085938 225 4167.382812 225 C 4146.679688 225 4129.882812 240.664062 4129.882812 260 C 4129.882812 279.335938 4146.679688 295 4167.382812 295 C 4188.085938 295 4204.882812 279.335938 4204.882812 260 Z M 4204.882812 260 " transform="matrix(0.1,0,0,-0.1,0,132)"/>
<path style=" stroke:none;fill-rule:nonzero;fill:rgb(56.864929%,56.079102%,56.274414%);fill-opacity:1;" d="M 391.988281 126 C 391.988281 127.933594 390.308594 129.5 388.238281 129.5 C 386.167969 129.5 384.488281 127.933594 384.488281 126 C 384.488281 124.066406 386.167969 122.5 388.238281 122.5 C 390.308594 122.5 391.988281 124.066406 391.988281 126 "/>
<path style="fill:none;stroke-width:10;stroke-linecap:butt;stroke-linejoin:miter;stroke:rgb(13.729858%,12.159729%,12.548828%);stroke-opacity:1;stroke-miterlimit:4;" d="M 3919.882812 60 C 3919.882812 40.664062 3903.085938 25 3882.382812 25 C 3861.679688 25 3844.882812 40.664062 3844.882812 60 C 3844.882812 79.335938 3861.679688 95 3882.382812 95 C 3903.085938 95 3919.882812 79.335938 3919.882812 60 Z M 3919.882812 60 " transform="matrix(0.1,0,0,-0.1,0,132)"/>
<path style=" stroke:none;fill-rule:nonzero;fill:rgb(56.864929%,56.079102%,56.274414%);fill-opacity:1;" d="M 451.988281 128 C 451.988281 129.933594 450.308594 131.5 448.238281 131.5 C 446.167969 131.5 444.488281 129.933594 444.488281 128 C 444.488281 126.066406 446.167969 124.5 448.238281 124.5 C 450.308594 124.5 451.988281 126.066406 451.988281 128 "/>
<g clip-path="url(#clip6)" clip-rule="nonzero">
<path style="fill:none;stroke-width:10;stroke-linecap:butt;stroke-linejoin:miter;stroke:rgb(13.729858%,12.159729%,12.548828%);stroke-opacity:1;stroke-miterlimit:4;" d="M 4519.882812 40 C 4519.882812 20.664062 4503.085938 5 4482.382812 5 C 4461.679688 5 4444.882812 20.664062 4444.882812 40 C 4444.882812 59.335938 4461.679688 75 4482.382812 75 C 4503.085938 75 4519.882812 59.335938 4519.882812 40 Z M 4519.882812 40 " transform="matrix(0.1,0,0,-0.1,0,132)"/>
</g>
<path style="fill-rule:nonzero;fill:rgb(56.864929%,56.079102%,56.274414%);fill-opacity:1;stroke-width:10;stroke-linecap:butt;stroke-linejoin:miter;stroke:rgb(13.729858%,12.159729%,12.548828%);stroke-opacity:1;stroke-miterlimit:4;" d="M 3892.382812 460 L 3882.382812 95 " transform="matrix(0.1,0,0,-0.1,0,132)"/>
<path style="fill-rule:nonzero;fill:rgb(56.864929%,56.079102%,56.274414%);fill-opacity:1;stroke-width:10;stroke-linecap:butt;stroke-linejoin:miter;stroke:rgb(13.729858%,12.159729%,12.548828%);stroke-opacity:1;stroke-miterlimit:4;" d="M 3919.882812 470 L 4139.882812 290 " transform="matrix(0.1,0,0,-0.1,0,132)"/>
<path style=" stroke:none;fill-rule:nonzero;fill:rgb(56.864929%,56.079102%,56.274414%);fill-opacity:1;" d="M 448.238281 124.5 L 417.988281 108.5 "/>
<g clip-path="url(#clip7)" clip-rule="nonzero">
<path style="fill:none;stroke-width:10;stroke-linecap:butt;stroke-linejoin:miter;stroke:rgb(13.729858%,12.159729%,12.548828%);stroke-opacity:1;stroke-miterlimit:4;" d="M 4482.382812 75 L 4179.882812 235 " transform="matrix(0.1,0,0,-0.1,0,132)"/>
</g>
<path style="fill-rule:nonzero;fill:rgb(56.864929%,56.079102%,56.274414%);fill-opacity:1;stroke-width:10;stroke-linecap:butt;stroke-linejoin:miter;stroke:rgb(13.729858%,12.159729%,12.548828%);stroke-opacity:1;stroke-miterlimit:4;" d="M 3929.882812 495 L 4439.882812 455 " transform="matrix(0.1,0,0,-0.1,0,132)"/>
<path style=" stroke:none;fill-rule:nonzero;fill:rgb(56.864929%,56.079102%,56.274414%);fill-opacity:1;" d="M 211.988281 79.5 C 211.988281 81.433594 210.308594 83 208.238281 83 C 206.167969 83 204.488281 81.433594 204.488281 79.5 C 204.488281 77.566406 206.167969 76 208.238281 76 C 210.308594 76 211.988281 77.566406 211.988281 79.5 "/>
<path style="fill:none;stroke-width:10;stroke-linecap:butt;stroke-linejoin:miter;stroke:rgb(13.729858%,12.159729%,12.548828%);stroke-opacity:1;stroke-miterlimit:4;" d="M 2119.882812 525 C 2119.882812 505.664062 2103.085938 490 2082.382812 490 C 2061.679688 490 2044.882812 505.664062 2044.882812 525 C 2044.882812 544.335938 2061.679688 560 2082.382812 560 C 2103.085938 560 2119.882812 544.335938 2119.882812 525 Z M 2119.882812 525 " transform="matrix(0.1,0,0,-0.1,0,132)"/>
<path style=" stroke:none;fill-rule:nonzero;fill:rgb(56.864929%,56.079102%,56.274414%);fill-opacity:1;" d="M 270.488281 83.5 C 270.488281 85.433594 268.808594 87 266.738281 87 C 264.667969 87 262.988281 85.433594 262.988281 83.5 C 262.988281 81.566406 264.667969 80 266.738281 80 C 268.808594 80 270.488281 81.566406 270.488281 83.5 "/>
<path style="fill:none;stroke-width:10;stroke-linecap:butt;stroke-linejoin:miter;stroke:rgb(13.729858%,12.159729%,12.548828%);stroke-opacity:1;stroke-miterlimit:4;" d="M 2704.882812 485 C 2704.882812 465.664062 2688.085938 450 2667.382812 450 C 2646.679688 450 2629.882812 465.664062 2629.882812 485 C 2629.882812 504.335938 2646.679688 520 2667.382812 520 C 2688.085938 520 2704.882812 504.335938 2704.882812 485 Z M 2704.882812 485 " transform="matrix(0.1,0,0,-0.1,0,132)"/>
<path style=" stroke:none;fill-rule:nonzero;fill:rgb(56.864929%,56.079102%,56.274414%);fill-opacity:1;" d="M 239.488281 103 C 239.488281 104.933594 237.808594 106.5 235.738281 106.5 C 233.667969 106.5 231.988281 104.933594 231.988281 103 C 231.988281 101.066406 233.667969 99.5 235.738281 99.5 C 237.808594 99.5 239.488281 101.066406 239.488281 103 "/>
<path style="fill:none;stroke-width:10;stroke-linecap:butt;stroke-linejoin:miter;stroke:rgb(13.729858%,12.159729%,12.548828%);stroke-opacity:1;stroke-miterlimit:4;" d="M 2394.882812 290 C 2394.882812 270.664062 2378.085938 255 2357.382812 255 C 2336.679688 255 2319.882812 270.664062 2319.882812 290 C 2319.882812 309.335938 2336.679688 325 2357.382812 325 C 2378.085938 325 2394.882812 309.335938 2394.882812 290 Z M 2394.882812 290 " transform="matrix(0.1,0,0,-0.1,0,132)"/>
<path style=" stroke:none;fill-rule:nonzero;fill:rgb(56.864929%,56.079102%,56.274414%);fill-opacity:1;" d="M 210.988281 123 C 210.988281 124.933594 209.308594 126.5 207.238281 126.5 C 205.167969 126.5 203.488281 124.933594 203.488281 123 C 203.488281 121.066406 205.167969 119.5 207.238281 119.5 C 209.308594 119.5 210.988281 121.066406 210.988281 123 "/>
<path style="fill:none;stroke-width:10;stroke-linecap:butt;stroke-linejoin:miter;stroke:rgb(13.729858%,12.159729%,12.548828%);stroke-opacity:1;stroke-miterlimit:4;" d="M 2109.882812 90 C 2109.882812 70.664062 2093.085938 55 2072.382812 55 C 2051.679688 55 2034.882812 70.664062 2034.882812 90 C 2034.882812 109.335938 2051.679688 125 2072.382812 125 C 2093.085938 125 2109.882812 109.335938 2109.882812 90 Z M 2109.882812 90 " transform="matrix(0.1,0,0,-0.1,0,132)"/>
<path style=" stroke:none;fill-rule:nonzero;fill:rgb(56.864929%,56.079102%,56.274414%);fill-opacity:1;" d="M 270.988281 125 C 270.988281 126.933594 269.308594 128.5 267.238281 128.5 C 265.167969 128.5 263.488281 126.933594 263.488281 125 C 263.488281 123.066406 265.167969 121.5 267.238281 121.5 C 269.308594 121.5 270.988281 123.066406 270.988281 125 "/>
<path style="fill:none;stroke-width:10;stroke-linecap:butt;stroke-linejoin:miter;stroke:rgb(13.729858%,12.159729%,12.548828%);stroke-opacity:1;stroke-miterlimit:4;" d="M 2709.882812 70 C 2709.882812 50.664062 2693.085938 35 2672.382812 35 C 2651.679688 35 2634.882812 50.664062 2634.882812 70 C 2634.882812 89.335938 2651.679688 105 2672.382812 105 C 2693.085938 105 2709.882812 89.335938 2709.882812 70 Z M 2709.882812 70 " transform="matrix(0.1,0,0,-0.1,0,132)"/>
<path style="fill-rule:nonzero;fill:rgb(56.864929%,56.079102%,56.274414%);fill-opacity:1;stroke-width:10;stroke-linecap:butt;stroke-linejoin:miter;stroke:rgb(13.729858%,12.159729%,12.548828%);stroke-opacity:1;stroke-miterlimit:4;" d="M 2109.882812 500 L 2329.882812 320 " transform="matrix(0.1,0,0,-0.1,0,132)"/>
<path style="fill-rule:nonzero;fill:rgb(56.864929%,56.079102%,56.274414%);fill-opacity:1;stroke-width:10;stroke-linecap:butt;stroke-linejoin:miter;stroke:rgb(13.729858%,12.159729%,12.548828%);stroke-opacity:1;stroke-miterlimit:4;" d="M 2672.382812 105 L 2369.882812 265 " transform="matrix(0.1,0,0,-0.1,0,132)"/>
<path style="fill-rule:nonzero;fill:rgb(56.864929%,56.079102%,56.274414%);fill-opacity:1;stroke-width:10;stroke-linecap:butt;stroke-linejoin:miter;stroke:rgb(13.729858%,12.159729%,12.548828%);stroke-opacity:1;stroke-miterlimit:4;" d="M 2334.882812 260 L 2104.882812 110 " transform="matrix(0.1,0,0,-0.1,0,132)"/>
<path style="fill-rule:nonzero;fill:rgb(56.864929%,56.079102%,56.274414%);fill-opacity:1;stroke-width:10;stroke-linecap:butt;stroke-linejoin:miter;stroke:rgb(13.729858%,12.159729%,12.548828%);stroke-opacity:1;stroke-miterlimit:4;" d="M 2119.882812 525 L 2629.882812 485 " transform="matrix(0.1,0,0,-0.1,0,132)"/>
<path style=" stroke:none;fill-rule:nonzero;fill:rgb(56.864929%,56.079102%,56.274414%);fill-opacity:1;" d="M 114.988281 79.5 C 114.988281 81.433594 113.308594 83 111.238281 83 C 109.167969 83 107.488281 81.433594 107.488281 79.5 C 107.488281 77.566406 109.167969 76 111.238281 76 C 113.308594 76 114.988281 77.566406 114.988281 79.5 "/>
<path style="fill:none;stroke-width:10;stroke-linecap:butt;stroke-linejoin:miter;stroke:rgb(13.729858%,12.159729%,12.548828%);stroke-opacity:1;stroke-miterlimit:4;" d="M 1149.882812 525 C 1149.882812 505.664062 1133.085938 490 1112.382812 490 C 1091.679688 490 1074.882812 505.664062 1074.882812 525 C 1074.882812 544.335938 1091.679688 560 1112.382812 560 C 1133.085938 560 1149.882812 544.335938 1149.882812 525 Z M 1149.882812 525 " transform="matrix(0.1,0,0,-0.1,0,132)"/>
<path style=" stroke:none;fill-rule:nonzero;fill:rgb(56.864929%,56.079102%,56.274414%);fill-opacity:1;" d="M 173.488281 83.5 C 173.488281 85.433594 171.808594 87 169.738281 87 C 167.667969 87 165.988281 85.433594 165.988281 83.5 C 165.988281 81.566406 167.667969 80 169.738281 80 C 171.808594 80 173.488281 81.566406 173.488281 83.5 "/>
<path style="fill:none;stroke-width:10;stroke-linecap:butt;stroke-linejoin:miter;stroke:rgb(13.729858%,12.159729%,12.548828%);stroke-opacity:1;stroke-miterlimit:4;" d="M 1734.882812 485 C 1734.882812 465.664062 1718.085938 450 1697.382812 450 C 1676.679688 450 1659.882812 465.664062 1659.882812 485 C 1659.882812 504.335938 1676.679688 520 1697.382812 520 C 1718.085938 520 1734.882812 504.335938 1734.882812 485 Z M 1734.882812 485 " transform="matrix(0.1,0,0,-0.1,0,132)"/>
<path style=" stroke:none;fill-rule:nonzero;fill:rgb(56.864929%,56.079102%,56.274414%);fill-opacity:1;" d="M 142.488281 103 C 142.488281 104.933594 140.808594 106.5 138.738281 106.5 C 136.667969 106.5 134.988281 104.933594 134.988281 103 C 134.988281 101.066406 136.667969 99.5 138.738281 99.5 C 140.808594 99.5 142.488281 101.066406 142.488281 103 "/>
<path style="fill:none;stroke-width:10;stroke-linecap:butt;stroke-linejoin:miter;stroke:rgb(13.729858%,12.159729%,12.548828%);stroke-opacity:1;stroke-miterlimit:4;" d="M 1424.882812 290 C 1424.882812 270.664062 1408.085938 255 1387.382812 255 C 1366.679688 255 1349.882812 270.664062 1349.882812 290 C 1349.882812 309.335938 1366.679688 325 1387.382812 325 C 1408.085938 325 1424.882812 309.335938 1424.882812 290 Z M 1424.882812 290 " transform="matrix(0.1,0,0,-0.1,0,132)"/>
<path style=" stroke:none;fill-rule:nonzero;fill:rgb(56.864929%,56.079102%,56.274414%);fill-opacity:1;" d="M 113.988281 123 C 113.988281 124.933594 112.308594 126.5 110.238281 126.5 C 108.167969 126.5 106.488281 124.933594 106.488281 123 C 106.488281 121.066406 108.167969 119.5 110.238281 119.5 C 112.308594 119.5 113.988281 121.066406 113.988281 123 "/>
<path style="fill:none;stroke-width:10;stroke-linecap:butt;stroke-linejoin:miter;stroke:rgb(13.729858%,12.159729%,12.548828%);stroke-opacity:1;stroke-miterlimit:4;" d="M 1139.882812 90 C 1139.882812 70.664062 1123.085938 55 1102.382812 55 C 1081.679688 55 1064.882812 70.664062 1064.882812 90 C 1064.882812 109.335938 1081.679688 125 1102.382812 125 C 1123.085938 125 1139.882812 109.335938 1139.882812 90 Z M 1139.882812 90 " transform="matrix(0.1,0,0,-0.1,0,132)"/>
<path style=" stroke:none;fill-rule:nonzero;fill:rgb(56.864929%,56.079102%,56.274414%);fill-opacity:1;" d="M 173.988281 125 C 173.988281 126.933594 172.308594 128.5 170.238281 128.5 C 168.167969 128.5 166.488281 126.933594 166.488281 125 C 166.488281 123.066406 168.167969 121.5 170.238281 121.5 C 172.308594 121.5 173.988281 123.066406 173.988281 125 "/>
<path style="fill:none;stroke-width:10;stroke-linecap:butt;stroke-linejoin:miter;stroke:rgb(13.729858%,12.159729%,12.548828%);stroke-opacity:1;stroke-miterlimit:4;" d="M 1739.882812 70 C 1739.882812 50.664062 1723.085938 35 1702.382812 35 C 1681.679688 35 1664.882812 50.664062 1664.882812 70 C 1664.882812 89.335938 1681.679688 105 1702.382812 105 C 1723.085938 105 1739.882812 89.335938 1739.882812 70 Z M 1739.882812 70 " transform="matrix(0.1,0,0,-0.1,0,132)"/>
<path style="fill-rule:nonzero;fill:rgb(56.864929%,56.079102%,56.274414%);fill-opacity:1;stroke-width:10;stroke-linecap:butt;stroke-linejoin:miter;stroke:rgb(13.729858%,12.159729%,12.548828%);stroke-opacity:1;stroke-miterlimit:4;" d="M 1669.882812 450 L 1414.882812 310 " transform="matrix(0.1,0,0,-0.1,0,132)"/>
<path style="fill-rule:nonzero;fill:rgb(56.864929%,56.079102%,56.274414%);fill-opacity:1;stroke-width:10;stroke-linecap:butt;stroke-linejoin:miter;stroke:rgb(13.729858%,12.159729%,12.548828%);stroke-opacity:1;stroke-miterlimit:4;" d="M 1702.382812 105 L 1399.882812 265 " transform="matrix(0.1,0,0,-0.1,0,132)"/>
<path style="fill-rule:nonzero;fill:rgb(56.864929%,56.079102%,56.274414%);fill-opacity:1;stroke-width:10;stroke-linecap:butt;stroke-linejoin:miter;stroke:rgb(13.729858%,12.159729%,12.548828%);stroke-opacity:1;stroke-miterlimit:4;" d="M 1364.882812 260 L 1134.882812 110 " transform="matrix(0.1,0,0,-0.1,0,132)"/>
<path style="fill-rule:nonzero;fill:rgb(56.864929%,56.079102%,56.274414%);fill-opacity:1;stroke-width:10;stroke-linecap:butt;stroke-linejoin:miter;stroke:rgb(13.729858%,12.159729%,12.548828%);stroke-opacity:1;stroke-miterlimit:4;" d="M 1149.882812 525 L 1659.882812 485 " transform="matrix(0.1,0,0,-0.1,0,132)"/>
<path style=" stroke:none;fill-rule:nonzero;fill:rgb(56.864929%,56.079102%,56.274414%);fill-opacity:1;" d="M 294.988281 4.5 C 294.988281 6.433594 293.308594 8 291.238281 8 C 289.167969 8 287.488281 6.433594 287.488281 4.5 C 287.488281 2.566406 289.167969 1 291.238281 1 C 293.308594 1 294.988281 2.566406 294.988281 4.5 "/>
<g clip-path="url(#clip8)" clip-rule="nonzero">
<path style="fill:none;stroke-width:10;stroke-linecap:butt;stroke-linejoin:miter;stroke:rgb(13.729858%,12.159729%,12.548828%);stroke-opacity:1;stroke-miterlimit:4;" d="M 2949.882812 1275 C 2949.882812 1255.664062 2933.085938 1240 2912.382812 1240 C 2891.679688 1240 2874.882812 1255.664062 2874.882812 1275 C 2874.882812 1294.335938 2891.679688 1310 2912.382812 1310 C 2933.085938 1310 2949.882812 1294.335938 2949.882812 1275 Z M 2949.882812 1275 " transform="matrix(0.1,0,0,-0.1,0,132)"/>
</g>
<path style=" stroke:none;fill-rule:nonzero;fill:rgb(56.864929%,56.079102%,56.274414%);fill-opacity:1;" d="M 353.488281 8.5 C 353.488281 10.433594 351.808594 12 349.738281 12 C 347.667969 12 345.988281 10.433594 345.988281 8.5 C 345.988281 6.566406 347.667969 5 349.738281 5 C 351.808594 5 353.488281 6.566406 353.488281 8.5 "/>
<g clip-path="url(#clip9)" clip-rule="nonzero">
<path style="fill:none;stroke-width:10;stroke-linecap:butt;stroke-linejoin:miter;stroke:rgb(13.729858%,12.159729%,12.548828%);stroke-opacity:1;stroke-miterlimit:4;" d="M 3534.882812 1235 C 3534.882812 1215.664062 3518.085938 1200 3497.382812 1200 C 3476.679688 1200 3459.882812 1215.664062 3459.882812 1235 C 3459.882812 1254.335938 3476.679688 1270 3497.382812 1270 C 3518.085938 1270 3534.882812 1254.335938 3534.882812 1235 Z M 3534.882812 1235 " transform="matrix(0.1,0,0,-0.1,0,132)"/>
</g>
<path style=" stroke:none;fill-rule:nonzero;fill:rgb(56.864929%,56.079102%,56.274414%);fill-opacity:1;" d="M 322.488281 28 C 322.488281 29.933594 320.808594 31.5 318.738281 31.5 C 316.667969 31.5 314.988281 29.933594 314.988281 28 C 314.988281 26.066406 316.667969 24.5 318.738281 24.5 C 320.808594 24.5 322.488281 26.066406 322.488281 28 "/>
<path style="fill:none;stroke-width:10;stroke-linecap:butt;stroke-linejoin:miter;stroke:rgb(13.729858%,12.159729%,12.548828%);stroke-opacity:1;stroke-miterlimit:4;" d="M 3224.882812 1040 C 3224.882812 1020.664062 3208.085938 1005 3187.382812 1005 C 3166.679688 1005 3149.882812 1020.664062 3149.882812 1040 C 3149.882812 1059.335938 3166.679688 1075 3187.382812 1075 C 3208.085938 1075 3224.882812 1059.335938 3224.882812 1040 Z M 3224.882812 1040 " transform="matrix(0.1,0,0,-0.1,0,132)"/>
<path style=" stroke:none;fill-rule:nonzero;fill:rgb(56.864929%,56.079102%,56.274414%);fill-opacity:1;" d="M 293.988281 48 C 293.988281 49.933594 292.308594 51.5 290.238281 51.5 C 288.167969 51.5 286.488281 49.933594 286.488281 48 C 286.488281 46.066406 288.167969 44.5 290.238281 44.5 C 292.308594 44.5 293.988281 46.066406 293.988281 48 "/>
<path style="fill:none;stroke-width:10;stroke-linecap:butt;stroke-linejoin:miter;stroke:rgb(13.729858%,12.159729%,12.548828%);stroke-opacity:1;stroke-miterlimit:4;" d="M 2939.882812 840 C 2939.882812 820.664062 2923.085938 805 2902.382812 805 C 2881.679688 805 2864.882812 820.664062 2864.882812 840 C 2864.882812 859.335938 2881.679688 875 2902.382812 875 C 2923.085938 875 2939.882812 859.335938 2939.882812 840 Z M 2939.882812 840 " transform="matrix(0.1,0,0,-0.1,0,132)"/>
<path style=" stroke:none;fill-rule:nonzero;fill:rgb(56.864929%,56.079102%,56.274414%);fill-opacity:1;" d="M 353.988281 50 C 353.988281 51.933594 352.308594 53.5 350.238281 53.5 C 348.167969 53.5 346.488281 51.933594 346.488281 50 C 346.488281 48.066406 348.167969 46.5 350.238281 46.5 C 352.308594 46.5 353.988281 48.066406 353.988281 50 "/>
<path style="fill:none;stroke-width:10;stroke-linecap:butt;stroke-linejoin:miter;stroke:rgb(13.729858%,12.159729%,12.548828%);stroke-opacity:1;stroke-miterlimit:4;" d="M 3539.882812 820 C 3539.882812 800.664062 3523.085938 785 3502.382812 785 C 3481.679688 785 3464.882812 800.664062 3464.882812 820 C 3464.882812 839.335938 3481.679688 855 3502.382812 855 C 3523.085938 855 3539.882812 839.335938 3539.882812 820 Z M 3539.882812 820 " transform="matrix(0.1,0,0,-0.1,0,132)"/>
<path style="fill-rule:nonzero;fill:rgb(56.864929%,56.079102%,56.274414%);fill-opacity:1;stroke-width:10;stroke-linecap:butt;stroke-linejoin:miter;stroke:rgb(13.729858%,12.159729%,12.548828%);stroke-opacity:1;stroke-miterlimit:4;" d="M 2912.382812 1240 L 2902.382812 875 " transform="matrix(0.1,0,0,-0.1,0,132)"/>
<path style="fill-rule:nonzero;fill:rgb(56.864929%,56.079102%,56.274414%);fill-opacity:1;stroke-width:10;stroke-linecap:butt;stroke-linejoin:miter;stroke:rgb(13.729858%,12.159729%,12.548828%);stroke-opacity:1;stroke-miterlimit:4;" d="M 2939.882812 1250 L 3159.882812 1070 " transform="matrix(0.1,0,0,-0.1,0,132)"/>
<path style="fill-rule:nonzero;fill:rgb(56.864929%,56.079102%,56.274414%);fill-opacity:1;stroke-width:10;stroke-linecap:butt;stroke-linejoin:miter;stroke:rgb(13.729858%,12.159729%,12.548828%);stroke-opacity:1;stroke-miterlimit:4;" d="M 3469.882812 1200 L 3214.882812 1060 " transform="matrix(0.1,0,0,-0.1,0,132)"/>
<path style="fill-rule:nonzero;fill:rgb(56.864929%,56.079102%,56.274414%);fill-opacity:1;stroke-width:10;stroke-linecap:butt;stroke-linejoin:miter;stroke:rgb(13.729858%,12.159729%,12.548828%);stroke-opacity:1;stroke-miterlimit:4;" d="M 3502.382812 855 L 3199.882812 1015 " transform="matrix(0.1,0,0,-0.1,0,132)"/>
<path style=" stroke:none;fill-rule:nonzero;fill:rgb(56.864929%,56.079102%,56.274414%);fill-opacity:1;" d="M 206.988281 5.5 C 206.988281 7.433594 205.308594 9 203.238281 9 C 201.167969 9 199.488281 7.433594 199.488281 5.5 C 199.488281 3.566406 201.167969 2 203.238281 2 C 205.308594 2 206.988281 3.566406 206.988281 5.5 "/>
<g clip-path="url(#clip10)" clip-rule="nonzero">
<path style="fill:none;stroke-width:10;stroke-linecap:butt;stroke-linejoin:miter;stroke:rgb(13.729858%,12.159729%,12.548828%);stroke-opacity:1;stroke-miterlimit:4;" d="M 2069.882812 1265 C 2069.882812 1245.664062 2053.085938 1230 2032.382812 1230 C 2011.679688 1230 1994.882812 1245.664062 1994.882812 1265 C 1994.882812 1284.335938 2011.679688 1300 2032.382812 1300 C 2053.085938 1300 2069.882812 1284.335938 2069.882812 1265 Z M 2069.882812 1265 " transform="matrix(0.1,0,0,-0.1,0,132)"/>
</g>
<path style=" stroke:none;fill-rule:nonzero;fill:rgb(56.864929%,56.079102%,56.274414%);fill-opacity:1;" d="M 265.488281 9.5 C 265.488281 11.433594 263.808594 13 261.738281 13 C 259.667969 13 257.988281 11.433594 257.988281 9.5 C 257.988281 7.566406 259.667969 6 261.738281 6 C 263.808594 6 265.488281 7.566406 265.488281 9.5 "/>
<g clip-path="url(#clip11)" clip-rule="nonzero">
<path style="fill:none;stroke-width:10;stroke-linecap:butt;stroke-linejoin:miter;stroke:rgb(13.729858%,12.159729%,12.548828%);stroke-opacity:1;stroke-miterlimit:4;" d="M 2654.882812 1225 C 2654.882812 1205.664062 2638.085938 1190 2617.382812 1190 C 2596.679688 1190 2579.882812 1205.664062 2579.882812 1225 C 2579.882812 1244.335938 2596.679688 1260 2617.382812 1260 C 2638.085938 1260 2654.882812 1244.335938 2654.882812 1225 Z M 2654.882812 1225 " transform="matrix(0.1,0,0,-0.1,0,132)"/>
</g>
<path style=" stroke:none;fill-rule:nonzero;fill:rgb(56.864929%,56.079102%,56.274414%);fill-opacity:1;" d="M 234.488281 29 C 234.488281 30.933594 232.808594 32.5 230.738281 32.5 C 228.667969 32.5 226.988281 30.933594 226.988281 29 C 226.988281 27.066406 228.667969 25.5 230.738281 25.5 C 232.808594 25.5 234.488281 27.066406 234.488281 29 "/>
<path style="fill:none;stroke-width:10;stroke-linecap:butt;stroke-linejoin:miter;stroke:rgb(13.729858%,12.159729%,12.548828%);stroke-opacity:1;stroke-miterlimit:4;" d="M 2344.882812 1030 C 2344.882812 1010.664062 2328.085938 995 2307.382812 995 C 2286.679688 995 2269.882812 1010.664062 2269.882812 1030 C 2269.882812 1049.335938 2286.679688 1065 2307.382812 1065 C 2328.085938 1065 2344.882812 1049.335938 2344.882812 1030 Z M 2344.882812 1030 " transform="matrix(0.1,0,0,-0.1,0,132)"/>
<path style=" stroke:none;fill-rule:nonzero;fill:rgb(56.864929%,56.079102%,56.274414%);fill-opacity:1;" d="M 205.988281 49 C 205.988281 50.933594 204.308594 52.5 202.238281 52.5 C 200.167969 52.5 198.488281 50.933594 198.488281 49 C 198.488281 47.066406 200.167969 45.5 202.238281 45.5 C 204.308594 45.5 205.988281 47.066406 205.988281 49 "/>
<path style="fill:none;stroke-width:10;stroke-linecap:butt;stroke-linejoin:miter;stroke:rgb(13.729858%,12.159729%,12.548828%);stroke-opacity:1;stroke-miterlimit:4;" d="M 2059.882812 830 C 2059.882812 810.664062 2043.085938 795 2022.382812 795 C 2001.679688 795 1984.882812 810.664062 1984.882812 830 C 1984.882812 849.335938 2001.679688 865 2022.382812 865 C 2043.085938 865 2059.882812 849.335938 2059.882812 830 Z M 2059.882812 830 " transform="matrix(0.1,0,0,-0.1,0,132)"/>
<path style=" stroke:none;fill-rule:nonzero;fill:rgb(56.864929%,56.079102%,56.274414%);fill-opacity:1;" d="M 265.988281 51 C 265.988281 52.933594 264.308594 54.5 262.238281 54.5 C 260.167969 54.5 258.488281 52.933594 258.488281 51 C 258.488281 49.066406 260.167969 47.5 262.238281 47.5 C 264.308594 47.5 265.988281 49.066406 265.988281 51 "/>
<path style="fill:none;stroke-width:10;stroke-linecap:butt;stroke-linejoin:miter;stroke:rgb(13.729858%,12.159729%,12.548828%);stroke-opacity:1;stroke-miterlimit:4;" d="M 2659.882812 810 C 2659.882812 790.664062 2643.085938 775 2622.382812 775 C 2601.679688 775 2584.882812 790.664062 2584.882812 810 C 2584.882812 829.335938 2601.679688 845 2622.382812 845 C 2643.085938 845 2659.882812 829.335938 2659.882812 810 Z M 2659.882812 810 " transform="matrix(0.1,0,0,-0.1,0,132)"/>
<path style="fill-rule:nonzero;fill:rgb(56.864929%,56.079102%,56.274414%);fill-opacity:1;stroke-width:10;stroke-linecap:butt;stroke-linejoin:miter;stroke:rgb(13.729858%,12.159729%,12.548828%);stroke-opacity:1;stroke-miterlimit:4;" d="M 2059.882812 1240 L 2279.882812 1060 " transform="matrix(0.1,0,0,-0.1,0,132)"/>
<path style="fill-rule:nonzero;fill:rgb(56.864929%,56.079102%,56.274414%);fill-opacity:1;stroke-width:10;stroke-linecap:butt;stroke-linejoin:miter;stroke:rgb(13.729858%,12.159729%,12.548828%);stroke-opacity:1;stroke-miterlimit:4;" d="M 2589.882812 1190 L 2334.882812 1050 " transform="matrix(0.1,0,0,-0.1,0,132)"/>
<path style="fill-rule:nonzero;fill:rgb(56.864929%,56.079102%,56.274414%);fill-opacity:1;stroke-width:10;stroke-linecap:butt;stroke-linejoin:miter;stroke:rgb(13.729858%,12.159729%,12.548828%);stroke-opacity:1;stroke-miterlimit:4;" d="M 2622.382812 845 L 2319.882812 1005 " transform="matrix(0.1,0,0,-0.1,0,132)"/>
<path style="fill-rule:nonzero;fill:rgb(56.864929%,56.079102%,56.274414%);fill-opacity:1;stroke-width:10;stroke-linecap:butt;stroke-linejoin:miter;stroke:rgb(13.729858%,12.159729%,12.548828%);stroke-opacity:1;stroke-miterlimit:4;" d="M 2284.882812 1000 L 2054.882812 850 " transform="matrix(0.1,0,0,-0.1,0,132)"/>
<path style=" stroke:none;fill-rule:nonzero;fill:rgb(56.864929%,56.079102%,56.274414%);fill-opacity:1;" d="M 119.988281 5 C 119.988281 6.933594 118.308594 8.5 116.238281 8.5 C 114.167969 8.5 112.488281 6.933594 112.488281 5 C 112.488281 3.066406 114.167969 1.5 116.238281 1.5 C 118.308594 1.5 119.988281 3.066406 119.988281 5 "/>
<g clip-path="url(#clip12)" clip-rule="nonzero">
<path style="fill:none;stroke-width:10;stroke-linecap:butt;stroke-linejoin:miter;stroke:rgb(13.729858%,12.159729%,12.548828%);stroke-opacity:1;stroke-miterlimit:4;" d="M 1199.882812 1270 C 1199.882812 1250.664062 1183.085938 1235 1162.382812 1235 C 1141.679688 1235 1124.882812 1250.664062 1124.882812 1270 C 1124.882812 1289.335938 1141.679688 1305 1162.382812 1305 C 1183.085938 1305 1199.882812 1289.335938 1199.882812 1270 Z M 1199.882812 1270 " transform="matrix(0.1,0,0,-0.1,0,132)"/>
</g>
<path style=" stroke:none;fill-rule:nonzero;fill:rgb(56.864929%,56.079102%,56.274414%);fill-opacity:1;" d="M 178.488281 9 C 178.488281 10.933594 176.808594 12.5 174.738281 12.5 C 172.667969 12.5 170.988281 10.933594 170.988281 9 C 170.988281 7.066406 172.667969 5.5 174.738281 5.5 C 176.808594 5.5 178.488281 7.066406 178.488281 9 "/>
<g clip-path="url(#clip13)" clip-rule="nonzero">
<path style="fill:none;stroke-width:10;stroke-linecap:butt;stroke-linejoin:miter;stroke:rgb(13.729858%,12.159729%,12.548828%);stroke-opacity:1;stroke-miterlimit:4;" d="M 1784.882812 1230 C 1784.882812 1210.664062 1768.085938 1195 1747.382812 1195 C 1726.679688 1195 1709.882812 1210.664062 1709.882812 1230 C 1709.882812 1249.335938 1726.679688 1265 1747.382812 1265 C 1768.085938 1265 1784.882812 1249.335938 1784.882812 1230 Z M 1784.882812 1230 " transform="matrix(0.1,0,0,-0.1,0,132)"/>
</g>
<path style=" stroke:none;fill-rule:nonzero;fill:rgb(56.864929%,56.079102%,56.274414%);fill-opacity:1;" d="M 147.488281 28.5 C 147.488281 30.433594 145.808594 32 143.738281 32 C 141.667969 32 139.988281 30.433594 139.988281 28.5 C 139.988281 26.566406 141.667969 25 143.738281 25 C 145.808594 25 147.488281 26.566406 147.488281 28.5 "/>
<path style="fill:none;stroke-width:10;stroke-linecap:butt;stroke-linejoin:miter;stroke:rgb(13.729858%,12.159729%,12.548828%);stroke-opacity:1;stroke-miterlimit:4;" d="M 1474.882812 1035 C 1474.882812 1015.664062 1458.085938 1000 1437.382812 1000 C 1416.679688 1000 1399.882812 1015.664062 1399.882812 1035 C 1399.882812 1054.335938 1416.679688 1070 1437.382812 1070 C 1458.085938 1070 1474.882812 1054.335938 1474.882812 1035 Z M 1474.882812 1035 " transform="matrix(0.1,0,0,-0.1,0,132)"/>
<path style=" stroke:none;fill-rule:nonzero;fill:rgb(56.864929%,56.079102%,56.274414%);fill-opacity:1;" d="M 118.988281 48.5 C 118.988281 50.433594 117.308594 52 115.238281 52 C 113.167969 52 111.488281 50.433594 111.488281 48.5 C 111.488281 46.566406 113.167969 45 115.238281 45 C 117.308594 45 118.988281 46.566406 118.988281 48.5 "/>
<path style="fill:none;stroke-width:10;stroke-linecap:butt;stroke-linejoin:miter;stroke:rgb(13.729858%,12.159729%,12.548828%);stroke-opacity:1;stroke-miterlimit:4;" d="M 1189.882812 835 C 1189.882812 815.664062 1173.085938 800 1152.382812 800 C 1131.679688 800 1114.882812 815.664062 1114.882812 835 C 1114.882812 854.335938 1131.679688 870 1152.382812 870 C 1173.085938 870 1189.882812 854.335938 1189.882812 835 Z M 1189.882812 835 " transform="matrix(0.1,0,0,-0.1,0,132)"/>
<path style=" stroke:none;fill-rule:nonzero;fill:rgb(56.864929%,56.079102%,56.274414%);fill-opacity:1;" d="M 178.988281 50.5 C 178.988281 52.433594 177.308594 54 175.238281 54 C 173.167969 54 171.488281 52.433594 171.488281 50.5 C 171.488281 48.566406 173.167969 47 175.238281 47 C 177.308594 47 178.988281 48.566406 178.988281 50.5 "/>
<path style="fill:none;stroke-width:10;stroke-linecap:butt;stroke-linejoin:miter;stroke:rgb(13.729858%,12.159729%,12.548828%);stroke-opacity:1;stroke-miterlimit:4;" d="M 1789.882812 815 C 1789.882812 795.664062 1773.085938 780 1752.382812 780 C 1731.679688 780 1714.882812 795.664062 1714.882812 815 C 1714.882812 834.335938 1731.679688 850 1752.382812 850 C 1773.085938 850 1789.882812 834.335938 1789.882812 815 Z M 1789.882812 815 " transform="matrix(0.1,0,0,-0.1,0,132)"/>
<path style="fill-rule:nonzero;fill:rgb(56.864929%,56.079102%,56.274414%);fill-opacity:1;stroke-width:10;stroke-linecap:butt;stroke-linejoin:miter;stroke:rgb(13.729858%,12.159729%,12.548828%);stroke-opacity:1;stroke-miterlimit:4;" d="M 1162.382812 1235 L 1152.382812 870 " transform="matrix(0.1,0,0,-0.1,0,132)"/>
<path style="fill-rule:nonzero;fill:rgb(56.864929%,56.079102%,56.274414%);fill-opacity:1;stroke-width:10;stroke-linecap:butt;stroke-linejoin:miter;stroke:rgb(13.729858%,12.159729%,12.548828%);stroke-opacity:1;stroke-miterlimit:4;" d="M 1719.882812 1195 L 1464.882812 1055 " transform="matrix(0.1,0,0,-0.1,0,132)"/>
<path style="fill-rule:nonzero;fill:rgb(56.864929%,56.079102%,56.274414%);fill-opacity:1;stroke-width:10;stroke-linecap:butt;stroke-linejoin:miter;stroke:rgb(13.729858%,12.159729%,12.548828%);stroke-opacity:1;stroke-miterlimit:4;" d="M 1752.382812 850 L 1449.882812 1010 " transform="matrix(0.1,0,0,-0.1,0,132)"/>
<path style="fill-rule:nonzero;fill:rgb(56.864929%,56.079102%,56.274414%);fill-opacity:1;stroke-width:10;stroke-linecap:butt;stroke-linejoin:miter;stroke:rgb(13.729858%,12.159729%,12.548828%);stroke-opacity:1;stroke-miterlimit:4;" d="M 1414.882812 1005 L 1184.882812 855 " transform="matrix(0.1,0,0,-0.1,0,132)"/>
</g>
</svg>
