<?xml version="1.0" encoding="UTF-8"?>
<svg xmlns="http://www.w3.org/2000/svg" xmlns:xlink="http://www.w3.org/1999/xlink" width="240pt" height="61pt" viewBox="0 0 240 61" version="1.1">
<g id="surface1">
<path style="fill-rule:nonzero;fill:rgb(100%,100%,100%);fill-opacity:1;stroke-width:10;stroke-linecap:butt;stroke-linejoin:miter;stroke:rgb(13.729858%,12.159729%,12.548828%);stroke-opacity:1;stroke-miterlimit:4;" d="M 891.835938 498.164062 C 1049.726562 655.976562 1894.648438 684.648438 1300 90 " transform="matrix(0.1,0,0,-0.1,0,61)"/>
<path style=" stroke:none;fill-rule:nonzero;fill:rgb(100%,100%,100%);fill-opacity:1;" d="M 8.71875 13.789062 C 8.71875 16.039062 6.898438 17.859375 4.648438 17.859375 C 2.402344 17.859375 0.582031 16.039062 0.582031 13.789062 C 0.582031 11.542969 2.402344 9.71875 4.648438 9.71875 C 6.898438 9.71875 8.71875 11.542969 8.71875 13.789062 "/>
<path style="fill:none;stroke-width:10;stroke-linecap:butt;stroke-linejoin:miter;stroke:rgb(13.729858%,12.159729%,12.548828%);stroke-opacity:1;stroke-miterlimit:4;" d="M 87.1875 472.109375 C 87.1875 449.609375 68.984375 431.40625 46.484375 431.40625 C 24.023438 431.40625 5.820312 449.609375 5.820312 472.109375 C 5.820312 494.570312 24.023438 512.8125 46.484375 512.8125 C 68.984375 512.8125 87.1875 494.570312 87.1875 472.109375 Z M 87.1875 472.109375 " transform="matrix(0.1,0,0,-0.1,0,61)"/>
<path style=" stroke:none;fill-rule:nonzero;fill:rgb(100%,100%,100%);fill-opacity:1;" d="M 44.476562 13.789062 C 44.476562 16.035156 42.652344 17.859375 40.40625 17.859375 C 38.160156 17.859375 36.335938 16.035156 36.335938 13.789062 C 36.335938 11.542969 38.160156 9.71875 40.40625 9.71875 C 42.652344 9.71875 44.476562 11.542969 44.476562 13.789062 "/>
<path style="fill:none;stroke-width:10;stroke-linecap:butt;stroke-linejoin:miter;stroke:rgb(13.729858%,12.159729%,12.548828%);stroke-opacity:1;stroke-miterlimit:4;" d="M 444.765625 472.109375 C 444.765625 449.648438 426.523438 431.40625 404.0625 431.40625 C 381.601562 431.40625 363.359375 449.648438 363.359375 472.109375 C 363.359375 494.570312 381.601562 512.8125 404.0625 512.8125 C 426.523438 512.8125 444.765625 494.570312 444.765625 472.109375 Z M 444.765625 472.109375 " transform="matrix(0.1,0,0,-0.1,0,61)"/>
<path style=" stroke:none;fill-rule:nonzero;fill:rgb(100%,100%,100%);fill-opacity:1;" d="M 8.71875 54.925781 C 8.71875 57.171875 6.898438 58.992188 4.648438 58.992188 C 2.402344 58.992188 0.582031 57.171875 0.582031 54.925781 C 0.582031 52.675781 2.402344 50.855469 4.648438 50.855469 C 6.898438 50.855469 8.71875 52.675781 8.71875 54.925781 "/>
<path style="fill:none;stroke-width:10;stroke-linecap:butt;stroke-linejoin:miter;stroke:rgb(13.729858%,12.159729%,12.548828%);stroke-opacity:1;stroke-miterlimit:4;" d="M 87.1875 60.742188 C 87.1875 38.28125 68.984375 20.078125 46.484375 20.078125 C 24.023438 20.078125 5.820312 38.28125 5.820312 60.742188 C 5.820312 83.242188 24.023438 101.445312 46.484375 101.445312 C 68.984375 101.445312 87.1875 83.242188 87.1875 60.742188 Z M 87.1875 60.742188 " transform="matrix(0.1,0,0,-0.1,0,61)"/>
<path style=" stroke:none;fill-rule:nonzero;fill:rgb(100%,100%,100%);fill-opacity:1;" d="M 44.476562 54.921875 C 44.476562 57.171875 42.652344 58.992188 40.40625 58.992188 C 38.160156 58.992188 36.335938 57.171875 36.335938 54.921875 C 36.335938 52.675781 38.160156 50.851562 40.40625 50.851562 C 42.652344 50.851562 44.476562 52.675781 44.476562 54.921875 "/>
<path style="fill:none;stroke-width:10;stroke-linecap:butt;stroke-linejoin:miter;stroke:rgb(13.729858%,12.159729%,12.548828%);stroke-opacity:1;stroke-miterlimit:4;" d="M 444.765625 60.78125 C 444.765625 38.28125 426.523438 20.078125 404.0625 20.078125 C 381.601562 20.078125 363.359375 38.28125 363.359375 60.78125 C 363.359375 83.242188 381.601562 101.484375 404.0625 101.484375 C 426.523438 101.484375 444.765625 83.242188 444.765625 60.78125 Z M 444.765625 60.78125 " transform="matrix(0.1,0,0,-0.1,0,61)"/>
<path style=" stroke:none;fill-rule:nonzero;fill:rgb(100%,100%,100%);fill-opacity:1;" d="M 214 12.5 C 214 14.746094 212.179688 16.570312 209.929688 16.570312 C 207.683594 16.570312 205.859375 14.746094 205.859375 12.5 C 205.859375 10.253906 207.683594 8.429688 209.929688 8.429688 C 212.179688 8.429688 214 10.253906 214 12.5 "/>
<path style="fill:none;stroke-width:10;stroke-linecap:butt;stroke-linejoin:miter;stroke:rgb(13.729858%,12.159729%,12.548828%);stroke-opacity:1;stroke-miterlimit:4;" d="M 2140 485 C 2140 462.539062 2121.796875 444.296875 2099.296875 444.296875 C 2076.835938 444.296875 2058.59375 462.539062 2058.59375 485 C 2058.59375 507.460938 2076.835938 525.703125 2099.296875 525.703125 C 2121.796875 525.703125 2140 507.460938 2140 485 Z M 2140 485 " transform="matrix(0.1,0,0,-0.1,0,61)"/>
<path style=" stroke:none;fill-rule:nonzero;fill:rgb(100%,100%,100%);fill-opacity:1;" d="M 186 55.5 C 186 57.746094 184.179688 59.570312 181.929688 59.570312 C 179.683594 59.570312 177.859375 57.746094 177.859375 55.5 C 177.859375 53.253906 179.683594 51.429688 181.929688 51.429688 C 184.179688 51.429688 186 53.253906 186 55.5 "/>
<path style="fill:none;stroke-width:10;stroke-linecap:butt;stroke-linejoin:miter;stroke:rgb(13.729858%,12.159729%,12.548828%);stroke-opacity:1;stroke-miterlimit:4;" d="M 1860 55 C 1860 32.539062 1841.796875 14.296875 1819.296875 14.296875 C 1796.835938 14.296875 1778.59375 32.539062 1778.59375 55 C 1778.59375 77.460938 1796.835938 95.703125 1819.296875 95.703125 C 1841.796875 95.703125 1860 77.460938 1860 55 Z M 1860 55 " transform="matrix(0.1,0,0,-0.1,0,61)"/>
<path style=" stroke:none;fill-rule:nonzero;fill:rgb(100%,100%,100%);fill-opacity:1;" d="M 239.5 55.5 C 239.5 57.75 237.679688 59.570312 235.429688 59.570312 C 233.183594 59.570312 231.359375 57.75 231.359375 55.5 C 231.359375 53.253906 233.183594 51.429688 235.429688 51.429688 C 237.679688 51.429688 239.5 53.253906 239.5 55.5 "/>
<path style="fill:none;stroke-width:10;stroke-linecap:butt;stroke-linejoin:miter;stroke:rgb(13.729858%,12.159729%,12.548828%);stroke-opacity:1;stroke-miterlimit:4;" d="M 2395 55 C 2395 32.5 2376.796875 14.296875 2354.296875 14.296875 C 2331.835938 14.296875 2313.59375 32.5 2313.59375 55 C 2313.59375 77.460938 2331.835938 95.703125 2354.296875 95.703125 C 2376.796875 95.703125 2395 77.460938 2395 55 Z M 2395 55 " transform="matrix(0.1,0,0,-0.1,0,61)"/>
<path style=" stroke:none;fill-rule:nonzero;fill:rgb(100%,100%,100%);fill-opacity:1;" d="M 214.5 39 C 214.5 41.246094 212.679688 43.070312 210.429688 43.070312 C 208.183594 43.070312 206.359375 41.246094 206.359375 39 C 206.359375 36.753906 208.183594 34.929688 210.429688 34.929688 C 212.679688 34.929688 214.5 36.753906 214.5 39 "/>
<path style="fill:none;stroke-width:10;stroke-linecap:butt;stroke-linejoin:miter;stroke:rgb(13.729858%,12.159729%,12.548828%);stroke-opacity:1;stroke-miterlimit:4;" d="M 2145 220 C 2145 197.539062 2126.796875 179.296875 2104.296875 179.296875 C 2081.835938 179.296875 2063.59375 197.539062 2063.59375 220 C 2063.59375 242.460938 2081.835938 260.703125 2104.296875 260.703125 C 2126.796875 260.703125 2145 242.460938 2145 220 Z M 2145 220 " transform="matrix(0.1,0,0,-0.1,0,61)"/>
<path style="fill-rule:nonzero;fill:rgb(100%,100%,100%);fill-opacity:1;stroke-width:10;stroke-linecap:butt;stroke-linejoin:miter;stroke:rgb(13.729858%,12.159729%,12.548828%);stroke-opacity:1;stroke-miterlimit:4;" d="M 75 435 L 370 85 " transform="matrix(0.1,0,0,-0.1,0,61)"/>
<path style="fill-rule:nonzero;fill:rgb(100%,100%,100%);fill-opacity:1;stroke-width:10;stroke-linecap:butt;stroke-linejoin:miter;stroke:rgb(13.729858%,12.159729%,12.548828%);stroke-opacity:1;stroke-miterlimit:4;" d="M 375 435 L 70 95 " transform="matrix(0.1,0,0,-0.1,0,61)"/>
<path style="fill:none;stroke-width:10;stroke-linecap:butt;stroke-linejoin:miter;stroke:rgb(13.729858%,12.159729%,12.548828%);stroke-opacity:1;stroke-miterlimit:4;" d="M 46.484375 431.40625 L 46.484375 101.445312 " transform="matrix(0.1,0,0,-0.1,0,61)"/>
<path style="fill:none;stroke-width:10;stroke-linecap:butt;stroke-linejoin:miter;stroke:rgb(13.729858%,12.159729%,12.548828%);stroke-opacity:1;stroke-miterlimit:4;" d="M 404.0625 431.40625 L 404.0625 101.484375 " transform="matrix(0.1,0,0,-0.1,0,61)"/>
<path style="fill:none;stroke-width:10;stroke-linecap:butt;stroke-linejoin:miter;stroke:rgb(13.729858%,12.159729%,12.548828%);stroke-opacity:1;stroke-miterlimit:4;" d="M 87.1875 472.109375 L 363.359375 472.109375 " transform="matrix(0.1,0,0,-0.1,0,61)"/>
<path style="fill-rule:nonzero;fill:rgb(100%,100%,100%);fill-opacity:1;stroke-width:10;stroke-linecap:butt;stroke-linejoin:miter;stroke:rgb(13.729858%,12.159729%,12.548828%);stroke-opacity:1;stroke-miterlimit:4;" d="M 87.1875 60.742188 L 363.359375 60.78125 " transform="matrix(0.1,0,0,-0.1,0,61)"/>
<path style=" stroke:none;fill-rule:nonzero;fill:rgb(100%,100%,100%);fill-opacity:1;" d="M 94.71875 13.789062 C 94.71875 16.039062 92.898438 17.859375 90.652344 17.859375 C 88.402344 17.859375 86.582031 16.039062 86.582031 13.789062 C 86.582031 11.542969 88.402344 9.71875 90.652344 9.71875 C 92.898438 9.71875 94.71875 11.542969 94.71875 13.789062 "/>
<path style="fill:none;stroke-width:10;stroke-linecap:butt;stroke-linejoin:miter;stroke:rgb(13.729858%,12.159729%,12.548828%);stroke-opacity:1;stroke-miterlimit:4;" d="M 947.1875 472.109375 C 947.1875 449.609375 928.984375 431.40625 906.523438 431.40625 C 884.023438 431.40625 865.820312 449.609375 865.820312 472.109375 C 865.820312 494.570312 884.023438 512.8125 906.523438 512.8125 C 928.984375 512.8125 947.1875 494.570312 947.1875 472.109375 Z M 947.1875 472.109375 " transform="matrix(0.1,0,0,-0.1,0,61)"/>
<path style=" stroke:none;fill-rule:nonzero;fill:rgb(100%,100%,100%);fill-opacity:1;" d="M 130.476562 13.789062 C 130.476562 16.035156 128.652344 17.859375 126.40625 17.859375 C 124.160156 17.859375 122.335938 16.035156 122.335938 13.789062 C 122.335938 11.542969 124.160156 9.71875 126.40625 9.71875 C 128.652344 9.71875 130.476562 11.542969 130.476562 13.789062 "/>
<path style="fill:none;stroke-width:10;stroke-linecap:butt;stroke-linejoin:miter;stroke:rgb(13.729858%,12.159729%,12.548828%);stroke-opacity:1;stroke-miterlimit:4;" d="M 1304.765625 472.109375 C 1304.765625 449.648438 1286.523438 431.40625 1264.0625 431.40625 C 1241.601562 431.40625 1223.359375 449.648438 1223.359375 472.109375 C 1223.359375 494.570312 1241.601562 512.8125 1264.0625 512.8125 C 1286.523438 512.8125 1304.765625 494.570312 1304.765625 472.109375 Z M 1304.765625 472.109375 " transform="matrix(0.1,0,0,-0.1,0,61)"/>
<path style=" stroke:none;fill-rule:nonzero;fill:rgb(100%,100%,100%);fill-opacity:1;" d="M 94.71875 54.925781 C 94.71875 57.171875 92.898438 58.992188 90.652344 58.992188 C 88.402344 58.992188 86.582031 57.171875 86.582031 54.925781 C 86.582031 52.675781 88.402344 50.855469 90.652344 50.855469 C 92.898438 50.855469 94.71875 52.675781 94.71875 54.925781 "/>
<path style="fill:none;stroke-width:10;stroke-linecap:butt;stroke-linejoin:miter;stroke:rgb(13.729858%,12.159729%,12.548828%);stroke-opacity:1;stroke-miterlimit:4;" d="M 947.1875 60.742188 C 947.1875 38.28125 928.984375 20.078125 906.523438 20.078125 C 884.023438 20.078125 865.820312 38.28125 865.820312 60.742188 C 865.820312 83.242188 884.023438 101.445312 906.523438 101.445312 C 928.984375 101.445312 947.1875 83.242188 947.1875 60.742188 Z M 947.1875 60.742188 " transform="matrix(0.1,0,0,-0.1,0,61)"/>
<path style=" stroke:none;fill-rule:nonzero;fill:rgb(100%,100%,100%);fill-opacity:1;" d="M 130.476562 54.921875 C 130.476562 57.171875 128.652344 58.992188 126.40625 58.992188 C 124.160156 58.992188 122.335938 57.171875 122.335938 54.921875 C 122.335938 52.675781 124.160156 50.851562 126.40625 50.851562 C 128.652344 50.851562 130.476562 52.675781 130.476562 54.921875 "/>
<path style="fill:none;stroke-width:10;stroke-linecap:butt;stroke-linejoin:miter;stroke:rgb(13.729858%,12.159729%,12.548828%);stroke-opacity:1;stroke-miterlimit:4;" d="M 1304.765625 60.78125 C 1304.765625 38.28125 1286.523438 20.078125 1264.0625 20.078125 C 1241.601562 20.078125 1223.359375 38.28125 1223.359375 60.78125 C 1223.359375 83.242188 1241.601562 101.484375 1264.0625 101.484375 C 1286.523438 101.484375 1304.765625 83.242188 1304.765625 60.78125 Z M 1304.765625 60.78125 " transform="matrix(0.1,0,0,-0.1,0,61)"/>
<path style="fill-rule:nonzero;fill:rgb(100%,100%,100%);fill-opacity:1;stroke-width:10;stroke-linecap:butt;stroke-linejoin:miter;stroke:rgb(13.729858%,12.159729%,12.548828%);stroke-opacity:1;stroke-miterlimit:4;" d="M 1235 435 L 930 95 " transform="matrix(0.1,0,0,-0.1,0,61)"/>
<path style="fill:none;stroke-width:10;stroke-linecap:butt;stroke-linejoin:miter;stroke:rgb(13.729858%,12.159729%,12.548828%);stroke-opacity:1;stroke-miterlimit:4;" d="M 906.523438 431.40625 L 906.523438 101.445312 " transform="matrix(0.1,0,0,-0.1,0,61)"/>
<path style="fill:none;stroke-width:10;stroke-linecap:butt;stroke-linejoin:miter;stroke:rgb(13.729858%,12.159729%,12.548828%);stroke-opacity:1;stroke-miterlimit:4;" d="M 1264.0625 431.40625 L 1264.0625 101.484375 " transform="matrix(0.1,0,0,-0.1,0,61)"/>
<path style="fill:none;stroke-width:10;stroke-linecap:butt;stroke-linejoin:miter;stroke:rgb(13.729858%,12.159729%,12.548828%);stroke-opacity:1;stroke-miterlimit:4;" d="M 947.1875 472.109375 L 1223.359375 472.109375 " transform="matrix(0.1,0,0,-0.1,0,61)"/>
<path style="fill-rule:nonzero;fill:rgb(100%,100%,100%);fill-opacity:1;stroke-width:10;stroke-linecap:butt;stroke-linejoin:miter;stroke:rgb(13.729858%,12.159729%,12.548828%);stroke-opacity:1;stroke-miterlimit:4;" d="M 947.1875 60.742188 L 1223.359375 60.78125 " transform="matrix(0.1,0,0,-0.1,0,61)"/>
<path style="fill-rule:nonzero;fill:rgb(100%,100%,100%);fill-opacity:1;stroke-width:10;stroke-linecap:butt;stroke-linejoin:miter;stroke:rgb(13.729858%,12.159729%,12.548828%);stroke-opacity:1;stroke-miterlimit:4;" d="M 2064.921875 449.960938 L 1819.375 95.742188 " transform="matrix(0.1,0,0,-0.1,0,61)"/>
<path style="fill:none;stroke-width:10;stroke-linecap:butt;stroke-linejoin:miter;stroke:rgb(13.729858%,12.159729%,12.548828%);stroke-opacity:1;stroke-miterlimit:4;" d="M 2313.59375 55 L 1865 55 " transform="matrix(0.1,0,0,-0.1,0,61)"/>
<path style="fill-rule:nonzero;fill:rgb(100%,100%,100%);fill-opacity:1;stroke-width:10;stroke-linecap:butt;stroke-linejoin:miter;stroke:rgb(13.729858%,12.159729%,12.548828%);stroke-opacity:1;stroke-miterlimit:4;" d="M 2130 460 L 2354.296875 95.703125 " transform="matrix(0.1,0,0,-0.1,0,61)"/>
<path style="fill-rule:nonzero;fill:rgb(100%,100%,100%);fill-opacity:1;stroke-width:10;stroke-linecap:butt;stroke-linejoin:miter;stroke:rgb(13.729858%,12.159729%,12.548828%);stroke-opacity:1;stroke-miterlimit:4;" d="M 1840.117188 85.195312 L 2064.882812 204.804688 " transform="matrix(0.1,0,0,-0.1,0,61)"/>
<path style="fill:none;stroke-width:10;stroke-linecap:butt;stroke-linejoin:miter;stroke:rgb(13.729858%,12.159729%,12.548828%);stroke-opacity:1;stroke-miterlimit:4;" d="M 2104.296875 260.703125 L 2104.296875 444.296875 " transform="matrix(0.1,0,0,-0.1,0,61)"/>
<path style="fill-rule:nonzero;fill:rgb(100%,100%,100%);fill-opacity:1;stroke-width:10;stroke-linecap:butt;stroke-linejoin:miter;stroke:rgb(13.729858%,12.159729%,12.548828%);stroke-opacity:1;stroke-miterlimit:4;" d="M 2135 195 L 2325 90 " transform="matrix(0.1,0,0,-0.1,0,61)"/>
</g>
</svg>
