<?xml version="1.0" encoding="UTF-8"?>
<svg xmlns="http://www.w3.org/2000/svg" xmlns:xlink="http://www.w3.org/1999/xlink" width="489pt" height="114pt" viewBox="0 0 489 114" version="1.1">
<g id="surface1">
<path style="fill-rule:nonzero;fill:rgb(100%,100%,100%);fill-opacity:1;stroke-width:10;stroke-linecap:butt;stroke-linejoin:miter;stroke:rgb(13.729858%,12.159729%,12.548828%);stroke-opacity:1;stroke-miterlimit:4;" d="M 4582.578125 2703.007812 L 4803.710938 2505.351562 " transform="matrix(0.1,0,0,-0.1,0,278)"/>
<path style="fill-rule:nonzero;fill:rgb(100%,100%,100%);fill-opacity:1;stroke-width:10;stroke-linecap:butt;stroke-linejoin:miter;stroke:rgb(13.729858%,12.159729%,12.548828%);stroke-opacity:1;stroke-miterlimit:4;" d="M 3428.710938 2679.765625 L 3661.289062 2458.828125 " transform="matrix(0.1,0,0,-0.1,0,278)"/>
<path style="fill-rule:nonzero;fill:rgb(100%,100%,100%);fill-opacity:1;stroke-width:10;stroke-linecap:butt;stroke-linejoin:miter;stroke:rgb(13.729858%,12.159729%,12.548828%);stroke-opacity:1;stroke-miterlimit:4;" d="M 103.125 2133.242188 L 533.359375 1714.648438 L 556.640625 2144.882812 " transform="matrix(0.1,0,0,-0.1,0,278)"/>
<path style="fill-rule:nonzero;fill:rgb(100%,100%,100%);fill-opacity:1;stroke-width:10;stroke-linecap:butt;stroke-linejoin:miter;stroke:rgb(13.729858%,12.159729%,12.548828%);stroke-opacity:1;stroke-miterlimit:4;" d="M 56.640625 2551.875 L 858.945312 2365.820312 L 533.359375 1714.648438 " transform="matrix(0.1,0,0,-0.1,0,278)"/>
<path style=" stroke:none;fill-rule:nonzero;fill:rgb(100%,100%,100%);fill-opacity:1;" d="M 10.3125 64.675781 L 7.40625 25.722656 L 62.640625 19.324219 L 85.894531 41.417969 L 55.664062 63.511719 L 10.3125 64.675781 "/>
<path style="fill:none;stroke-width:10;stroke-linecap:butt;stroke-linejoin:miter;stroke:rgb(13.729858%,12.159729%,12.548828%);stroke-opacity:1;stroke-miterlimit:4;" d="M 103.125 2133.242188 L 74.0625 2522.773438 L 626.40625 2586.757812 L 858.945312 2365.820312 L 556.640625 2144.882812 Z M 103.125 2133.242188 " transform="matrix(0.1,0,0,-0.1,0,278)"/>
<path style="fill-rule:nonzero;fill:rgb(100%,100%,100%);fill-opacity:1;stroke-width:10;stroke-linecap:butt;stroke-linejoin:miter;stroke:rgb(13.729858%,12.159729%,12.548828%);stroke-opacity:1;stroke-miterlimit:4;" d="M 626.40625 2586.757812 L 103.125 2133.242188 " transform="matrix(0.1,0,0,-0.1,0,278)"/>
<path style=" stroke:none;fill-rule:nonzero;fill:rgb(100%,100%,100%);fill-opacity:1;" d="M 59.730469 106.535156 C 59.730469 110.066406 56.867188 112.929688 53.335938 112.929688 C 49.804688 112.929688 46.941406 110.066406 46.941406 106.535156 C 46.941406 103.003906 49.804688 100.140625 53.335938 100.140625 C 56.867188 100.140625 59.730469 103.003906 59.730469 106.535156 "/>
<path style="fill:none;stroke-width:10;stroke-linecap:butt;stroke-linejoin:miter;stroke:rgb(13.729858%,12.159729%,12.548828%);stroke-opacity:1;stroke-miterlimit:4;" d="M 597.304688 1714.648438 C 597.304688 1679.335938 568.671875 1650.703125 533.359375 1650.703125 C 498.046875 1650.703125 469.414062 1679.335938 469.414062 1714.648438 C 469.414062 1749.960938 498.046875 1778.59375 533.359375 1778.59375 C 568.671875 1778.59375 597.304688 1749.960938 597.304688 1714.648438 Z M 597.304688 1714.648438 " transform="matrix(0.1,0,0,-0.1,0,278)"/>
<path style="fill-rule:nonzero;fill:rgb(100%,100%,100%);fill-opacity:1;stroke-width:10;stroke-linecap:butt;stroke-linejoin:miter;stroke:rgb(13.729858%,12.159729%,12.548828%);stroke-opacity:1;stroke-miterlimit:4;" d="M 45 2505.351562 L 858.945312 2365.820312 " transform="matrix(0.1,0,0,-0.1,0,278)"/>
<path style=" stroke:none;fill-rule:nonzero;fill:rgb(100%,100%,100%);fill-opacity:1;" d="M 13.800781 25.722656 C 13.800781 29.253906 10.9375 32.117188 7.40625 32.117188 C 3.875 32.117188 1.011719 29.253906 1.011719 25.722656 C 1.011719 22.1875 3.875 19.324219 7.40625 19.324219 C 10.9375 19.324219 13.800781 22.1875 13.800781 25.722656 "/>
<path style="fill:none;stroke-width:10;stroke-linecap:butt;stroke-linejoin:miter;stroke:rgb(13.729858%,12.159729%,12.548828%);stroke-opacity:1;stroke-miterlimit:4;" d="M 138.007812 2522.773438 C 138.007812 2487.460938 109.375 2458.828125 74.0625 2458.828125 C 38.75 2458.828125 10.117188 2487.460938 10.117188 2522.773438 C 10.117188 2558.125 38.75 2586.757812 74.0625 2586.757812 C 109.375 2586.757812 138.007812 2558.125 138.007812 2522.773438 Z M 138.007812 2522.773438 " transform="matrix(0.1,0,0,-0.1,0,278)"/>
<path style=" stroke:none;fill-rule:nonzero;fill:rgb(100%,100%,100%);fill-opacity:1;" d="M 69.035156 19.324219 C 69.035156 22.859375 66.171875 25.722656 62.640625 25.722656 C 59.105469 25.722656 56.242188 22.859375 56.242188 19.324219 C 56.242188 15.792969 59.105469 12.929688 62.640625 12.929688 C 66.171875 12.929688 69.035156 15.792969 69.035156 19.324219 "/>
<path style="fill:none;stroke-width:10;stroke-linecap:butt;stroke-linejoin:miter;stroke:rgb(13.729858%,12.159729%,12.548828%);stroke-opacity:1;stroke-miterlimit:4;" d="M 690.351562 2586.757812 C 690.351562 2551.40625 661.71875 2522.773438 626.40625 2522.773438 C 591.054688 2522.773438 562.421875 2551.40625 562.421875 2586.757812 C 562.421875 2622.070312 591.054688 2650.703125 626.40625 2650.703125 C 661.71875 2650.703125 690.351562 2622.070312 690.351562 2586.757812 Z M 690.351562 2586.757812 " transform="matrix(0.1,0,0,-0.1,0,278)"/>
<path style="fill-rule:nonzero;fill:rgb(100%,100%,100%);fill-opacity:1;stroke-width:10;stroke-linecap:butt;stroke-linejoin:miter;stroke:rgb(13.729858%,12.159729%,12.548828%);stroke-opacity:1;stroke-miterlimit:4;" d="M 556.640625 2144.882812 L 545 1769.53125 " transform="matrix(0.1,0,0,-0.1,0,278)"/>
<path style=" stroke:none;fill-rule:nonzero;fill:rgb(100%,100%,100%);fill-opacity:1;" d="M 62.058594 63.511719 C 62.058594 67.042969 59.195312 69.90625 55.664062 69.90625 C 52.128906 69.90625 49.265625 67.042969 49.265625 63.511719 C 49.265625 59.980469 52.128906 57.117188 55.664062 57.117188 C 59.195312 57.117188 62.058594 59.980469 62.058594 63.511719 "/>
<path style="fill:none;stroke-width:10;stroke-linecap:butt;stroke-linejoin:miter;stroke:rgb(13.729858%,12.159729%,12.548828%);stroke-opacity:1;stroke-miterlimit:4;" d="M 620.585938 2144.882812 C 620.585938 2109.570312 591.953125 2080.9375 556.640625 2080.9375 C 521.289062 2080.9375 492.65625 2109.570312 492.65625 2144.882812 C 492.65625 2180.195312 521.289062 2208.828125 556.640625 2208.828125 C 591.953125 2208.828125 620.585938 2180.195312 620.585938 2144.882812 Z M 620.585938 2144.882812 " transform="matrix(0.1,0,0,-0.1,0,278)"/>
<path style=" stroke:none;fill-rule:nonzero;fill:rgb(100%,100%,100%);fill-opacity:1;" d="M 92.289062 41.417969 C 92.289062 44.949219 89.425781 47.8125 85.894531 47.8125 C 82.363281 47.8125 79.5 44.949219 79.5 41.417969 C 79.5 37.886719 82.363281 35.023438 85.894531 35.023438 C 89.425781 35.023438 92.289062 37.886719 92.289062 41.417969 "/>
<path style="fill:none;stroke-width:10;stroke-linecap:butt;stroke-linejoin:miter;stroke:rgb(13.729858%,12.159729%,12.548828%);stroke-opacity:1;stroke-miterlimit:4;" d="M 922.890625 2365.820312 C 922.890625 2330.507812 894.257812 2301.875 858.945312 2301.875 C 823.632812 2301.875 795 2330.507812 795 2365.820312 C 795 2401.132812 823.632812 2429.765625 858.945312 2429.765625 C 894.257812 2429.765625 922.890625 2401.132812 922.890625 2365.820312 Z M 922.890625 2365.820312 " transform="matrix(0.1,0,0,-0.1,0,278)"/>
<path style=" stroke:none;fill-rule:nonzero;fill:rgb(100%,100%,100%);fill-opacity:1;" d="M 16.710938 64.675781 C 16.710938 68.207031 13.84375 71.070312 10.3125 71.070312 C 6.78125 71.070312 3.917969 68.207031 3.917969 64.675781 C 3.917969 61.140625 6.78125 58.277344 10.3125 58.277344 C 13.84375 58.277344 16.710938 61.140625 16.710938 64.675781 "/>
<path style="fill:none;stroke-width:10;stroke-linecap:butt;stroke-linejoin:miter;stroke:rgb(13.729858%,12.159729%,12.548828%);stroke-opacity:1;stroke-miterlimit:4;" d="M 167.109375 2133.242188 C 167.109375 2097.929688 138.4375 2069.296875 103.125 2069.296875 C 67.8125 2069.296875 39.179688 2097.929688 39.179688 2133.242188 C 39.179688 2168.59375 67.8125 2197.226562 103.125 2197.226562 C 138.4375 2197.226562 167.109375 2168.59375 167.109375 2133.242188 Z M 167.109375 2133.242188 " transform="matrix(0.1,0,0,-0.1,0,278)"/>
<path style="fill-rule:nonzero;fill:rgb(100%,100%,100%);fill-opacity:1;stroke-width:10;stroke-linecap:butt;stroke-linejoin:miter;stroke:rgb(13.729858%,12.159729%,12.548828%);stroke-opacity:1;stroke-miterlimit:4;" d="M 1475.234375 2214.648438 L 1905.46875 1796.054688 L 1928.710938 2226.289062 " transform="matrix(0.1,0,0,-0.1,0,278)"/>
<path style="fill-rule:nonzero;fill:rgb(100%,100%,100%);fill-opacity:1;stroke-width:10;stroke-linecap:butt;stroke-linejoin:miter;stroke:rgb(13.729858%,12.159729%,12.548828%);stroke-opacity:1;stroke-miterlimit:4;" d="M 1428.710938 2633.242188 L 2231.054688 2447.226562 L 1905.46875 1796.054688 " transform="matrix(0.1,0,0,-0.1,0,278)"/>
<path style="fill-rule:nonzero;fill:rgb(100%,100%,100%);fill-opacity:1;stroke-width:10;stroke-linecap:butt;stroke-linejoin:miter;stroke:rgb(13.729858%,12.159729%,12.548828%);stroke-opacity:1;stroke-miterlimit:4;" d="M 1998.476562 2668.125 L 1475.234375 2214.648438 " transform="matrix(0.1,0,0,-0.1,0,278)"/>
<path style=" stroke:none;fill-rule:nonzero;fill:rgb(100%,100%,100%);fill-opacity:1;" d="M 196.941406 98.394531 C 196.941406 101.925781 194.078125 104.789062 190.546875 104.789062 C 187.011719 104.789062 184.148438 101.925781 184.148438 98.394531 C 184.148438 94.863281 187.011719 92 190.546875 92 C 194.078125 92 196.941406 94.863281 196.941406 98.394531 "/>
<path style="fill:none;stroke-width:10;stroke-linecap:butt;stroke-linejoin:miter;stroke:rgb(13.729858%,12.159729%,12.548828%);stroke-opacity:1;stroke-miterlimit:4;" d="M 1969.414062 1796.054688 C 1969.414062 1760.742188 1940.78125 1732.109375 1905.46875 1732.109375 C 1870.117188 1732.109375 1841.484375 1760.742188 1841.484375 1796.054688 C 1841.484375 1831.367188 1870.117188 1860 1905.46875 1860 C 1940.78125 1860 1969.414062 1831.367188 1969.414062 1796.054688 Z M 1969.414062 1796.054688 " transform="matrix(0.1,0,0,-0.1,0,278)"/>
<path style=" stroke:none;fill-rule:nonzero;fill:rgb(100%,100%,100%);fill-opacity:1;" d="M 151.011719 17.582031 C 151.011719 21.113281 148.148438 23.976562 144.617188 23.976562 C 141.085938 23.976562 138.21875 21.113281 138.21875 17.582031 C 138.21875 14.050781 141.085938 11.1875 144.617188 11.1875 C 148.148438 11.1875 151.011719 14.050781 151.011719 17.582031 "/>
<path style="fill:none;stroke-width:10;stroke-linecap:butt;stroke-linejoin:miter;stroke:rgb(13.729858%,12.159729%,12.548828%);stroke-opacity:1;stroke-miterlimit:4;" d="M 1510.117188 2604.179688 C 1510.117188 2568.867188 1481.484375 2540.234375 1446.171875 2540.234375 C 1410.859375 2540.234375 1382.1875 2568.867188 1382.1875 2604.179688 C 1382.1875 2639.492188 1410.859375 2668.125 1446.171875 2668.125 C 1481.484375 2668.125 1510.117188 2639.492188 1510.117188 2604.179688 Z M 1510.117188 2604.179688 " transform="matrix(0.1,0,0,-0.1,0,278)"/>
<path style=" stroke:none;fill-rule:nonzero;fill:rgb(100%,100%,100%);fill-opacity:1;" d="M 206.242188 11.1875 C 206.242188 14.71875 203.378906 17.582031 199.847656 17.582031 C 196.316406 17.582031 193.453125 14.71875 193.453125 11.1875 C 193.453125 7.652344 196.316406 4.789062 199.847656 4.789062 C 203.378906 4.789062 206.242188 7.652344 206.242188 11.1875 "/>
<path style="fill:none;stroke-width:10;stroke-linecap:butt;stroke-linejoin:miter;stroke:rgb(13.729858%,12.159729%,12.548828%);stroke-opacity:1;stroke-miterlimit:4;" d="M 2062.421875 2668.125 C 2062.421875 2632.8125 2033.789062 2604.179688 1998.476562 2604.179688 C 1963.164062 2604.179688 1934.53125 2632.8125 1934.53125 2668.125 C 1934.53125 2703.476562 1963.164062 2732.109375 1998.476562 2732.109375 C 2033.789062 2732.109375 2062.421875 2703.476562 2062.421875 2668.125 Z M 2062.421875 2668.125 " transform="matrix(0.1,0,0,-0.1,0,278)"/>
<path style="fill-rule:nonzero;fill:rgb(100%,100%,100%);fill-opacity:1;stroke-width:10;stroke-linecap:butt;stroke-linejoin:miter;stroke:rgb(13.729858%,12.159729%,12.548828%);stroke-opacity:1;stroke-miterlimit:4;" d="M 1928.710938 2226.289062 L 1917.109375 1850.9375 " transform="matrix(0.1,0,0,-0.1,0,278)"/>
<path style=" stroke:none;fill-rule:nonzero;fill:rgb(100%,100%,100%);fill-opacity:1;" d="M 199.265625 55.371094 C 199.265625 58.902344 196.402344 61.765625 192.871094 61.765625 C 189.339844 61.765625 186.476562 58.902344 186.476562 55.371094 C 186.476562 51.839844 189.339844 48.976562 192.871094 48.976562 C 196.402344 48.976562 199.265625 51.839844 199.265625 55.371094 "/>
<path style="fill:none;stroke-width:10;stroke-linecap:butt;stroke-linejoin:miter;stroke:rgb(13.729858%,12.159729%,12.548828%);stroke-opacity:1;stroke-miterlimit:4;" d="M 1992.65625 2226.289062 C 1992.65625 2190.976562 1964.023438 2162.34375 1928.710938 2162.34375 C 1893.398438 2162.34375 1864.765625 2190.976562 1864.765625 2226.289062 C 1864.765625 2261.601562 1893.398438 2290.234375 1928.710938 2290.234375 C 1964.023438 2290.234375 1992.65625 2261.601562 1992.65625 2226.289062 Z M 1992.65625 2226.289062 " transform="matrix(0.1,0,0,-0.1,0,278)"/>
<path style=" stroke:none;fill-rule:nonzero;fill:rgb(100%,100%,100%);fill-opacity:1;" d="M 229.5 33.277344 C 229.5 36.8125 226.636719 39.675781 223.105469 39.675781 C 219.570312 39.675781 216.707031 36.8125 216.707031 33.277344 C 216.707031 29.746094 219.570312 26.882812 223.105469 26.882812 C 226.636719 26.882812 229.5 29.746094 229.5 33.277344 "/>
<path style="fill:none;stroke-width:10;stroke-linecap:butt;stroke-linejoin:miter;stroke:rgb(13.729858%,12.159729%,12.548828%);stroke-opacity:1;stroke-miterlimit:4;" d="M 2295 2447.226562 C 2295 2411.875 2266.367188 2383.242188 2231.054688 2383.242188 C 2195.703125 2383.242188 2167.070312 2411.875 2167.070312 2447.226562 C 2167.070312 2482.539062 2195.703125 2511.171875 2231.054688 2511.171875 C 2266.367188 2511.171875 2295 2482.539062 2295 2447.226562 Z M 2295 2447.226562 " transform="matrix(0.1,0,0,-0.1,0,278)"/>
<path style=" stroke:none;fill-rule:nonzero;fill:rgb(100%,100%,100%);fill-opacity:1;" d="M 153.917969 56.535156 C 153.917969 60.066406 151.054688 62.929688 147.523438 62.929688 C 143.988281 62.929688 141.128906 60.066406 141.128906 56.535156 C 141.128906 53.003906 143.988281 50.140625 147.523438 50.140625 C 151.054688 50.140625 153.917969 53.003906 153.917969 56.535156 "/>
<path style="fill:none;stroke-width:10;stroke-linecap:butt;stroke-linejoin:miter;stroke:rgb(13.729858%,12.159729%,12.548828%);stroke-opacity:1;stroke-miterlimit:4;" d="M 1539.179688 2214.648438 C 1539.179688 2179.335938 1510.546875 2150.703125 1475.234375 2150.703125 C 1439.882812 2150.703125 1411.289062 2179.335938 1411.289062 2214.648438 C 1411.289062 2249.960938 1439.882812 2278.59375 1475.234375 2278.59375 C 1510.546875 2278.59375 1539.179688 2249.960938 1539.179688 2214.648438 Z M 1539.179688 2214.648438 " transform="matrix(0.1,0,0,-0.1,0,278)"/>
<path style="fill-rule:nonzero;fill:rgb(100%,100%,100%);fill-opacity:1;stroke-width:10;stroke-linecap:butt;stroke-linejoin:miter;stroke:rgb(13.729858%,12.159729%,12.548828%);stroke-opacity:1;stroke-miterlimit:4;" d="M 2905.46875 2226.289062 L 3335.703125 1807.65625 L 3358.945312 2237.890625 " transform="matrix(0.1,0,0,-0.1,0,278)"/>
<path style="fill-rule:nonzero;fill:rgb(100%,100%,100%);fill-opacity:1;stroke-width:10;stroke-linecap:butt;stroke-linejoin:miter;stroke:rgb(13.729858%,12.159729%,12.548828%);stroke-opacity:1;stroke-miterlimit:4;" d="M 3428.710938 2679.765625 L 2905.46875 2226.289062 " transform="matrix(0.1,0,0,-0.1,0,278)"/>
<path style=" stroke:none;fill-rule:nonzero;fill:rgb(100%,100%,100%);fill-opacity:1;" d="M 338.964844 96.234375 C 338.964844 99.765625 336.101562 102.628906 332.570312 102.628906 C 329.035156 102.628906 326.171875 99.765625 326.171875 96.234375 C 326.171875 92.699219 329.035156 89.835938 332.570312 89.835938 C 336.101562 89.835938 338.964844 92.699219 338.964844 96.234375 "/>
<path style="fill:none;stroke-width:10;stroke-linecap:butt;stroke-linejoin:miter;stroke:rgb(13.729858%,12.159729%,12.548828%);stroke-opacity:1;stroke-miterlimit:4;" d="M 3389.648438 1817.65625 C 3389.648438 1782.34375 3361.015625 1753.710938 3325.703125 1753.710938 C 3290.351562 1753.710938 3261.71875 1782.34375 3261.71875 1817.65625 C 3261.71875 1853.007812 3290.351562 1881.640625 3325.703125 1881.640625 C 3361.015625 1881.640625 3389.648438 1853.007812 3389.648438 1817.65625 Z M 3389.648438 1817.65625 " transform="matrix(0.1,0,0,-0.1,0,278)"/>
<path style="fill-rule:nonzero;fill:rgb(100%,100%,100%);fill-opacity:1;stroke-width:10;stroke-linecap:butt;stroke-linejoin:miter;stroke:rgb(13.729858%,12.159729%,12.548828%);stroke-opacity:1;stroke-miterlimit:4;" d="M 2847.304688 2598.359375 L 3661.289062 2458.828125 " transform="matrix(0.1,0,0,-0.1,0,278)"/>
<path style=" stroke:none;fill-rule:nonzero;fill:rgb(100%,100%,100%);fill-opacity:1;" d="M 294.035156 16.417969 C 294.035156 19.949219 291.171875 22.8125 287.640625 22.8125 C 284.105469 22.8125 281.242188 19.949219 281.242188 16.417969 C 281.242188 12.886719 284.105469 10.023438 287.640625 10.023438 C 291.171875 10.023438 294.035156 12.886719 294.035156 16.417969 "/>
<path style="fill:none;stroke-width:10;stroke-linecap:butt;stroke-linejoin:miter;stroke:rgb(13.729858%,12.159729%,12.548828%);stroke-opacity:1;stroke-miterlimit:4;" d="M 2940.351562 2615.820312 C 2940.351562 2580.507812 2911.71875 2551.875 2876.40625 2551.875 C 2841.054688 2551.875 2812.421875 2580.507812 2812.421875 2615.820312 C 2812.421875 2651.132812 2841.054688 2679.765625 2876.40625 2679.765625 C 2911.71875 2679.765625 2940.351562 2651.132812 2940.351562 2615.820312 Z M 2940.351562 2615.820312 " transform="matrix(0.1,0,0,-0.1,0,278)"/>
<path style=" stroke:none;fill-rule:nonzero;fill:rgb(100%,100%,100%);fill-opacity:1;" d="M 349.265625 10.023438 C 349.265625 13.554688 346.402344 16.417969 342.871094 16.417969 C 339.339844 16.417969 336.476562 13.554688 336.476562 10.023438 C 336.476562 6.492188 339.339844 3.628906 342.871094 3.628906 C 346.402344 3.628906 349.265625 6.492188 349.265625 10.023438 "/>
<path style="fill:none;stroke-width:10;stroke-linecap:butt;stroke-linejoin:miter;stroke:rgb(13.729858%,12.159729%,12.548828%);stroke-opacity:1;stroke-miterlimit:4;" d="M 3492.65625 2679.765625 C 3492.65625 2644.453125 3464.023438 2615.820312 3428.710938 2615.820312 C 3393.398438 2615.820312 3364.765625 2644.453125 3364.765625 2679.765625 C 3364.765625 2715.078125 3393.398438 2743.710938 3428.710938 2743.710938 C 3464.023438 2743.710938 3492.65625 2715.078125 3492.65625 2679.765625 Z M 3492.65625 2679.765625 " transform="matrix(0.1,0,0,-0.1,0,278)"/>
<path style=" stroke:none;fill-rule:nonzero;fill:rgb(100%,100%,100%);fill-opacity:1;" d="M 342.289062 54.210938 C 342.289062 57.742188 339.425781 60.605469 335.894531 60.605469 C 332.363281 60.605469 329.5 57.742188 329.5 54.210938 C 329.5 50.675781 332.363281 47.8125 335.894531 47.8125 C 339.425781 47.8125 342.289062 50.675781 342.289062 54.210938 "/>
<path style="fill:none;stroke-width:10;stroke-linecap:butt;stroke-linejoin:miter;stroke:rgb(13.729858%,12.159729%,12.548828%);stroke-opacity:1;stroke-miterlimit:4;" d="M 3422.890625 2237.890625 C 3422.890625 2202.578125 3394.257812 2173.945312 3358.945312 2173.945312 C 3323.632812 2173.945312 3295 2202.578125 3295 2237.890625 C 3295 2273.242188 3323.632812 2301.875 3358.945312 2301.875 C 3394.257812 2301.875 3422.890625 2273.242188 3422.890625 2237.890625 Z M 3422.890625 2237.890625 " transform="matrix(0.1,0,0,-0.1,0,278)"/>
<path style=" stroke:none;fill-rule:nonzero;fill:rgb(100%,100%,100%);fill-opacity:1;" d="M 372.523438 32.117188 C 372.523438 35.648438 369.660156 38.511719 366.128906 38.511719 C 362.59375 38.511719 359.730469 35.648438 359.730469 32.117188 C 359.730469 28.585938 362.59375 25.722656 366.128906 25.722656 C 369.660156 25.722656 372.523438 28.585938 372.523438 32.117188 "/>
<path style="fill:none;stroke-width:10;stroke-linecap:butt;stroke-linejoin:miter;stroke:rgb(13.729858%,12.159729%,12.548828%);stroke-opacity:1;stroke-miterlimit:4;" d="M 3725.234375 2458.828125 C 3725.234375 2423.515625 3696.601562 2394.882812 3661.289062 2394.882812 C 3625.9375 2394.882812 3597.304688 2423.515625 3597.304688 2458.828125 C 3597.304688 2494.140625 3625.9375 2522.773438 3661.289062 2522.773438 C 3696.601562 2522.773438 3725.234375 2494.140625 3725.234375 2458.828125 Z M 3725.234375 2458.828125 " transform="matrix(0.1,0,0,-0.1,0,278)"/>
<path style=" stroke:none;fill-rule:nonzero;fill:rgb(100%,100%,100%);fill-opacity:1;" d="M 296.941406 55.371094 C 296.941406 58.902344 294.078125 61.769531 290.546875 61.769531 C 287.011719 61.769531 284.148438 58.902344 284.148438 55.371094 C 284.148438 51.839844 287.011719 48.976562 290.546875 48.976562 C 294.078125 48.976562 296.941406 51.839844 296.941406 55.371094 "/>
<path style="fill:none;stroke-width:10;stroke-linecap:butt;stroke-linejoin:miter;stroke:rgb(13.729858%,12.159729%,12.548828%);stroke-opacity:1;stroke-miterlimit:4;" d="M 2969.414062 2226.289062 C 2969.414062 2190.976562 2940.78125 2162.304688 2905.46875 2162.304688 C 2870.117188 2162.304688 2841.484375 2190.976562 2841.484375 2226.289062 C 2841.484375 2261.601562 2870.117188 2290.234375 2905.46875 2290.234375 C 2940.78125 2290.234375 2969.414062 2261.601562 2969.414062 2226.289062 Z M 2969.414062 2226.289062 " transform="matrix(0.1,0,0,-0.1,0,278)"/>
<path style="fill-rule:nonzero;fill:rgb(100%,100%,100%);fill-opacity:1;stroke-width:10;stroke-linecap:butt;stroke-linejoin:miter;stroke:rgb(13.729858%,12.159729%,12.548828%);stroke-opacity:1;stroke-miterlimit:4;" d="M 4059.296875 2249.53125 L 4489.53125 1830.9375 L 4512.773438 2261.171875 " transform="matrix(0.1,0,0,-0.1,0,278)"/>
<path style=" stroke:none;fill-rule:nonzero;fill:rgb(100%,100%,100%);fill-opacity:1;" d="M 455.347656 94.90625 C 455.347656 98.4375 452.484375 101.300781 448.953125 101.300781 C 445.421875 101.300781 442.558594 98.4375 442.558594 94.90625 C 442.558594 91.375 445.421875 88.511719 448.953125 88.511719 C 452.484375 88.511719 455.347656 91.375 455.347656 94.90625 "/>
<path style="fill:none;stroke-width:10;stroke-linecap:butt;stroke-linejoin:miter;stroke:rgb(13.729858%,12.159729%,12.548828%);stroke-opacity:1;stroke-miterlimit:4;" d="M 4553.476562 1830.9375 C 4553.476562 1795.625 4524.84375 1766.992188 4489.53125 1766.992188 C 4454.21875 1766.992188 4425.585938 1795.625 4425.585938 1830.9375 C 4425.585938 1866.25 4454.21875 1894.882812 4489.53125 1894.882812 C 4524.84375 1894.882812 4553.476562 1866.25 4553.476562 1830.9375 Z M 4553.476562 1830.9375 " transform="matrix(0.1,0,0,-0.1,0,278)"/>
<path style=" stroke:none;fill-rule:nonzero;fill:rgb(100%,100%,100%);fill-opacity:1;" d="M 409.417969 14.09375 C 409.417969 17.625 406.554688 20.488281 403.023438 20.488281 C 399.492188 20.488281 396.628906 17.625 396.628906 14.09375 C 396.628906 10.5625 399.492188 7.699219 403.023438 7.699219 C 406.554688 7.699219 409.417969 10.5625 409.417969 14.09375 "/>
<path style="fill:none;stroke-width:10;stroke-linecap:butt;stroke-linejoin:miter;stroke:rgb(13.729858%,12.159729%,12.548828%);stroke-opacity:1;stroke-miterlimit:4;" d="M 4094.179688 2639.0625 C 4094.179688 2603.75 4065.546875 2575.117188 4030.234375 2575.117188 C 3994.921875 2575.117188 3966.289062 2603.75 3966.289062 2639.0625 C 3966.289062 2674.375 3994.921875 2703.007812 4030.234375 2703.007812 C 4065.546875 2703.007812 4094.179688 2674.375 4094.179688 2639.0625 Z M 4094.179688 2639.0625 " transform="matrix(0.1,0,0,-0.1,0,278)"/>
<path style=" stroke:none;fill-rule:nonzero;fill:rgb(100%,100%,100%);fill-opacity:1;" d="M 464.652344 7.699219 C 464.652344 11.230469 461.789062 14.09375 458.257812 14.09375 C 454.722656 14.09375 451.859375 11.230469 451.859375 7.699219 C 451.859375 4.164062 454.722656 1.300781 458.257812 1.300781 C 461.789062 1.300781 464.652344 4.164062 464.652344 7.699219 "/>
<path style="fill:none;stroke-width:10;stroke-linecap:butt;stroke-linejoin:miter;stroke:rgb(13.729858%,12.159729%,12.548828%);stroke-opacity:1;stroke-miterlimit:4;" d="M 4646.523438 2703.007812 C 4646.523438 2667.695312 4617.890625 2639.0625 4582.578125 2639.0625 C 4547.226562 2639.0625 4518.59375 2667.695312 4518.59375 2703.007812 C 4518.59375 2738.359375 4547.226562 2766.992188 4582.578125 2766.992188 C 4617.890625 2766.992188 4646.523438 2738.359375 4646.523438 2703.007812 Z M 4646.523438 2703.007812 " transform="matrix(0.1,0,0,-0.1,0,278)"/>
<path style=" stroke:none;fill-rule:nonzero;fill:rgb(100%,100%,100%);fill-opacity:1;" d="M 457.675781 51.882812 C 457.675781 55.414062 454.8125 58.277344 451.277344 58.277344 C 447.746094 58.277344 444.882812 55.414062 444.882812 51.882812 C 444.882812 48.351562 447.746094 45.488281 451.277344 45.488281 C 454.8125 45.488281 457.675781 48.351562 457.675781 51.882812 "/>
<path style="fill:none;stroke-width:10;stroke-linecap:butt;stroke-linejoin:miter;stroke:rgb(13.729858%,12.159729%,12.548828%);stroke-opacity:1;stroke-miterlimit:4;" d="M 4576.757812 2261.171875 C 4576.757812 2225.859375 4548.125 2197.226562 4512.773438 2197.226562 C 4477.460938 2197.226562 4448.828125 2225.859375 4448.828125 2261.171875 C 4448.828125 2296.484375 4477.460938 2325.117188 4512.773438 2325.117188 C 4548.125 2325.117188 4576.757812 2296.484375 4576.757812 2261.171875 Z M 4576.757812 2261.171875 " transform="matrix(0.1,0,0,-0.1,0,278)"/>
<path style=" stroke:none;fill-rule:nonzero;fill:rgb(100%,100%,100%);fill-opacity:1;" d="M 487.90625 29.789062 C 487.90625 33.324219 485.042969 36.1875 481.511719 36.1875 C 477.980469 36.1875 475.117188 33.324219 475.117188 29.789062 C 475.117188 26.257812 477.980469 23.394531 481.511719 23.394531 C 485.042969 23.394531 487.90625 26.257812 487.90625 29.789062 "/>
<path style="fill:none;stroke-width:10;stroke-linecap:butt;stroke-linejoin:miter;stroke:rgb(13.729858%,12.159729%,12.548828%);stroke-opacity:1;stroke-miterlimit:4;" d="M 4879.0625 2482.109375 C 4879.0625 2446.757812 4850.429688 2418.125 4815.117188 2418.125 C 4779.804688 2418.125 4751.171875 2446.757812 4751.171875 2482.109375 C 4751.171875 2517.421875 4779.804688 2546.054688 4815.117188 2546.054688 C 4850.429688 2546.054688 4879.0625 2517.421875 4879.0625 2482.109375 Z M 4879.0625 2482.109375 " transform="matrix(0.1,0,0,-0.1,0,278)"/>
<path style=" stroke:none;fill-rule:nonzero;fill:rgb(100%,100%,100%);fill-opacity:1;" d="M 412.324219 53.046875 C 412.324219 56.578125 409.460938 59.441406 405.929688 59.441406 C 402.398438 59.441406 399.535156 56.578125 399.535156 53.046875 C 399.535156 49.515625 402.398438 46.652344 405.929688 46.652344 C 409.460938 46.652344 412.324219 49.515625 412.324219 53.046875 "/>
<path style="fill:none;stroke-width:10;stroke-linecap:butt;stroke-linejoin:miter;stroke:rgb(13.729858%,12.159729%,12.548828%);stroke-opacity:1;stroke-miterlimit:4;" d="M 4123.242188 2249.53125 C 4123.242188 2214.21875 4094.609375 2185.585938 4059.296875 2185.585938 C 4023.984375 2185.585938 3995.351562 2214.21875 3995.351562 2249.53125 C 3995.351562 2284.84375 4023.984375 2313.476562 4059.296875 2313.476562 C 4094.609375 2313.476562 4123.242188 2284.84375 4123.242188 2249.53125 Z M 4123.242188 2249.53125 " transform="matrix(0.1,0,0,-0.1,0,278)"/>
<path style="fill-rule:nonzero;fill:rgb(100%,100%,100%);fill-opacity:1;stroke-width:10;stroke-linecap:butt;stroke-linejoin:miter;stroke:rgb(13.729858%,12.159729%,12.548828%);stroke-opacity:1;stroke-miterlimit:4;" d="M 4815.117188 2418.125 L 4540 1855 " transform="matrix(0.1,0,0,-0.1,0,278)"/>
<path style="fill-rule:nonzero;fill:rgb(100%,100%,100%);fill-opacity:1;stroke-width:10;stroke-linecap:butt;stroke-linejoin:miter;stroke:rgb(13.729858%,12.159729%,12.548828%);stroke-opacity:1;stroke-miterlimit:4;" d="M 4030.234375 2575.117188 L 4059.296875 2313.476562 " transform="matrix(0.1,0,0,-0.1,0,278)"/>
</g>
</svg>
