<?xml version="1.0" encoding="UTF-8"?>
<svg xmlns="http://www.w3.org/2000/svg" xmlns:xlink="http://www.w3.org/1999/xlink" width="299pt" height="58pt" viewBox="0 0 299 58" version="1.1">
<defs>
<clipPath id="clip1">
  <path d="M 0 0.5 L 15 0.5 L 15 14 L 0 14 Z M 0 0.5 "/>
</clipPath>
<clipPath id="clip2">
  <path d="M 54 0.5 L 74 0.5 L 74 18 L 54 18 Z M 54 0.5 "/>
</clipPath>
<clipPath id="clip3">
  <path d="M 0 38 L 14 38 L 14 57 L 0 57 Z M 0 38 "/>
</clipPath>
<clipPath id="clip4">
  <path d="M 54 40 L 74 40 L 74 57 L 54 57 Z M 54 40 "/>
</clipPath>
<clipPath id="clip5">
  <path d="M 3 0.5 L 66 0.5 L 66 15 L 3 15 Z M 3 0.5 "/>
</clipPath>
<clipPath id="clip6">
  <path d="M 117 0.5 L 137 0.5 L 137 16 L 117 16 Z M 117 0.5 "/>
</clipPath>
<clipPath id="clip7">
  <path d="M 176 0.5 L 196 0.5 L 196 20 L 176 20 Z M 176 0.5 "/>
</clipPath>
<clipPath id="clip8">
  <path d="M 116 40 L 136 40 L 136 57 L 116 57 Z M 116 40 "/>
</clipPath>
<clipPath id="clip9">
  <path d="M 176 42 L 196 42 L 196 57 L 176 57 Z M 176 42 "/>
</clipPath>
<clipPath id="clip10">
  <path d="M 226 0.5 L 246 0.5 L 246 17 L 226 17 Z M 226 0.5 "/>
</clipPath>
<clipPath id="clip11">
  <path d="M 284 2 L 298.976562 2 L 298.976562 21 L 284 21 Z M 284 2 "/>
</clipPath>
<clipPath id="clip12">
  <path d="M 225 41 L 245 41 L 245 57 L 225 57 Z M 225 41 "/>
</clipPath>
<clipPath id="clip13">
  <path d="M 290 49 L 298.976562 49 L 298.976562 57 L 290 57 Z M 290 49 "/>
</clipPath>
<clipPath id="clip14">
  <path d="M 285 43 L 298.976562 43 L 298.976562 57 L 285 57 Z M 285 43 "/>
</clipPath>
<clipPath id="clip15">
  <path d="M 258 27 L 298.976562 27 L 298.976562 56 L 258 56 Z M 258 27 "/>
</clipPath>
</defs>
<g id="surface1">
<path style=" stroke:none;fill-rule:nonzero;fill:rgb(56.864929%,56.079102%,56.274414%);fill-opacity:1;" d="M 8.988281 4.5 C 8.988281 6.433594 7.308594 8 5.238281 8 C 3.167969 8 1.488281 6.433594 1.488281 4.5 C 1.488281 2.566406 3.167969 1 5.238281 1 C 7.308594 1 8.988281 2.566406 8.988281 4.5 "/>
<g clip-path="url(#clip1)" clip-rule="nonzero">
<path style="fill:none;stroke-width:10;stroke-linecap:butt;stroke-linejoin:miter;stroke:rgb(13.729858%,12.159729%,12.548828%);stroke-opacity:1;stroke-miterlimit:4;" d="M 89.882812 525 C 89.882812 505.664062 73.085938 490 52.382812 490 C 31.679688 490 14.882812 505.664062 14.882812 525 C 14.882812 544.335938 31.679688 560 52.382812 560 C 73.085938 560 89.882812 544.335938 89.882812 525 Z M 89.882812 525 " transform="matrix(0.1,0,0,-0.1,0,57)"/>
</g>
<path style=" stroke:none;fill-rule:nonzero;fill:rgb(56.864929%,56.079102%,56.274414%);fill-opacity:1;" d="M 67.488281 8.5 C 67.488281 10.433594 65.808594 12 63.738281 12 C 61.667969 12 59.988281 10.433594 59.988281 8.5 C 59.988281 6.566406 61.667969 5 63.738281 5 C 65.808594 5 67.488281 6.566406 67.488281 8.5 "/>
<g clip-path="url(#clip2)" clip-rule="nonzero">
<path style="fill:none;stroke-width:10;stroke-linecap:butt;stroke-linejoin:miter;stroke:rgb(13.729858%,12.159729%,12.548828%);stroke-opacity:1;stroke-miterlimit:4;" d="M 674.882812 485 C 674.882812 465.664062 658.085938 450 637.382812 450 C 616.679688 450 599.882812 465.664062 599.882812 485 C 599.882812 504.335938 616.679688 520 637.382812 520 C 658.085938 520 674.882812 504.335938 674.882812 485 Z M 674.882812 485 " transform="matrix(0.1,0,0,-0.1,0,57)"/>
</g>
<path style=" stroke:none;fill-rule:nonzero;fill:rgb(56.864929%,56.079102%,56.274414%);fill-opacity:1;" d="M 36.488281 28 C 36.488281 29.933594 34.808594 31.5 32.738281 31.5 C 30.667969 31.5 28.988281 29.933594 28.988281 28 C 28.988281 26.066406 30.667969 24.5 32.738281 24.5 C 34.808594 24.5 36.488281 26.066406 36.488281 28 "/>
<path style="fill:none;stroke-width:10;stroke-linecap:butt;stroke-linejoin:miter;stroke:rgb(13.729858%,12.159729%,12.548828%);stroke-opacity:1;stroke-miterlimit:4;" d="M 364.882812 290 C 364.882812 270.664062 348.085938 255 327.382812 255 C 306.679688 255 289.882812 270.664062 289.882812 290 C 289.882812 309.335938 306.679688 325 327.382812 325 C 348.085938 325 364.882812 309.335938 364.882812 290 Z M 364.882812 290 " transform="matrix(0.1,0,0,-0.1,0,57)"/>
<path style=" stroke:none;fill-rule:nonzero;fill:rgb(56.864929%,56.079102%,56.274414%);fill-opacity:1;" d="M 7.988281 48 C 7.988281 49.933594 6.308594 51.5 4.238281 51.5 C 2.167969 51.5 0.488281 49.933594 0.488281 48 C 0.488281 46.066406 2.167969 44.5 4.238281 44.5 C 6.308594 44.5 7.988281 46.066406 7.988281 48 "/>
<g clip-path="url(#clip3)" clip-rule="nonzero">
<path style="fill:none;stroke-width:10;stroke-linecap:butt;stroke-linejoin:miter;stroke:rgb(13.729858%,12.159729%,12.548828%);stroke-opacity:1;stroke-miterlimit:4;" d="M 79.882812 90 C 79.882812 70.664062 63.085938 55 42.382812 55 C 21.679688 55 4.882812 70.664062 4.882812 90 C 4.882812 109.335938 21.679688 125 42.382812 125 C 63.085938 125 79.882812 109.335938 79.882812 90 Z M 79.882812 90 " transform="matrix(0.1,0,0,-0.1,0,57)"/>
</g>
<path style=" stroke:none;fill-rule:nonzero;fill:rgb(56.864929%,56.079102%,56.274414%);fill-opacity:1;" d="M 67.988281 50 C 67.988281 51.933594 66.308594 53.5 64.238281 53.5 C 62.167969 53.5 60.488281 51.933594 60.488281 50 C 60.488281 48.066406 62.167969 46.5 64.238281 46.5 C 66.308594 46.5 67.988281 48.066406 67.988281 50 "/>
<g clip-path="url(#clip4)" clip-rule="nonzero">
<path style="fill:none;stroke-width:10;stroke-linecap:butt;stroke-linejoin:miter;stroke:rgb(13.729858%,12.159729%,12.548828%);stroke-opacity:1;stroke-miterlimit:4;" d="M 679.882812 70 C 679.882812 50.664062 663.085938 35 642.382812 35 C 621.679688 35 604.882812 50.664062 604.882812 70 C 604.882812 89.335938 621.679688 105 642.382812 105 C 663.085938 105 679.882812 89.335938 679.882812 70 Z M 679.882812 70 " transform="matrix(0.1,0,0,-0.1,0,57)"/>
</g>
<path style="fill-rule:nonzero;fill:rgb(56.864929%,56.079102%,56.274414%);fill-opacity:1;stroke-width:10;stroke-linecap:butt;stroke-linejoin:miter;stroke:rgb(13.729858%,12.159729%,12.548828%);stroke-opacity:1;stroke-miterlimit:4;" d="M 52.382812 490 L 42.382812 125 " transform="matrix(0.1,0,0,-0.1,0,57)"/>
<path style="fill-rule:nonzero;fill:rgb(56.864929%,56.079102%,56.274414%);fill-opacity:1;stroke-width:10;stroke-linecap:butt;stroke-linejoin:miter;stroke:rgb(13.729858%,12.159729%,12.548828%);stroke-opacity:1;stroke-miterlimit:4;" d="M 79.882812 500 L 299.882812 320 " transform="matrix(0.1,0,0,-0.1,0,57)"/>
<path style="fill-rule:nonzero;fill:rgb(56.864929%,56.079102%,56.274414%);fill-opacity:1;stroke-width:10;stroke-linecap:butt;stroke-linejoin:miter;stroke:rgb(13.729858%,12.159729%,12.548828%);stroke-opacity:1;stroke-miterlimit:4;" d="M 609.882812 450 L 354.882812 310 " transform="matrix(0.1,0,0,-0.1,0,57)"/>
<path style="fill-rule:nonzero;fill:rgb(56.864929%,56.079102%,56.274414%);fill-opacity:1;stroke-width:10;stroke-linecap:butt;stroke-linejoin:miter;stroke:rgb(13.729858%,12.159729%,12.548828%);stroke-opacity:1;stroke-miterlimit:4;" d="M 642.382812 105 L 339.882812 265 " transform="matrix(0.1,0,0,-0.1,0,57)"/>
<path style="fill-rule:nonzero;fill:rgb(56.864929%,56.079102%,56.274414%);fill-opacity:1;stroke-width:10;stroke-linecap:butt;stroke-linejoin:miter;stroke:rgb(13.729858%,12.159729%,12.548828%);stroke-opacity:1;stroke-miterlimit:4;" d="M 304.882812 260 L 74.882812 110 " transform="matrix(0.1,0,0,-0.1,0,57)"/>
<path style=" stroke:none;fill-rule:nonzero;fill:rgb(56.864929%,56.079102%,56.274414%);fill-opacity:1;" d="M 8.988281 4.5 L 59.988281 8.5 "/>
<g clip-path="url(#clip5)" clip-rule="nonzero">
<path style="fill:none;stroke-width:10;stroke-linecap:butt;stroke-linejoin:miter;stroke:rgb(13.729858%,12.159729%,12.548828%);stroke-opacity:1;stroke-miterlimit:4;" d="M 89.882812 525 L 599.882812 485 " transform="matrix(0.1,0,0,-0.1,0,57)"/>
</g>
<path style=" stroke:none;fill-rule:nonzero;fill:rgb(56.864929%,56.079102%,56.274414%);fill-opacity:1;" d="M 130.988281 6 C 130.988281 7.933594 129.308594 9.5 127.238281 9.5 C 125.167969 9.5 123.488281 7.933594 123.488281 6 C 123.488281 4.066406 125.167969 2.5 127.238281 2.5 C 129.308594 2.5 130.988281 4.066406 130.988281 6 "/>
<g clip-path="url(#clip6)" clip-rule="nonzero">
<path style="fill:none;stroke-width:10;stroke-linecap:butt;stroke-linejoin:miter;stroke:rgb(13.729858%,12.159729%,12.548828%);stroke-opacity:1;stroke-miterlimit:4;" d="M 1309.882812 510 C 1309.882812 490.664062 1293.085938 475 1272.382812 475 C 1251.679688 475 1234.882812 490.664062 1234.882812 510 C 1234.882812 529.335938 1251.679688 545 1272.382812 545 C 1293.085938 545 1309.882812 529.335938 1309.882812 510 Z M 1309.882812 510 " transform="matrix(0.1,0,0,-0.1,0,57)"/>
</g>
<path style=" stroke:none;fill-rule:nonzero;fill:rgb(56.864929%,56.079102%,56.274414%);fill-opacity:1;" d="M 189.488281 10 C 189.488281 11.933594 187.808594 13.5 185.738281 13.5 C 183.667969 13.5 181.988281 11.933594 181.988281 10 C 181.988281 8.066406 183.667969 6.5 185.738281 6.5 C 187.808594 6.5 189.488281 8.066406 189.488281 10 "/>
<g clip-path="url(#clip7)" clip-rule="nonzero">
<path style="fill:none;stroke-width:10;stroke-linecap:butt;stroke-linejoin:miter;stroke:rgb(13.729858%,12.159729%,12.548828%);stroke-opacity:1;stroke-miterlimit:4;" d="M 1894.882812 470 C 1894.882812 450.664062 1878.085938 435 1857.382812 435 C 1836.679688 435 1819.882812 450.664062 1819.882812 470 C 1819.882812 489.335938 1836.679688 505 1857.382812 505 C 1878.085938 505 1894.882812 489.335938 1894.882812 470 Z M 1894.882812 470 " transform="matrix(0.1,0,0,-0.1,0,57)"/>
</g>
<path style=" stroke:none;fill-rule:nonzero;fill:rgb(56.864929%,56.079102%,56.274414%);fill-opacity:1;" d="M 158.488281 29.5 C 158.488281 31.433594 156.808594 33 154.738281 33 C 152.667969 33 150.988281 31.433594 150.988281 29.5 C 150.988281 27.566406 152.667969 26 154.738281 26 C 156.808594 26 158.488281 27.566406 158.488281 29.5 "/>
<path style="fill:none;stroke-width:10;stroke-linecap:butt;stroke-linejoin:miter;stroke:rgb(13.729858%,12.159729%,12.548828%);stroke-opacity:1;stroke-miterlimit:4;" d="M 1584.882812 275 C 1584.882812 255.664062 1568.085938 240 1547.382812 240 C 1526.679688 240 1509.882812 255.664062 1509.882812 275 C 1509.882812 294.335938 1526.679688 310 1547.382812 310 C 1568.085938 310 1584.882812 294.335938 1584.882812 275 Z M 1584.882812 275 " transform="matrix(0.1,0,0,-0.1,0,57)"/>
<path style=" stroke:none;fill-rule:nonzero;fill:rgb(56.864929%,56.079102%,56.274414%);fill-opacity:1;" d="M 129.988281 49.5 C 129.988281 51.433594 128.308594 53 126.238281 53 C 124.167969 53 122.488281 51.433594 122.488281 49.5 C 122.488281 47.566406 124.167969 46 126.238281 46 C 128.308594 46 129.988281 47.566406 129.988281 49.5 "/>
<g clip-path="url(#clip8)" clip-rule="nonzero">
<path style="fill:none;stroke-width:10;stroke-linecap:butt;stroke-linejoin:miter;stroke:rgb(13.729858%,12.159729%,12.548828%);stroke-opacity:1;stroke-miterlimit:4;" d="M 1299.882812 75 C 1299.882812 55.664062 1283.085938 40 1262.382812 40 C 1241.679688 40 1224.882812 55.664062 1224.882812 75 C 1224.882812 94.335938 1241.679688 110 1262.382812 110 C 1283.085938 110 1299.882812 94.335938 1299.882812 75 Z M 1299.882812 75 " transform="matrix(0.1,0,0,-0.1,0,57)"/>
</g>
<path style=" stroke:none;fill-rule:nonzero;fill:rgb(56.864929%,56.079102%,56.274414%);fill-opacity:1;" d="M 189.988281 51.5 C 189.988281 53.433594 188.308594 55 186.238281 55 C 184.167969 55 182.488281 53.433594 182.488281 51.5 C 182.488281 49.566406 184.167969 48 186.238281 48 C 188.308594 48 189.988281 49.566406 189.988281 51.5 "/>
<g clip-path="url(#clip9)" clip-rule="nonzero">
<path style="fill:none;stroke-width:10;stroke-linecap:butt;stroke-linejoin:miter;stroke:rgb(13.729858%,12.159729%,12.548828%);stroke-opacity:1;stroke-miterlimit:4;" d="M 1899.882812 55 C 1899.882812 35.664062 1883.085938 20 1862.382812 20 C 1841.679688 20 1824.882812 35.664062 1824.882812 55 C 1824.882812 74.335938 1841.679688 90 1862.382812 90 C 1883.085938 90 1899.882812 74.335938 1899.882812 55 Z M 1899.882812 55 " transform="matrix(0.1,0,0,-0.1,0,57)"/>
</g>
<path style="fill-rule:nonzero;fill:rgb(56.864929%,56.079102%,56.274414%);fill-opacity:1;stroke-width:10;stroke-linecap:butt;stroke-linejoin:miter;stroke:rgb(13.729858%,12.159729%,12.548828%);stroke-opacity:1;stroke-miterlimit:4;" d="M 1272.382812 475 L 1262.382812 110 " transform="matrix(0.1,0,0,-0.1,0,57)"/>
<path style="fill-rule:nonzero;fill:rgb(56.864929%,56.079102%,56.274414%);fill-opacity:1;stroke-width:10;stroke-linecap:butt;stroke-linejoin:miter;stroke:rgb(13.729858%,12.159729%,12.548828%);stroke-opacity:1;stroke-miterlimit:4;" d="M 1299.882812 485 L 1519.882812 305 " transform="matrix(0.1,0,0,-0.1,0,57)"/>
<path style="fill-rule:nonzero;fill:rgb(56.864929%,56.079102%,56.274414%);fill-opacity:1;stroke-width:10;stroke-linecap:butt;stroke-linejoin:miter;stroke:rgb(13.729858%,12.159729%,12.548828%);stroke-opacity:1;stroke-miterlimit:4;" d="M 1829.882812 435 L 1574.882812 295 " transform="matrix(0.1,0,0,-0.1,0,57)"/>
<path style="fill-rule:nonzero;fill:rgb(56.864929%,56.079102%,56.274414%);fill-opacity:1;stroke-width:10;stroke-linecap:butt;stroke-linejoin:miter;stroke:rgb(13.729858%,12.159729%,12.548828%);stroke-opacity:1;stroke-miterlimit:4;" d="M 1862.382812 90 L 1559.882812 250 " transform="matrix(0.1,0,0,-0.1,0,57)"/>
<path style="fill-rule:nonzero;fill:rgb(56.864929%,56.079102%,56.274414%);fill-opacity:1;stroke-width:10;stroke-linecap:butt;stroke-linejoin:miter;stroke:rgb(13.729858%,12.159729%,12.548828%);stroke-opacity:1;stroke-miterlimit:4;" d="M 1524.882812 245 L 1294.882812 95 " transform="matrix(0.1,0,0,-0.1,0,57)"/>
<path style=" stroke:none;fill-rule:nonzero;fill:rgb(56.864929%,56.079102%,56.274414%);fill-opacity:1;" d="M 239.488281 7.5 C 239.488281 9.433594 237.808594 11 235.738281 11 C 233.667969 11 231.988281 9.433594 231.988281 7.5 C 231.988281 5.566406 233.667969 4 235.738281 4 C 237.808594 4 239.488281 5.566406 239.488281 7.5 "/>
<g clip-path="url(#clip10)" clip-rule="nonzero">
<path style="fill:none;stroke-width:10;stroke-linecap:butt;stroke-linejoin:miter;stroke:rgb(13.729858%,12.159729%,12.548828%);stroke-opacity:1;stroke-miterlimit:4;" d="M 2394.882812 495 C 2394.882812 475.664062 2378.085938 460 2357.382812 460 C 2336.679688 460 2319.882812 475.664062 2319.882812 495 C 2319.882812 514.335938 2336.679688 530 2357.382812 530 C 2378.085938 530 2394.882812 514.335938 2394.882812 495 Z M 2394.882812 495 " transform="matrix(0.1,0,0,-0.1,0,57)"/>
</g>
<path style=" stroke:none;fill-rule:nonzero;fill:rgb(56.864929%,56.079102%,56.274414%);fill-opacity:1;" d="M 297.988281 11.5 C 297.988281 13.433594 296.308594 15 294.238281 15 C 292.167969 15 290.488281 13.433594 290.488281 11.5 C 290.488281 9.566406 292.167969 8 294.238281 8 C 296.308594 8 297.988281 9.566406 297.988281 11.5 "/>
<g clip-path="url(#clip11)" clip-rule="nonzero">
<path style="fill:none;stroke-width:10;stroke-linecap:butt;stroke-linejoin:miter;stroke:rgb(13.729858%,12.159729%,12.548828%);stroke-opacity:1;stroke-miterlimit:4;" d="M 2979.882812 455 C 2979.882812 435.664062 2963.085938 420 2942.382812 420 C 2921.679688 420 2904.882812 435.664062 2904.882812 455 C 2904.882812 474.335938 2921.679688 490 2942.382812 490 C 2963.085938 490 2979.882812 474.335938 2979.882812 455 Z M 2979.882812 455 " transform="matrix(0.1,0,0,-0.1,0,57)"/>
</g>
<path style=" stroke:none;fill-rule:nonzero;fill:rgb(56.864929%,56.079102%,56.274414%);fill-opacity:1;" d="M 266.988281 31 C 266.988281 32.933594 265.308594 34.5 263.238281 34.5 C 261.167969 34.5 259.488281 32.933594 259.488281 31 C 259.488281 29.066406 261.167969 27.5 263.238281 27.5 C 265.308594 27.5 266.988281 29.066406 266.988281 31 "/>
<path style="fill:none;stroke-width:10;stroke-linecap:butt;stroke-linejoin:miter;stroke:rgb(13.729858%,12.159729%,12.548828%);stroke-opacity:1;stroke-miterlimit:4;" d="M 2669.882812 260 C 2669.882812 240.664062 2653.085938 225 2632.382812 225 C 2611.679688 225 2594.882812 240.664062 2594.882812 260 C 2594.882812 279.335938 2611.679688 295 2632.382812 295 C 2653.085938 295 2669.882812 279.335938 2669.882812 260 Z M 2669.882812 260 " transform="matrix(0.1,0,0,-0.1,0,57)"/>
<path style=" stroke:none;fill-rule:nonzero;fill:rgb(56.864929%,56.079102%,56.274414%);fill-opacity:1;" d="M 238.488281 51 C 238.488281 52.933594 236.808594 54.5 234.738281 54.5 C 232.667969 54.5 230.988281 52.933594 230.988281 51 C 230.988281 49.066406 232.667969 47.5 234.738281 47.5 C 236.808594 47.5 238.488281 49.066406 238.488281 51 "/>
<g clip-path="url(#clip12)" clip-rule="nonzero">
<path style="fill:none;stroke-width:10;stroke-linecap:butt;stroke-linejoin:miter;stroke:rgb(13.729858%,12.159729%,12.548828%);stroke-opacity:1;stroke-miterlimit:4;" d="M 2384.882812 60 C 2384.882812 40.664062 2368.085938 25 2347.382812 25 C 2326.679688 25 2309.882812 40.664062 2309.882812 60 C 2309.882812 79.335938 2326.679688 95 2347.382812 95 C 2368.085938 95 2384.882812 79.335938 2384.882812 60 Z M 2384.882812 60 " transform="matrix(0.1,0,0,-0.1,0,57)"/>
</g>
<g clip-path="url(#clip13)" clip-rule="nonzero">
<path style=" stroke:none;fill-rule:nonzero;fill:rgb(56.864929%,56.079102%,56.274414%);fill-opacity:1;" d="M 298.488281 53 C 298.488281 54.933594 296.808594 56.5 294.738281 56.5 C 292.667969 56.5 290.988281 54.933594 290.988281 53 C 290.988281 51.066406 292.667969 49.5 294.738281 49.5 C 296.808594 49.5 298.488281 51.066406 298.488281 53 "/>
</g>
<g clip-path="url(#clip14)" clip-rule="nonzero">
<path style="fill:none;stroke-width:10;stroke-linecap:butt;stroke-linejoin:miter;stroke:rgb(13.729858%,12.159729%,12.548828%);stroke-opacity:1;stroke-miterlimit:4;" d="M 2984.882812 40 C 2984.882812 20.664062 2968.085938 5 2947.382812 5 C 2926.679688 5 2909.882812 20.664062 2909.882812 40 C 2909.882812 59.335938 2926.679688 75 2947.382812 75 C 2968.085938 75 2984.882812 59.335938 2984.882812 40 Z M 2984.882812 40 " transform="matrix(0.1,0,0,-0.1,0,57)"/>
</g>
<path style="fill-rule:nonzero;fill:rgb(56.864929%,56.079102%,56.274414%);fill-opacity:1;stroke-width:10;stroke-linecap:butt;stroke-linejoin:miter;stroke:rgb(13.729858%,12.159729%,12.548828%);stroke-opacity:1;stroke-miterlimit:4;" d="M 2357.382812 460 L 2347.382812 95 " transform="matrix(0.1,0,0,-0.1,0,57)"/>
<path style="fill-rule:nonzero;fill:rgb(56.864929%,56.079102%,56.274414%);fill-opacity:1;stroke-width:10;stroke-linecap:butt;stroke-linejoin:miter;stroke:rgb(13.729858%,12.159729%,12.548828%);stroke-opacity:1;stroke-miterlimit:4;" d="M 2914.882812 420 L 2659.882812 280 " transform="matrix(0.1,0,0,-0.1,0,57)"/>
<path style=" stroke:none;fill-rule:nonzero;fill:rgb(56.864929%,56.079102%,56.274414%);fill-opacity:1;" d="M 294.738281 49.5 L 264.488281 33.5 "/>
<g clip-path="url(#clip15)" clip-rule="nonzero">
<path style="fill:none;stroke-width:10;stroke-linecap:butt;stroke-linejoin:miter;stroke:rgb(13.729858%,12.159729%,12.548828%);stroke-opacity:1;stroke-miterlimit:4;" d="M 2947.382812 75 L 2644.882812 235 " transform="matrix(0.1,0,0,-0.1,0,57)"/>
</g>
<path style="fill-rule:nonzero;fill:rgb(56.864929%,56.079102%,56.274414%);fill-opacity:1;stroke-width:10;stroke-linecap:butt;stroke-linejoin:miter;stroke:rgb(13.729858%,12.159729%,12.548828%);stroke-opacity:1;stroke-miterlimit:4;" d="M 2609.882812 230 L 2379.882812 80 " transform="matrix(0.1,0,0,-0.1,0,57)"/>
<path style=" stroke:none;fill-rule:nonzero;fill:rgb(56.864929%,56.079102%,56.274414%);fill-opacity:1;" d="M 71.488281 27.5 L 111.488281 27 "/>
<path style=" stroke:none;fill-rule:nonzero;fill:rgb(56.864929%,56.079102%,56.274414%);fill-opacity:1;" d="M 113.835938 25.945312 C 112.179688 25.46875 111.097656 25.019531 109.765625 24.503906 L 109.828125 29.550781 C 110.300781 29.316406 112.214844 28.527344 113.863281 28.007812 C 115.625 27.449219 117.226562 27.066406 118.265625 26.921875 C 117.222656 26.804688 115.613281 26.457031 113.835938 25.945312 "/>
<path style="fill:none;stroke-width:10;stroke-linecap:butt;stroke-linejoin:miter;stroke:rgb(13.729858%,12.159729%,12.548828%);stroke-opacity:1;stroke-miterlimit:4;" d="M 714.882812 295 L 1114.882812 300 " transform="matrix(0.1,0,0,-0.1,0,57)"/>
<path style=" stroke:none;fill-rule:nonzero;fill:rgb(13.729858%,12.159729%,12.548828%);fill-opacity:1;" d="M 113.835938 25.945312 C 112.179688 25.46875 111.097656 25.019531 109.765625 24.503906 L 109.828125 29.550781 C 110.300781 29.316406 112.214844 28.527344 113.863281 28.007812 C 115.625 27.449219 117.226562 27.066406 118.265625 26.921875 C 117.222656 26.804688 115.613281 26.457031 113.835938 25.945312 "/>
<path style=" stroke:none;fill-rule:nonzero;fill:rgb(56.864929%,56.079102%,56.274414%);fill-opacity:1;" d="M 180.988281 27.5 L 220.988281 27 "/>
<path style=" stroke:none;fill-rule:nonzero;fill:rgb(56.864929%,56.079102%,56.274414%);fill-opacity:1;" d="M 223.335938 25.945312 C 221.679688 25.46875 220.597656 25.019531 219.265625 24.503906 L 219.328125 29.550781 C 219.800781 29.316406 221.714844 28.527344 223.363281 28.007812 C 225.125 27.449219 226.726562 27.066406 227.765625 26.921875 C 226.722656 26.804688 225.113281 26.457031 223.335938 25.945312 "/>
<path style="fill:none;stroke-width:10;stroke-linecap:butt;stroke-linejoin:miter;stroke:rgb(13.729858%,12.159729%,12.548828%);stroke-opacity:1;stroke-miterlimit:4;" d="M 1809.882812 295 L 2209.882812 300 " transform="matrix(0.1,0,0,-0.1,0,57)"/>
<path style=" stroke:none;fill-rule:nonzero;fill:rgb(13.729858%,12.159729%,12.548828%);fill-opacity:1;" d="M 223.335938 25.945312 C 221.679688 25.46875 220.597656 25.019531 219.265625 24.503906 L 219.328125 29.550781 C 219.800781 29.316406 221.714844 28.527344 223.363281 28.007812 C 225.125 27.449219 226.726562 27.066406 227.765625 26.921875 C 226.722656 26.804688 225.113281 26.457031 223.335938 25.945312 "/>
</g>
</svg>
