<?xml version="1.0" encoding="UTF-8"?>
<svg xmlns="http://www.w3.org/2000/svg" xmlns:xlink="http://www.w3.org/1999/xlink" width="152pt" height="60pt" viewBox="0 0 152 60" version="1.1">
<g id="surface1">
<path style="fill-rule:nonzero;fill:rgb(100%,100%,100%);fill-opacity:1;stroke-width:10;stroke-linecap:butt;stroke-linejoin:miter;stroke:rgb(13.729858%,12.159729%,12.548828%);stroke-opacity:1;stroke-miterlimit:4;" d="M 891.835938 488.164062 C 1049.726562 645.976562 1894.648438 674.648438 1300 80 " transform="matrix(0.1,0,0,-0.1,0,60)"/>
<path style=" stroke:none;fill-rule:nonzero;fill:rgb(100%,100%,100%);fill-opacity:1;" d="M 8.71875 13.789062 C 8.71875 16.039062 6.898438 17.859375 4.648438 17.859375 C 2.402344 17.859375 0.582031 16.039062 0.582031 13.789062 C 0.582031 11.542969 2.402344 9.71875 4.648438 9.71875 C 6.898438 9.71875 8.71875 11.542969 8.71875 13.789062 "/>
<path style="fill:none;stroke-width:10;stroke-linecap:butt;stroke-linejoin:miter;stroke:rgb(13.729858%,12.159729%,12.548828%);stroke-opacity:1;stroke-miterlimit:4;" d="M 87.1875 462.109375 C 87.1875 439.609375 68.984375 421.40625 46.484375 421.40625 C 24.023438 421.40625 5.820312 439.609375 5.820312 462.109375 C 5.820312 484.570312 24.023438 502.8125 46.484375 502.8125 C 68.984375 502.8125 87.1875 484.570312 87.1875 462.109375 Z M 87.1875 462.109375 " transform="matrix(0.1,0,0,-0.1,0,60)"/>
<path style=" stroke:none;fill-rule:nonzero;fill:rgb(100%,100%,100%);fill-opacity:1;" d="M 44.476562 13.789062 C 44.476562 16.035156 42.652344 17.859375 40.40625 17.859375 C 38.160156 17.859375 36.335938 16.035156 36.335938 13.789062 C 36.335938 11.542969 38.160156 9.71875 40.40625 9.71875 C 42.652344 9.71875 44.476562 11.542969 44.476562 13.789062 "/>
<path style="fill:none;stroke-width:10;stroke-linecap:butt;stroke-linejoin:miter;stroke:rgb(13.729858%,12.159729%,12.548828%);stroke-opacity:1;stroke-miterlimit:4;" d="M 444.765625 462.109375 C 444.765625 439.648438 426.523438 421.40625 404.0625 421.40625 C 381.601562 421.40625 363.359375 439.648438 363.359375 462.109375 C 363.359375 484.570312 381.601562 502.8125 404.0625 502.8125 C 426.523438 502.8125 444.765625 484.570312 444.765625 462.109375 Z M 444.765625 462.109375 " transform="matrix(0.1,0,0,-0.1,0,60)"/>
<path style=" stroke:none;fill-rule:nonzero;fill:rgb(100%,100%,100%);fill-opacity:1;" d="M 8.71875 54.925781 C 8.71875 57.171875 6.898438 58.992188 4.648438 58.992188 C 2.402344 58.992188 0.582031 57.171875 0.582031 54.925781 C 0.582031 52.675781 2.402344 50.855469 4.648438 50.855469 C 6.898438 50.855469 8.71875 52.675781 8.71875 54.925781 "/>
<path style="fill:none;stroke-width:10;stroke-linecap:butt;stroke-linejoin:miter;stroke:rgb(13.729858%,12.159729%,12.548828%);stroke-opacity:1;stroke-miterlimit:4;" d="M 87.1875 50.742188 C 87.1875 28.28125 68.984375 10.078125 46.484375 10.078125 C 24.023438 10.078125 5.820312 28.28125 5.820312 50.742188 C 5.820312 73.242188 24.023438 91.445312 46.484375 91.445312 C 68.984375 91.445312 87.1875 73.242188 87.1875 50.742188 Z M 87.1875 50.742188 " transform="matrix(0.1,0,0,-0.1,0,60)"/>
<path style=" stroke:none;fill-rule:nonzero;fill:rgb(100%,100%,100%);fill-opacity:1;" d="M 44.476562 54.921875 C 44.476562 57.171875 42.652344 58.992188 40.40625 58.992188 C 38.160156 58.992188 36.335938 57.171875 36.335938 54.921875 C 36.335938 52.675781 38.160156 50.851562 40.40625 50.851562 C 42.652344 50.851562 44.476562 52.675781 44.476562 54.921875 "/>
<path style="fill:none;stroke-width:10;stroke-linecap:butt;stroke-linejoin:miter;stroke:rgb(13.729858%,12.159729%,12.548828%);stroke-opacity:1;stroke-miterlimit:4;" d="M 444.765625 50.78125 C 444.765625 28.28125 426.523438 10.078125 404.0625 10.078125 C 381.601562 10.078125 363.359375 28.28125 363.359375 50.78125 C 363.359375 73.242188 381.601562 91.484375 404.0625 91.484375 C 426.523438 91.484375 444.765625 73.242188 444.765625 50.78125 Z M 444.765625 50.78125 " transform="matrix(0.1,0,0,-0.1,0,60)"/>
<path style="fill-rule:nonzero;fill:rgb(100%,100%,100%);fill-opacity:1;stroke-width:10;stroke-linecap:butt;stroke-linejoin:miter;stroke:rgb(13.729858%,12.159729%,12.548828%);stroke-opacity:1;stroke-miterlimit:4;" d="M 75 425 L 370 75 " transform="matrix(0.1,0,0,-0.1,0,60)"/>
<path style="fill-rule:nonzero;fill:rgb(100%,100%,100%);fill-opacity:1;stroke-width:10;stroke-linecap:butt;stroke-linejoin:miter;stroke:rgb(13.729858%,12.159729%,12.548828%);stroke-opacity:1;stroke-miterlimit:4;" d="M 375 425 L 70 85 " transform="matrix(0.1,0,0,-0.1,0,60)"/>
<path style="fill:none;stroke-width:10;stroke-linecap:butt;stroke-linejoin:miter;stroke:rgb(13.729858%,12.159729%,12.548828%);stroke-opacity:1;stroke-miterlimit:4;" d="M 46.484375 421.40625 L 46.484375 91.445312 " transform="matrix(0.1,0,0,-0.1,0,60)"/>
<path style="fill:none;stroke-width:10;stroke-linecap:butt;stroke-linejoin:miter;stroke:rgb(13.729858%,12.159729%,12.548828%);stroke-opacity:1;stroke-miterlimit:4;" d="M 404.0625 421.40625 L 404.0625 91.484375 " transform="matrix(0.1,0,0,-0.1,0,60)"/>
<path style="fill:none;stroke-width:10;stroke-linecap:butt;stroke-linejoin:miter;stroke:rgb(13.729858%,12.159729%,12.548828%);stroke-opacity:1;stroke-miterlimit:4;" d="M 87.1875 462.109375 L 363.359375 462.109375 " transform="matrix(0.1,0,0,-0.1,0,60)"/>
<path style="fill-rule:nonzero;fill:rgb(100%,100%,100%);fill-opacity:1;stroke-width:10;stroke-linecap:butt;stroke-linejoin:miter;stroke:rgb(13.729858%,12.159729%,12.548828%);stroke-opacity:1;stroke-miterlimit:4;" d="M 87.1875 50.742188 L 363.359375 50.78125 " transform="matrix(0.1,0,0,-0.1,0,60)"/>
<path style=" stroke:none;fill-rule:nonzero;fill:rgb(100%,100%,100%);fill-opacity:1;" d="M 94.71875 13.789062 C 94.71875 16.039062 92.898438 17.859375 90.652344 17.859375 C 88.402344 17.859375 86.582031 16.039062 86.582031 13.789062 C 86.582031 11.542969 88.402344 9.71875 90.652344 9.71875 C 92.898438 9.71875 94.71875 11.542969 94.71875 13.789062 "/>
<path style="fill:none;stroke-width:10;stroke-linecap:butt;stroke-linejoin:miter;stroke:rgb(13.729858%,12.159729%,12.548828%);stroke-opacity:1;stroke-miterlimit:4;" d="M 947.1875 462.109375 C 947.1875 439.609375 928.984375 421.40625 906.523438 421.40625 C 884.023438 421.40625 865.820312 439.609375 865.820312 462.109375 C 865.820312 484.570312 884.023438 502.8125 906.523438 502.8125 C 928.984375 502.8125 947.1875 484.570312 947.1875 462.109375 Z M 947.1875 462.109375 " transform="matrix(0.1,0,0,-0.1,0,60)"/>
<path style=" stroke:none;fill-rule:nonzero;fill:rgb(100%,100%,100%);fill-opacity:1;" d="M 130.476562 13.789062 C 130.476562 16.035156 128.652344 17.859375 126.40625 17.859375 C 124.160156 17.859375 122.335938 16.035156 122.335938 13.789062 C 122.335938 11.542969 124.160156 9.71875 126.40625 9.71875 C 128.652344 9.71875 130.476562 11.542969 130.476562 13.789062 "/>
<path style="fill:none;stroke-width:10;stroke-linecap:butt;stroke-linejoin:miter;stroke:rgb(13.729858%,12.159729%,12.548828%);stroke-opacity:1;stroke-miterlimit:4;" d="M 1304.765625 462.109375 C 1304.765625 439.648438 1286.523438 421.40625 1264.0625 421.40625 C 1241.601562 421.40625 1223.359375 439.648438 1223.359375 462.109375 C 1223.359375 484.570312 1241.601562 502.8125 1264.0625 502.8125 C 1286.523438 502.8125 1304.765625 484.570312 1304.765625 462.109375 Z M 1304.765625 462.109375 " transform="matrix(0.1,0,0,-0.1,0,60)"/>
<path style=" stroke:none;fill-rule:nonzero;fill:rgb(100%,100%,100%);fill-opacity:1;" d="M 94.71875 54.925781 C 94.71875 57.171875 92.898438 58.992188 90.652344 58.992188 C 88.402344 58.992188 86.582031 57.171875 86.582031 54.925781 C 86.582031 52.675781 88.402344 50.855469 90.652344 50.855469 C 92.898438 50.855469 94.71875 52.675781 94.71875 54.925781 "/>
<path style="fill:none;stroke-width:10;stroke-linecap:butt;stroke-linejoin:miter;stroke:rgb(13.729858%,12.159729%,12.548828%);stroke-opacity:1;stroke-miterlimit:4;" d="M 947.1875 50.742188 C 947.1875 28.28125 928.984375 10.078125 906.523438 10.078125 C 884.023438 10.078125 865.820312 28.28125 865.820312 50.742188 C 865.820312 73.242188 884.023438 91.445312 906.523438 91.445312 C 928.984375 91.445312 947.1875 73.242188 947.1875 50.742188 Z M 947.1875 50.742188 " transform="matrix(0.1,0,0,-0.1,0,60)"/>
<path style=" stroke:none;fill-rule:nonzero;fill:rgb(100%,100%,100%);fill-opacity:1;" d="M 130.476562 54.921875 C 130.476562 57.171875 128.652344 58.992188 126.40625 58.992188 C 124.160156 58.992188 122.335938 57.171875 122.335938 54.921875 C 122.335938 52.675781 124.160156 50.851562 126.40625 50.851562 C 128.652344 50.851562 130.476562 52.675781 130.476562 54.921875 "/>
<path style="fill:none;stroke-width:10;stroke-linecap:butt;stroke-linejoin:miter;stroke:rgb(13.729858%,12.159729%,12.548828%);stroke-opacity:1;stroke-miterlimit:4;" d="M 1304.765625 50.78125 C 1304.765625 28.28125 1286.523438 10.078125 1264.0625 10.078125 C 1241.601562 10.078125 1223.359375 28.28125 1223.359375 50.78125 C 1223.359375 73.242188 1241.601562 91.484375 1264.0625 91.484375 C 1286.523438 91.484375 1304.765625 73.242188 1304.765625 50.78125 Z M 1304.765625 50.78125 " transform="matrix(0.1,0,0,-0.1,0,60)"/>
<path style="fill-rule:nonzero;fill:rgb(100%,100%,100%);fill-opacity:1;stroke-width:10;stroke-linecap:butt;stroke-linejoin:miter;stroke:rgb(13.729858%,12.159729%,12.548828%);stroke-opacity:1;stroke-miterlimit:4;" d="M 1235 425 L 930 85 " transform="matrix(0.1,0,0,-0.1,0,60)"/>
<path style="fill:none;stroke-width:10;stroke-linecap:butt;stroke-linejoin:miter;stroke:rgb(13.729858%,12.159729%,12.548828%);stroke-opacity:1;stroke-miterlimit:4;" d="M 906.523438 421.40625 L 906.523438 91.445312 " transform="matrix(0.1,0,0,-0.1,0,60)"/>
<path style="fill:none;stroke-width:10;stroke-linecap:butt;stroke-linejoin:miter;stroke:rgb(13.729858%,12.159729%,12.548828%);stroke-opacity:1;stroke-miterlimit:4;" d="M 1264.0625 421.40625 L 1264.0625 91.484375 " transform="matrix(0.1,0,0,-0.1,0,60)"/>
<path style="fill:none;stroke-width:10;stroke-linecap:butt;stroke-linejoin:miter;stroke:rgb(13.729858%,12.159729%,12.548828%);stroke-opacity:1;stroke-miterlimit:4;" d="M 947.1875 462.109375 L 1223.359375 462.109375 " transform="matrix(0.1,0,0,-0.1,0,60)"/>
<path style="fill-rule:nonzero;fill:rgb(100%,100%,100%);fill-opacity:1;stroke-width:10;stroke-linecap:butt;stroke-linejoin:miter;stroke:rgb(13.729858%,12.159729%,12.548828%);stroke-opacity:1;stroke-miterlimit:4;" d="M 947.1875 50.742188 L 1223.359375 50.78125 " transform="matrix(0.1,0,0,-0.1,0,60)"/>
</g>
</svg>
