<?xml version="1.0" encoding="UTF-8"?>
<svg xmlns="http://www.w3.org/2000/svg" xmlns:xlink="http://www.w3.org/1999/xlink" width="204pt" height="199pt" viewBox="0 0 204 199" version="1.1">
<g id="surface1">
<path style=" stroke:none;fill-rule:nonzero;fill:rgb(100%,100%,100%);fill-opacity:1;" d="M 101.421875 178.003906 C 98.988281 180.628906 124.867188 191.75 127.257812 192.300781 C 135.5625 194.222656 145.984375 195.074219 153.886719 191.097656 C 168.574219 183.703125 173.136719 163.8125 177.242188 149.386719 C 183.230469 128.320312 188.363281 107.824219 195.679688 87.175781 C 204.144531 63.277344 204.898438 43.066406 182.117188 28.183594 C 168.007812 18.964844 146.363281 12.15625 129.921875 18.859375 C 122.640625 21.828125 112.363281 38.382812 104.960938 36.984375 C 100.835938 36.203125 95.269531 24.929688 91.945312 21.945312 C 59.058594 -7.601562 6.707031 30.816406 2.746094 68.144531 C 0.488281 89.378906 12.355469 114.699219 18.867188 134.9375 C 25.6875 156.132812 32.480469 183.703125 54.839844 193.601562 C 71.714844 201.066406 89.960938 190.367188 101.421875 178.003906 "/>
<path style="fill:none;stroke-width:40;stroke-linecap:butt;stroke-linejoin:miter;stroke:rgb(13.729858%,12.159729%,12.548828%);stroke-opacity:1;stroke-miterlimit:4;" d="M 1014.21875 209.960938 C 989.882812 183.710938 1248.671875 72.5 1272.578125 66.992188 C 1355.625 47.773438 1459.84375 39.257812 1538.867188 79.023438 C 1685.742188 152.96875 1731.367188 351.875 1772.421875 496.132812 C 1832.304688 706.796875 1883.632812 911.757812 1956.796875 1118.242188 C 2041.445312 1357.226562 2048.984375 1559.335938 1821.171875 1708.164062 C 1680.078125 1800.351562 1463.632812 1868.4375 1299.21875 1801.40625 C 1226.40625 1771.71875 1123.632812 1606.171875 1049.609375 1620.15625 C 1008.359375 1627.96875 952.695312 1740.703125 919.453125 1770.546875 C 590.585938 2066.015625 67.070312 1681.835938 27.460938 1308.554688 C 4.882812 1096.210938 123.554688 843.007812 188.671875 640.625 C 256.875 428.671875 324.804688 152.96875 548.398438 53.984375 C 717.148438 -20.664062 899.609375 86.328125 1014.21875 209.960938 Z M 1014.21875 209.960938 " transform="matrix(0.1,0,0,-0.1,0,199)"/>
<path style="fill-rule:nonzero;fill:rgb(100%,100%,100%);fill-opacity:1;stroke-width:80;stroke-linecap:butt;stroke-linejoin:miter;stroke:rgb(13.729858%,12.159729%,12.548828%);stroke-opacity:1;stroke-miterlimit:4;" d="M 1048.828125 1609.0625 C 1095.351562 1864.882812 1095.351562 1911.40625 1048.828125 1957.890625 " transform="matrix(0.1,0,0,-0.1,0,199)"/>
</g>
</svg>
