<?xml version="1.0" encoding="UTF-8"?>
<svg xmlns="http://www.w3.org/2000/svg" xmlns:xlink="http://www.w3.org/1999/xlink" width="200pt" height="278pt" viewBox="0 0 200 278" version="1.1">
<g id="surface1">
<path style="fill-rule:nonzero;fill:rgb(100%,100%,100%);fill-opacity:1;stroke-width:80;stroke-linecap:butt;stroke-linejoin:miter;stroke:rgb(13.729858%,12.159729%,12.548828%);stroke-opacity:1;stroke-miterlimit:4;" d="M 1554.492188 2728.828125 C 1380.195312 2697.695312 1260.664062 2706.796875 1107.890625 2632.96875 C 977.226562 2569.765625 889.84375 2490.195312 780.390625 2414.53125 C 428.203125 2171.171875 162.617188 1969.726562 74.414062 1661.640625 C 36.484375 1529.257812 34.882812 1422.773438 64.84375 1287.851562 C 106.289062 1101.289062 63.554688 904.960938 202.929688 728.554688 C 295.507812 611.40625 480.273438 545.585938 591.445312 441.015625 C 694.0625 344.492188 744.492188 304.921875 903.59375 228.867188 C 1195.039062 89.53125 1340.507812 -30.429688 1679.804688 91.289062 C 1672.421875 176.25 1510.9375 278.75 1446.40625 356.757812 C 1343.828125 480.742188 1291.289062 606.171875 1232.890625 731.992188 C 1117.65625 980.234375 1124.21875 1232.8125 1080.46875 1486.640625 C 1042.578125 1706.25 1063.671875 1879.101562 1333.90625 2045.976562 C 1549.609375 2179.21875 1750.15625 2322.773438 1894.726562 2472.109375 C 2085.820312 2669.53125 1820.507812 2782.890625 1468.4375 2705.585938 " transform="matrix(0.1,0,0,-0.1,0,278)"/>
</g>
</svg>
