<?xml version="1.0" encoding="UTF-8"?>
<svg xmlns="http://www.w3.org/2000/svg" xmlns:xlink="http://www.w3.org/1999/xlink" width="170pt" height="52pt" viewBox="0 0 170 52" version="1.1">
<g id="surface1">
<path style="fill-rule:nonzero;fill:rgb(100%,100%,100%);fill-opacity:1;stroke-width:10;stroke-linecap:butt;stroke-linejoin:miter;stroke:rgb(13.729858%,12.159729%,12.548828%);stroke-opacity:1;stroke-miterlimit:4;" d="M 1298.828125 313.320312 L 1398.828125 313.320312 L 1398.828125 413.320312 L 1298.828125 413.320312 Z M 1298.828125 313.320312 " transform="matrix(0.1,0,0,-0.1,0,52)"/>
<path style="fill-rule:nonzero;fill:rgb(100%,100%,100%);fill-opacity:1;stroke-width:10;stroke-linecap:butt;stroke-linejoin:miter;stroke:rgb(13.729858%,12.159729%,12.548828%);stroke-opacity:1;stroke-miterlimit:4;" d="M 1393.828125 313.320312 L 1493.828125 313.320312 L 1493.828125 413.320312 L 1393.828125 413.320312 Z M 1393.828125 313.320312 " transform="matrix(0.1,0,0,-0.1,0,52)"/>
<path style="fill-rule:nonzero;fill:rgb(100%,100%,100%);fill-opacity:1;stroke-width:10;stroke-linecap:butt;stroke-linejoin:miter;stroke:rgb(13.729858%,12.159729%,12.548828%);stroke-opacity:1;stroke-miterlimit:4;" d="M 1488.828125 313.320312 L 1588.828125 313.320312 L 1588.828125 413.320312 L 1488.828125 413.320312 Z M 1488.828125 313.320312 " transform="matrix(0.1,0,0,-0.1,0,52)"/>
<path style="fill-rule:nonzero;fill:rgb(100%,100%,100%);fill-opacity:1;stroke-width:10;stroke-linecap:butt;stroke-linejoin:miter;stroke:rgb(13.729858%,12.159729%,12.548828%);stroke-opacity:1;stroke-miterlimit:4;" d="M 1588.828125 313.320312 L 1688.828125 313.320312 L 1688.828125 413.320312 L 1588.828125 413.320312 Z M 1588.828125 313.320312 " transform="matrix(0.1,0,0,-0.1,0,52)"/>
<path style="fill-rule:nonzero;fill:rgb(100%,100%,100%);fill-opacity:1;stroke-width:10;stroke-linecap:butt;stroke-linejoin:miter;stroke:rgb(13.729858%,12.159729%,12.548828%);stroke-opacity:1;stroke-miterlimit:4;" d="M 1298.828125 213.320312 L 1398.828125 213.320312 L 1398.828125 313.320312 L 1298.828125 313.320312 Z M 1298.828125 213.320312 " transform="matrix(0.1,0,0,-0.1,0,52)"/>
<path style="fill-rule:nonzero;fill:rgb(100%,100%,100%);fill-opacity:1;stroke-width:10;stroke-linecap:butt;stroke-linejoin:miter;stroke:rgb(13.729858%,12.159729%,12.548828%);stroke-opacity:1;stroke-miterlimit:4;" d="M 1393.828125 213.320312 L 1493.828125 213.320312 L 1493.828125 313.320312 L 1393.828125 313.320312 Z M 1393.828125 213.320312 " transform="matrix(0.1,0,0,-0.1,0,52)"/>
<path style="fill-rule:nonzero;fill:rgb(100%,100%,100%);fill-opacity:1;stroke-width:10;stroke-linecap:butt;stroke-linejoin:miter;stroke:rgb(13.729858%,12.159729%,12.548828%);stroke-opacity:1;stroke-miterlimit:4;" d="M 1488.828125 213.320312 L 1588.828125 213.320312 L 1588.828125 313.320312 L 1488.828125 313.320312 Z M 1488.828125 213.320312 " transform="matrix(0.1,0,0,-0.1,0,52)"/>
<path style="fill-rule:nonzero;fill:rgb(100%,100%,100%);fill-opacity:1;stroke-width:10;stroke-linecap:butt;stroke-linejoin:miter;stroke:rgb(13.729858%,12.159729%,12.548828%);stroke-opacity:1;stroke-miterlimit:4;" d="M 1298.671875 113.320312 L 1396.40625 113.320312 L 1396.40625 213.320312 L 1298.671875 213.320312 Z M 1298.671875 113.320312 " transform="matrix(0.1,0,0,-0.1,0,52)"/>
<path style="fill-rule:nonzero;fill:rgb(100%,100%,100%);fill-opacity:1;stroke-width:10;stroke-linecap:butt;stroke-linejoin:miter;stroke:rgb(13.729858%,12.159729%,12.548828%);stroke-opacity:1;stroke-miterlimit:4;" d="M 1298.671875 13.320312 L 1396.40625 13.320312 L 1396.40625 113.320312 L 1298.671875 113.320312 Z M 1298.671875 13.320312 " transform="matrix(0.1,0,0,-0.1,0,52)"/>
<path style="fill-rule:nonzero;fill:rgb(100%,100%,100%);fill-opacity:1;stroke-width:10;stroke-linecap:butt;stroke-linejoin:miter;stroke:rgb(13.729858%,12.159729%,12.548828%);stroke-opacity:1;stroke-miterlimit:4;" d="M 1298.828125 413.320312 L 1398.828125 413.320312 L 1398.828125 513.320312 L 1298.828125 513.320312 Z M 1298.828125 413.320312 " transform="matrix(0.1,0,0,-0.1,0,52)"/>
<path style="fill-rule:nonzero;fill:rgb(100%,100%,100%);fill-opacity:1;stroke-width:10;stroke-linecap:butt;stroke-linejoin:miter;stroke:rgb(13.729858%,12.159729%,12.548828%);stroke-opacity:1;stroke-miterlimit:4;" d="M 1393.828125 413.320312 L 1493.828125 413.320312 L 1493.828125 513.320312 L 1393.828125 513.320312 Z M 1393.828125 413.320312 " transform="matrix(0.1,0,0,-0.1,0,52)"/>
<path style="fill-rule:nonzero;fill:rgb(100%,100%,100%);fill-opacity:1;stroke-width:10;stroke-linecap:butt;stroke-linejoin:miter;stroke:rgb(13.729858%,12.159729%,12.548828%);stroke-opacity:1;stroke-miterlimit:4;" d="M 1488.828125 413.320312 L 1588.828125 413.320312 L 1588.828125 513.320312 L 1488.828125 513.320312 Z M 1488.828125 413.320312 " transform="matrix(0.1,0,0,-0.1,0,52)"/>
<path style="fill-rule:nonzero;fill:rgb(100%,100%,100%);fill-opacity:1;stroke-width:10;stroke-linecap:butt;stroke-linejoin:miter;stroke:rgb(13.729858%,12.159729%,12.548828%);stroke-opacity:1;stroke-miterlimit:4;" d="M 1588.828125 413.320312 L 1688.828125 413.320312 L 1688.828125 513.320312 L 1588.828125 513.320312 Z M 1588.828125 413.320312 " transform="matrix(0.1,0,0,-0.1,0,52)"/>
<path style="fill-rule:nonzero;fill:rgb(100%,100%,100%);fill-opacity:1;stroke-width:10;stroke-linecap:butt;stroke-linejoin:miter;stroke:rgb(13.729858%,12.159729%,12.548828%);stroke-opacity:1;stroke-miterlimit:4;" d="M 113.75 413.203125 L 213.75 413.203125 L 213.75 513.203125 L 113.75 513.203125 Z M 113.75 413.203125 " transform="matrix(0.1,0,0,-0.1,0,52)"/>
<path style="fill-rule:nonzero;fill:rgb(100%,100%,100%);fill-opacity:1;stroke-width:10;stroke-linecap:butt;stroke-linejoin:miter;stroke:rgb(13.729858%,12.159729%,12.548828%);stroke-opacity:1;stroke-miterlimit:4;" d="M 113.75 318.203125 L 213.75 318.203125 L 213.75 418.203125 L 113.75 418.203125 Z M 113.75 318.203125 " transform="matrix(0.1,0,0,-0.1,0,52)"/>
<path style="fill-rule:nonzero;fill:rgb(100%,100%,100%);fill-opacity:1;stroke-width:10;stroke-linecap:butt;stroke-linejoin:miter;stroke:rgb(13.729858%,12.159729%,12.548828%);stroke-opacity:1;stroke-miterlimit:4;" d="M 113.75 223.203125 L 213.75 223.203125 L 213.75 323.203125 L 113.75 323.203125 Z M 113.75 223.203125 " transform="matrix(0.1,0,0,-0.1,0,52)"/>
<path style="fill-rule:nonzero;fill:rgb(100%,100%,100%);fill-opacity:1;stroke-width:10;stroke-linecap:butt;stroke-linejoin:miter;stroke:rgb(13.729858%,12.159729%,12.548828%);stroke-opacity:1;stroke-miterlimit:4;" d="M 113.75 123.203125 L 213.75 123.203125 L 213.75 223.203125 L 113.75 223.203125 Z M 113.75 123.203125 " transform="matrix(0.1,0,0,-0.1,0,52)"/>
<path style="fill-rule:nonzero;fill:rgb(100%,100%,100%);fill-opacity:1;stroke-width:10;stroke-linecap:butt;stroke-linejoin:miter;stroke:rgb(13.729858%,12.159729%,12.548828%);stroke-opacity:1;stroke-miterlimit:4;" d="M 213.75 413.203125 L 313.75 413.203125 L 313.75 513.203125 L 213.75 513.203125 Z M 213.75 413.203125 " transform="matrix(0.1,0,0,-0.1,0,52)"/>
<path style="fill-rule:nonzero;fill:rgb(100%,100%,100%);fill-opacity:1;stroke-width:10;stroke-linecap:butt;stroke-linejoin:miter;stroke:rgb(13.729858%,12.159729%,12.548828%);stroke-opacity:1;stroke-miterlimit:4;" d="M 213.75 318.203125 L 313.75 318.203125 L 313.75 418.203125 L 213.75 418.203125 Z M 213.75 318.203125 " transform="matrix(0.1,0,0,-0.1,0,52)"/>
<path style="fill-rule:nonzero;fill:rgb(100%,100%,100%);fill-opacity:1;stroke-width:10;stroke-linecap:butt;stroke-linejoin:miter;stroke:rgb(13.729858%,12.159729%,12.548828%);stroke-opacity:1;stroke-miterlimit:4;" d="M 213.75 223.203125 L 313.75 223.203125 L 313.75 323.203125 L 213.75 323.203125 Z M 213.75 223.203125 " transform="matrix(0.1,0,0,-0.1,0,52)"/>
<path style="fill-rule:nonzero;fill:rgb(100%,100%,100%);fill-opacity:1;stroke-width:10;stroke-linecap:butt;stroke-linejoin:miter;stroke:rgb(13.729858%,12.159729%,12.548828%);stroke-opacity:1;stroke-miterlimit:4;" d="M 313.75 415.585938 L 413.75 415.585938 L 413.75 513.320312 L 313.75 513.320312 Z M 313.75 415.585938 " transform="matrix(0.1,0,0,-0.1,0,52)"/>
<path style="fill-rule:nonzero;fill:rgb(100%,100%,100%);fill-opacity:1;stroke-width:10;stroke-linecap:butt;stroke-linejoin:miter;stroke:rgb(13.729858%,12.159729%,12.548828%);stroke-opacity:1;stroke-miterlimit:4;" d="M 413.75 415.585938 L 513.75 415.585938 L 513.75 513.320312 L 413.75 513.320312 Z M 413.75 415.585938 " transform="matrix(0.1,0,0,-0.1,0,52)"/>
<path style="fill-rule:nonzero;fill:rgb(100%,100%,100%);fill-opacity:1;stroke-width:10;stroke-linecap:butt;stroke-linejoin:miter;stroke:rgb(13.729858%,12.159729%,12.548828%);stroke-opacity:1;stroke-miterlimit:4;" d="M 13.75 413.203125 L 113.75 413.203125 L 113.75 513.203125 L 13.75 513.203125 Z M 13.75 413.203125 " transform="matrix(0.1,0,0,-0.1,0,52)"/>
<path style="fill-rule:nonzero;fill:rgb(100%,100%,100%);fill-opacity:1;stroke-width:10;stroke-linecap:butt;stroke-linejoin:miter;stroke:rgb(13.729858%,12.159729%,12.548828%);stroke-opacity:1;stroke-miterlimit:4;" d="M 13.75 318.203125 L 113.75 318.203125 L 113.75 418.203125 L 13.75 418.203125 Z M 13.75 318.203125 " transform="matrix(0.1,0,0,-0.1,0,52)"/>
<path style="fill-rule:nonzero;fill:rgb(100%,100%,100%);fill-opacity:1;stroke-width:10;stroke-linecap:butt;stroke-linejoin:miter;stroke:rgb(13.729858%,12.159729%,12.548828%);stroke-opacity:1;stroke-miterlimit:4;" d="M 13.75 223.203125 L 113.75 223.203125 L 113.75 323.203125 L 13.75 323.203125 Z M 13.75 223.203125 " transform="matrix(0.1,0,0,-0.1,0,52)"/>
<path style="fill-rule:nonzero;fill:rgb(100%,100%,100%);fill-opacity:1;stroke-width:10;stroke-linecap:butt;stroke-linejoin:miter;stroke:rgb(13.729858%,12.159729%,12.548828%);stroke-opacity:1;stroke-miterlimit:4;" d="M 13.75 123.203125 L 113.75 123.203125 L 113.75 223.203125 L 13.75 223.203125 Z M 13.75 123.203125 " transform="matrix(0.1,0,0,-0.1,0,52)"/>
<path style=" stroke:none;fill-rule:nonzero;fill:rgb(100%,100%,100%);fill-opacity:1;" d="M 109.035156 25 C 106.195312 26.054688 102.671875 27.851562 100.488281 29.753906 L 102.207031 25 L 100.488281 20.246094 C 102.671875 22.148438 106.195312 23.945312 109.035156 25 "/>
<path style="fill:none;stroke-width:10;stroke-linecap:butt;stroke-linejoin:miter;stroke:rgb(13.729858%,12.159729%,12.548828%);stroke-opacity:1;stroke-miterlimit:4;" d="M 730 270 L 1030 270 " transform="matrix(0.1,0,0,-0.1,0,52)"/>
<path style=" stroke:none;fill-rule:nonzero;fill:rgb(13.729858%,12.159729%,12.548828%);fill-opacity:1;" d="M 109.035156 25 C 106.195312 26.054688 102.671875 27.851562 100.488281 29.753906 L 102.207031 25 L 100.488281 20.246094 C 102.671875 22.148438 106.195312 23.945312 109.035156 25 "/>
</g>
</svg>
