<?xml version="1.0" encoding="UTF-8"?>
<svg xmlns="http://www.w3.org/2000/svg" xmlns:xlink="http://www.w3.org/1999/xlink" width="131pt" height="79pt" viewBox="0 0 131 79" version="1.1">
<defs>
<clipPath id="clip1">
  <path d="M 0 0.300781 L 130 0.300781 L 130 79 L 0 79 Z M 0 0.300781 "/>
</clipPath>
</defs>
<g id="surface1">
<g clip-path="url(#clip1)" clip-rule="nonzero">
<path style="fill-rule:nonzero;fill:rgb(100%,100%,100%);fill-opacity:1;stroke-width:10;stroke-linecap:butt;stroke-linejoin:miter;stroke:rgb(13.729858%,12.159729%,12.548828%);stroke-opacity:1;stroke-miterlimit:4;" d="M 5 5 L 1299.0625 5 L 1299.0625 781.484375 L 5 781.484375 Z M 5 5 " transform="matrix(0.1,0,0,-0.1,0,79)"/>
</g>
<path style="fill-rule:nonzero;fill:rgb(100%,100%,100%);fill-opacity:1;stroke-width:10;stroke-linecap:butt;stroke-linejoin:miter;stroke:rgb(13.729858%,12.159729%,12.548828%);stroke-opacity:1;stroke-miterlimit:4;" d="M 296.210938 508.945312 L 386.210938 508.945312 L 386.210938 598.945312 L 296.210938 598.945312 Z M 296.210938 508.945312 " transform="matrix(0.1,0,0,-0.1,0,79)"/>
<path style="fill-rule:nonzero;fill:rgb(100%,100%,100%);fill-opacity:1;stroke-width:10;stroke-linecap:butt;stroke-linejoin:miter;stroke:rgb(13.729858%,12.159729%,12.548828%);stroke-opacity:1;stroke-miterlimit:4;" d="M 926.210938 418.945312 L 1016.210938 418.945312 L 1016.210938 508.945312 L 926.210938 508.945312 Z M 926.210938 418.945312 " transform="matrix(0.1,0,0,-0.1,0,79)"/>
<path style="fill-rule:nonzero;fill:rgb(100%,100%,100%);fill-opacity:1;stroke-width:10;stroke-linecap:butt;stroke-linejoin:miter;stroke:rgb(13.729858%,12.159729%,12.548828%);stroke-opacity:1;stroke-miterlimit:4;" d="M 836.210938 418.945312 L 926.210938 418.945312 L 926.210938 508.945312 L 836.210938 508.945312 Z M 836.210938 418.945312 " transform="matrix(0.1,0,0,-0.1,0,79)"/>
<path style="fill-rule:nonzero;fill:rgb(100%,100%,100%);fill-opacity:1;stroke-width:10;stroke-linecap:butt;stroke-linejoin:miter;stroke:rgb(13.729858%,12.159729%,12.548828%);stroke-opacity:1;stroke-miterlimit:4;" d="M 386.210938 238.945312 L 476.210938 238.945312 L 476.210938 328.945312 L 386.210938 328.945312 Z M 386.210938 238.945312 " transform="matrix(0.1,0,0,-0.1,0,79)"/>
<path style="fill-rule:nonzero;fill:rgb(100%,100%,100%);fill-opacity:1;stroke-width:10;stroke-linecap:butt;stroke-linejoin:miter;stroke:rgb(13.729858%,12.159729%,12.548828%);stroke-opacity:1;stroke-miterlimit:4;" d="M 296.210938 238.945312 L 386.210938 238.945312 L 386.210938 328.945312 L 296.210938 328.945312 Z M 296.210938 238.945312 " transform="matrix(0.1,0,0,-0.1,0,79)"/>
<path style="fill-rule:nonzero;fill:rgb(100%,100%,100%);fill-opacity:1;stroke-width:10;stroke-linecap:butt;stroke-linejoin:miter;stroke:rgb(13.729858%,12.159729%,12.548828%);stroke-opacity:1;stroke-miterlimit:4;" d="M 206.210938 328.945312 L 296.210938 328.945312 L 296.210938 418.945312 L 206.210938 418.945312 Z M 206.210938 328.945312 " transform="matrix(0.1,0,0,-0.1,0,79)"/>
<path style="fill-rule:nonzero;fill:rgb(100%,100%,100%);fill-opacity:1;stroke-width:10;stroke-linecap:butt;stroke-linejoin:miter;stroke:rgb(13.729858%,12.159729%,12.548828%);stroke-opacity:1;stroke-miterlimit:4;" d="M 476.210938 328.945312 L 566.210938 328.945312 L 566.210938 418.945312 L 476.210938 418.945312 Z M 476.210938 328.945312 " transform="matrix(0.1,0,0,-0.1,0,79)"/>
<path style="fill-rule:nonzero;fill:rgb(100%,100%,100%);fill-opacity:1;stroke-width:10;stroke-linecap:butt;stroke-linejoin:miter;stroke:rgb(13.729858%,12.159729%,12.548828%);stroke-opacity:1;stroke-miterlimit:4;" d="M 386.210938 328.945312 L 476.210938 328.945312 L 476.210938 418.945312 L 386.210938 418.945312 Z M 386.210938 328.945312 " transform="matrix(0.1,0,0,-0.1,0,79)"/>
<path style="fill-rule:nonzero;fill:rgb(100%,100%,100%);fill-opacity:1;stroke-width:10;stroke-linecap:butt;stroke-linejoin:miter;stroke:rgb(13.729858%,12.159729%,12.548828%);stroke-opacity:1;stroke-miterlimit:4;" d="M 296.210938 328.945312 L 386.210938 328.945312 L 386.210938 418.945312 L 296.210938 418.945312 Z M 296.210938 328.945312 " transform="matrix(0.1,0,0,-0.1,0,79)"/>
<path style="fill-rule:nonzero;fill:rgb(100%,100%,100%);fill-opacity:1;stroke-width:10;stroke-linecap:butt;stroke-linejoin:miter;stroke:rgb(13.729858%,12.159729%,12.548828%);stroke-opacity:1;stroke-miterlimit:4;" d="M 386.210938 418.945312 L 476.210938 418.945312 L 476.210938 508.945312 L 386.210938 508.945312 Z M 386.210938 418.945312 " transform="matrix(0.1,0,0,-0.1,0,79)"/>
<path style="fill-rule:nonzero;fill:rgb(100%,100%,100%);fill-opacity:1;stroke-width:10;stroke-linecap:butt;stroke-linejoin:miter;stroke:rgb(13.729858%,12.159729%,12.548828%);stroke-opacity:1;stroke-miterlimit:4;" d="M 296.210938 418.945312 L 386.210938 418.945312 L 386.210938 508.945312 L 296.210938 508.945312 Z M 296.210938 418.945312 " transform="matrix(0.1,0,0,-0.1,0,79)"/>
<path style="fill-rule:nonzero;fill:rgb(100%,100%,100%);fill-opacity:1;stroke-width:10;stroke-linecap:butt;stroke-linejoin:miter;stroke:rgb(13.729858%,12.159729%,12.548828%);stroke-opacity:1;stroke-miterlimit:4;" d="M 386.210938 508.945312 L 476.210938 508.945312 L 476.210938 598.945312 L 386.210938 598.945312 Z M 386.210938 508.945312 " transform="matrix(0.1,0,0,-0.1,0,79)"/>
<path style="fill-rule:nonzero;fill:rgb(100%,100%,100%);fill-opacity:1;stroke-width:10;stroke-linecap:butt;stroke-linejoin:miter;stroke:rgb(13.729858%,12.159729%,12.548828%);stroke-opacity:1;stroke-miterlimit:4;" d="M 926.210938 508.945312 L 1016.210938 508.945312 L 1016.210938 598.945312 L 926.210938 598.945312 Z M 926.210938 508.945312 " transform="matrix(0.1,0,0,-0.1,0,79)"/>
<path style="fill-rule:nonzero;fill:rgb(100%,100%,100%);fill-opacity:1;stroke-width:10;stroke-linecap:butt;stroke-linejoin:miter;stroke:rgb(13.729858%,12.159729%,12.548828%);stroke-opacity:1;stroke-miterlimit:4;" d="M 1016.210938 328.945312 L 1106.210938 328.945312 L 1106.210938 418.945312 L 1016.210938 418.945312 Z M 1016.210938 328.945312 " transform="matrix(0.1,0,0,-0.1,0,79)"/>
<path style="fill-rule:nonzero;fill:rgb(100%,100%,100%);fill-opacity:1;stroke-width:10;stroke-linecap:butt;stroke-linejoin:miter;stroke:rgb(13.729858%,12.159729%,12.548828%);stroke-opacity:1;stroke-miterlimit:4;" d="M 1016.210938 418.945312 L 1106.210938 418.945312 L 1106.210938 508.945312 L 1016.210938 508.945312 Z M 1016.210938 418.945312 " transform="matrix(0.1,0,0,-0.1,0,79)"/>
<path style="fill-rule:nonzero;fill:rgb(100%,100%,100%);fill-opacity:1;stroke-width:10;stroke-linecap:butt;stroke-linejoin:miter;stroke:rgb(13.729858%,12.159729%,12.548828%);stroke-opacity:1;stroke-miterlimit:4;" d="M 926.210938 328.945312 L 1016.210938 328.945312 L 1016.210938 418.945312 L 926.210938 418.945312 Z M 926.210938 328.945312 " transform="matrix(0.1,0,0,-0.1,0,79)"/>
<path style="fill-rule:nonzero;fill:rgb(100%,100%,100%);fill-opacity:1;stroke-width:10;stroke-linecap:butt;stroke-linejoin:miter;stroke:rgb(13.729858%,12.159729%,12.548828%);stroke-opacity:1;stroke-miterlimit:4;" d="M 836.210938 328.945312 L 926.210938 328.945312 L 926.210938 418.945312 L 836.210938 418.945312 Z M 836.210938 328.945312 " transform="matrix(0.1,0,0,-0.1,0,79)"/>
</g>
</svg>
