<?xml version="1.0" encoding="UTF-8"?>
<svg xmlns="http://www.w3.org/2000/svg" xmlns:xlink="http://www.w3.org/1999/xlink" width="341pt" height="178pt" viewBox="0 0 341 178" version="1.1">
<g id="surface1">
<path style=" stroke:none;fill-rule:nonzero;fill:rgb(100%,100%,100%);fill-opacity:1;" d="M 25.847656 38.238281 C 25.847656 40.484375 24.027344 42.308594 21.777344 42.308594 C 19.53125 42.308594 17.707031 40.484375 17.707031 38.238281 C 17.707031 35.992188 19.53125 34.167969 21.777344 34.167969 C 24.027344 34.167969 25.847656 35.992188 25.847656 38.238281 "/>
<path style="fill:none;stroke-width:10;stroke-linecap:butt;stroke-linejoin:miter;stroke:rgb(13.729858%,12.159729%,12.548828%);stroke-opacity:1;stroke-miterlimit:4;" d="M 258.476562 1397.617188 C 258.476562 1375.15625 240.273438 1356.914062 217.773438 1356.914062 C 195.3125 1356.914062 177.070312 1375.15625 177.070312 1397.617188 C 177.070312 1420.078125 195.3125 1438.320312 217.773438 1438.320312 C 240.273438 1438.320312 258.476562 1420.078125 258.476562 1397.617188 Z M 258.476562 1397.617188 " transform="matrix(0.1,0,0,-0.1,0,178)"/>
<path style=" stroke:none;fill-rule:nonzero;fill:rgb(100%,100%,100%);fill-opacity:1;" d="M 8.847656 4.738281 C 8.847656 6.984375 7.027344 8.808594 4.777344 8.808594 C 2.53125 8.808594 0.707031 6.984375 0.707031 4.738281 C 0.707031 2.492188 2.53125 0.667969 4.777344 0.667969 C 7.027344 0.667969 8.847656 2.492188 8.847656 4.738281 "/>
<path style="fill:none;stroke-width:10;stroke-linecap:butt;stroke-linejoin:miter;stroke:rgb(13.729858%,12.159729%,12.548828%);stroke-opacity:1;stroke-miterlimit:4;" d="M 88.476562 1732.617188 C 88.476562 1710.15625 70.273438 1691.914062 47.773438 1691.914062 C 25.3125 1691.914062 7.070312 1710.15625 7.070312 1732.617188 C 7.070312 1755.078125 25.3125 1773.320312 47.773438 1773.320312 C 70.273438 1773.320312 88.476562 1755.078125 88.476562 1732.617188 Z M 88.476562 1732.617188 " transform="matrix(0.1,0,0,-0.1,0,178)"/>
<path style=" stroke:none;fill-rule:nonzero;fill:rgb(100%,100%,100%);fill-opacity:1;" d="M 52.59375 64.980469 C 52.59375 67.230469 50.769531 69.050781 48.523438 69.050781 C 46.273438 69.050781 44.453125 67.230469 44.453125 64.980469 C 44.453125 62.734375 46.273438 60.910156 48.523438 60.910156 C 50.769531 60.910156 52.59375 62.734375 52.59375 64.980469 "/>
<path style="fill:none;stroke-width:10;stroke-linecap:butt;stroke-linejoin:miter;stroke:rgb(13.729858%,12.159729%,12.548828%);stroke-opacity:1;stroke-miterlimit:4;" d="M 525.9375 1130.195312 C 525.9375 1107.695312 507.695312 1089.492188 485.234375 1089.492188 C 462.734375 1089.492188 444.53125 1107.695312 444.53125 1130.195312 C 444.53125 1152.65625 462.734375 1170.898438 485.234375 1170.898438 C 507.695312 1170.898438 525.9375 1152.65625 525.9375 1130.195312 Z M 525.9375 1130.195312 " transform="matrix(0.1,0,0,-0.1,0,178)"/>
<path style=" stroke:none;fill-rule:nonzero;fill:rgb(100%,100%,100%);fill-opacity:1;" d="M 340.3125 150.867188 C 340.3125 153.113281 338.488281 154.933594 336.242188 154.933594 C 333.996094 154.933594 332.175781 153.113281 332.175781 150.867188 C 332.175781 148.617188 333.996094 146.796875 336.242188 146.796875 C 338.488281 146.796875 340.3125 148.617188 340.3125 150.867188 "/>
<path style="fill:none;stroke-width:10;stroke-linecap:butt;stroke-linejoin:miter;stroke:rgb(13.729858%,12.159729%,12.548828%);stroke-opacity:1;stroke-miterlimit:4;" d="M 3403.125 271.328125 C 3403.125 248.867188 3384.882812 230.664062 3362.421875 230.664062 C 3339.960938 230.664062 3321.757812 248.867188 3321.757812 271.328125 C 3321.757812 293.828125 3339.960938 312.03125 3362.421875 312.03125 C 3384.882812 312.03125 3403.125 293.828125 3403.125 271.328125 Z M 3403.125 271.328125 " transform="matrix(0.1,0,0,-0.1,0,178)"/>
<path style=" stroke:none;fill-rule:nonzero;fill:rgb(100%,100%,100%);fill-opacity:1;" d="M 206.59375 96.214844 C 206.59375 98.464844 204.769531 100.285156 202.523438 100.285156 C 200.273438 100.285156 198.453125 98.464844 198.453125 96.214844 C 198.453125 93.96875 200.273438 92.144531 202.523438 92.144531 C 204.769531 92.144531 206.59375 93.96875 206.59375 96.214844 "/>
<path style="fill:none;stroke-width:10;stroke-linecap:butt;stroke-linejoin:miter;stroke:rgb(13.729858%,12.159729%,12.548828%);stroke-opacity:1;stroke-miterlimit:4;" d="M 2065.9375 817.851562 C 2065.9375 795.351562 2047.695312 777.148438 2025.234375 777.148438 C 2002.734375 777.148438 1984.53125 795.351562 1984.53125 817.851562 C 1984.53125 840.3125 2002.734375 858.554688 2025.234375 858.554688 C 2047.695312 858.554688 2065.9375 840.3125 2065.9375 817.851562 Z M 2065.9375 817.851562 " transform="matrix(0.1,0,0,-0.1,0,178)"/>
<path style=" stroke:none;fill-rule:nonzero;fill:rgb(100%,100%,100%);fill-opacity:1;" d="M 281.011719 71.796875 C 281.011719 74.042969 279.1875 75.867188 276.941406 75.867188 C 274.691406 75.867188 272.871094 74.042969 272.871094 71.796875 C 272.871094 69.550781 274.691406 67.726562 276.941406 67.726562 C 279.1875 67.726562 281.011719 69.550781 281.011719 71.796875 "/>
<path style="fill:none;stroke-width:10;stroke-linecap:butt;stroke-linejoin:miter;stroke:rgb(13.729858%,12.159729%,12.548828%);stroke-opacity:1;stroke-miterlimit:4;" d="M 2810.117188 1062.03125 C 2810.117188 1039.570312 2791.875 1021.328125 2769.414062 1021.328125 C 2746.914062 1021.328125 2728.710938 1039.570312 2728.710938 1062.03125 C 2728.710938 1084.492188 2746.914062 1102.734375 2769.414062 1102.734375 C 2791.875 1102.734375 2810.117188 1084.492188 2810.117188 1062.03125 Z M 2810.117188 1062.03125 " transform="matrix(0.1,0,0,-0.1,0,178)"/>
<path style=" stroke:none;fill-rule:nonzero;fill:rgb(100%,100%,100%);fill-opacity:1;" d="M 193.800781 56.679688 C 193.800781 58.925781 191.980469 60.75 189.730469 60.75 C 187.484375 60.75 185.660156 58.925781 185.660156 56.679688 C 185.660156 54.433594 187.484375 52.609375 189.730469 52.609375 C 191.980469 52.609375 193.800781 54.433594 193.800781 56.679688 "/>
<path style="fill:none;stroke-width:10;stroke-linecap:butt;stroke-linejoin:miter;stroke:rgb(13.729858%,12.159729%,12.548828%);stroke-opacity:1;stroke-miterlimit:4;" d="M 1938.007812 1213.203125 C 1938.007812 1190.742188 1919.804688 1172.5 1897.304688 1172.5 C 1874.84375 1172.5 1856.601562 1190.742188 1856.601562 1213.203125 C 1856.601562 1235.664062 1874.84375 1253.90625 1897.304688 1253.90625 C 1919.804688 1253.90625 1938.007812 1235.664062 1938.007812 1213.203125 Z M 1938.007812 1213.203125 " transform="matrix(0.1,0,0,-0.1,0,178)"/>
<path style=" stroke:none;fill-rule:nonzero;fill:rgb(100%,100%,100%);fill-opacity:1;" d="M 199.613281 22.960938 C 199.613281 23.96875 199.246094 24.890625 198.640625 25.601562 C 197.894531 26.476562 196.785156 27.027344 195.546875 27.027344 C 193.300781 27.027344 191.476562 25.207031 191.476562 22.960938 C 191.476562 20.710938 193.300781 18.890625 195.546875 18.890625 C 197.792969 18.890625 199.613281 20.710938 199.613281 22.960938 "/>
<path style="fill:none;stroke-width:10;stroke-linecap:butt;stroke-linejoin:miter;stroke:rgb(13.729858%,12.159729%,12.548828%);stroke-opacity:1;stroke-miterlimit:4;" d="M 1996.132812 1550.390625 C 1996.132812 1540.3125 1992.460938 1531.09375 1986.40625 1523.984375 C 1978.945312 1515.234375 1967.851562 1509.726562 1955.46875 1509.726562 C 1933.007812 1509.726562 1914.765625 1527.929688 1914.765625 1550.390625 C 1914.765625 1572.890625 1933.007812 1591.09375 1955.46875 1591.09375 C 1977.929688 1591.09375 1996.132812 1572.890625 1996.132812 1550.390625 Z M 1996.132812 1550.390625 " transform="matrix(0.1,0,0,-0.1,0,178)"/>
<path style=" stroke:none;fill-rule:nonzero;fill:rgb(100%,100%,100%);fill-opacity:1;" d="M 260.078125 25.285156 C 260.078125 27.53125 258.257812 29.355469 256.011719 29.355469 C 253.765625 29.355469 251.941406 27.53125 251.941406 25.285156 C 251.941406 23.035156 253.765625 21.214844 256.011719 21.214844 C 258.257812 21.214844 260.078125 23.035156 260.078125 25.285156 "/>
<path style="fill:none;stroke-width:10;stroke-linecap:butt;stroke-linejoin:miter;stroke:rgb(13.729858%,12.159729%,12.548828%);stroke-opacity:1;stroke-miterlimit:4;" d="M 2600.78125 1527.148438 C 2600.78125 1504.6875 2582.578125 1486.445312 2560.117188 1486.445312 C 2537.65625 1486.445312 2519.414062 1504.6875 2519.414062 1527.148438 C 2519.414062 1549.648438 2537.65625 1567.851562 2560.117188 1567.851562 C 2582.578125 1567.851562 2600.78125 1549.648438 2600.78125 1527.148438 Z M 2600.78125 1527.148438 " transform="matrix(0.1,0,0,-0.1,0,178)"/>
<path style=" stroke:none;fill-rule:nonzero;fill:rgb(100%,100%,100%);fill-opacity:1;" d="M 81.660156 40.5625 C 81.660156 42.8125 79.839844 44.632812 77.59375 44.632812 C 75.34375 44.632812 73.523438 42.8125 73.523438 40.5625 C 73.523438 38.316406 75.34375 36.492188 77.59375 36.492188 C 79.839844 36.492188 81.660156 38.316406 81.660156 40.5625 "/>
<path style="fill:none;stroke-width:10;stroke-linecap:butt;stroke-linejoin:miter;stroke:rgb(13.729858%,12.159729%,12.548828%);stroke-opacity:1;stroke-miterlimit:4;" d="M 816.601562 1374.375 C 816.601562 1351.875 798.398438 1333.671875 775.9375 1333.671875 C 753.4375 1333.671875 735.234375 1351.875 735.234375 1374.375 C 735.234375 1396.835938 753.4375 1415.078125 775.9375 1415.078125 C 798.398438 1415.078125 816.601562 1396.835938 816.601562 1374.375 Z M 816.601562 1374.375 " transform="matrix(0.1,0,0,-0.1,0,178)"/>
<path style=" stroke:none;fill-rule:nonzero;fill:rgb(100%,100%,100%);fill-opacity:1;" d="M 56.082031 116.144531 C 56.082031 118.394531 54.257812 120.214844 52.011719 120.214844 C 49.765625 120.214844 47.941406 118.394531 47.941406 116.144531 C 47.941406 113.898438 49.765625 112.074219 52.011719 112.074219 C 54.257812 112.074219 56.082031 113.898438 56.082031 116.144531 "/>
<path style="fill:none;stroke-width:10;stroke-linecap:butt;stroke-linejoin:miter;stroke:rgb(13.729858%,12.159729%,12.548828%);stroke-opacity:1;stroke-miterlimit:4;" d="M 560.820312 618.554688 C 560.820312 596.054688 542.578125 577.851562 520.117188 577.851562 C 497.65625 577.851562 479.414062 596.054688 479.414062 618.554688 C 479.414062 641.015625 497.65625 659.257812 520.117188 659.257812 C 542.578125 659.257812 560.820312 641.015625 560.820312 618.554688 Z M 560.820312 618.554688 " transform="matrix(0.1,0,0,-0.1,0,178)"/>
<path style=" stroke:none;fill-rule:nonzero;fill:rgb(100%,100%,100%);fill-opacity:1;" d="M 59.570312 173.121094 C 59.570312 175.367188 57.746094 177.191406 55.5 177.191406 C 53.253906 177.191406 51.429688 175.367188 51.429688 173.121094 C 51.429688 170.875 53.253906 169.050781 55.5 169.050781 C 57.746094 169.050781 59.570312 170.875 59.570312 173.121094 "/>
<path style="fill:none;stroke-width:10;stroke-linecap:butt;stroke-linejoin:miter;stroke:rgb(13.729858%,12.159729%,12.548828%);stroke-opacity:1;stroke-miterlimit:4;" d="M 595.703125 48.789062 C 595.703125 26.328125 577.460938 8.085938 555 8.085938 C 532.539062 8.085938 514.296875 26.328125 514.296875 48.789062 C 514.296875 71.25 532.539062 89.492188 555 89.492188 C 577.460938 89.492188 595.703125 71.25 595.703125 48.789062 Z M 595.703125 48.789062 " transform="matrix(0.1,0,0,-0.1,0,178)"/>
<path style=" stroke:none;fill-rule:nonzero;fill:rgb(100%,100%,100%);fill-opacity:1;" d="M 81.660156 18.472656 C 81.660156 20.71875 79.839844 22.539062 77.59375 22.539062 C 75.34375 22.539062 73.523438 20.71875 73.523438 18.472656 C 73.523438 16.222656 75.34375 14.402344 77.59375 14.402344 C 79.839844 14.402344 81.660156 16.222656 81.660156 18.472656 "/>
<path style="fill:none;stroke-width:10;stroke-linecap:butt;stroke-linejoin:miter;stroke:rgb(13.729858%,12.159729%,12.548828%);stroke-opacity:1;stroke-miterlimit:4;" d="M 816.601562 1595.273438 C 816.601562 1572.8125 798.398438 1554.609375 775.9375 1554.609375 C 753.4375 1554.609375 735.234375 1572.8125 735.234375 1595.273438 C 735.234375 1617.773438 753.4375 1635.976562 775.9375 1635.976562 C 798.398438 1635.976562 816.601562 1617.773438 816.601562 1595.273438 Z M 816.601562 1595.273438 " transform="matrix(0.1,0,0,-0.1,0,178)"/>
<path style=" stroke:none;fill-rule:nonzero;fill:rgb(100%,100%,100%);fill-opacity:1;" d="M 113.058594 35.910156 C 113.058594 38.160156 111.234375 39.980469 108.988281 39.980469 C 106.738281 39.980469 104.917969 38.160156 104.917969 35.910156 C 104.917969 33.664062 106.738281 31.84375 108.988281 31.84375 C 111.234375 31.84375 113.058594 33.664062 113.058594 35.910156 "/>
<path style="fill:none;stroke-width:10;stroke-linecap:butt;stroke-linejoin:miter;stroke:rgb(13.729858%,12.159729%,12.548828%);stroke-opacity:1;stroke-miterlimit:4;" d="M 1130.585938 1420.898438 C 1130.585938 1398.398438 1112.34375 1380.195312 1089.882812 1380.195312 C 1067.382812 1380.195312 1049.179688 1398.398438 1049.179688 1420.898438 C 1049.179688 1443.359375 1067.382812 1461.5625 1089.882812 1461.5625 C 1112.34375 1461.5625 1130.585938 1443.359375 1130.585938 1420.898438 Z M 1130.585938 1420.898438 " transform="matrix(0.1,0,0,-0.1,0,178)"/>
<path style="fill-rule:nonzero;fill:rgb(100%,100%,100%);fill-opacity:1;stroke-width:10;stroke-linecap:butt;stroke-linejoin:miter;stroke:rgb(13.729858%,12.159729%,12.548828%);stroke-opacity:1;stroke-miterlimit:4;" d="M 237.304688 1358.203125 L 452.304688 1163.203125 " transform="matrix(0.1,0,0,-0.1,0,178)"/>
<path style="fill-rule:nonzero;fill:rgb(100%,100%,100%);fill-opacity:1;stroke-width:10;stroke-linecap:butt;stroke-linejoin:miter;stroke:rgb(13.729858%,12.159729%,12.548828%);stroke-opacity:1;stroke-miterlimit:4;" d="M 485.234375 1089.492188 L 520.117188 659.257812 " transform="matrix(0.1,0,0,-0.1,0,178)"/>
<path style="fill-rule:nonzero;fill:rgb(100%,100%,100%);fill-opacity:1;stroke-width:10;stroke-linecap:butt;stroke-linejoin:miter;stroke:rgb(13.729858%,12.159729%,12.548828%);stroke-opacity:1;stroke-miterlimit:4;" d="M 520.117188 577.851562 L 555 89.492188 " transform="matrix(0.1,0,0,-0.1,0,178)"/>
<path style="fill-rule:nonzero;fill:rgb(100%,100%,100%);fill-opacity:1;stroke-width:10;stroke-linecap:butt;stroke-linejoin:miter;stroke:rgb(13.729858%,12.159729%,12.548828%);stroke-opacity:1;stroke-miterlimit:4;" d="M 742.304688 1343.203125 L 512.304688 1168.203125 " transform="matrix(0.1,0,0,-0.1,0,178)"/>
<path style="fill:none;stroke-width:10;stroke-linecap:butt;stroke-linejoin:miter;stroke:rgb(13.729858%,12.159729%,12.548828%);stroke-opacity:1;stroke-miterlimit:4;" d="M 775.9375 1554.609375 L 775.9375 1415.078125 " transform="matrix(0.1,0,0,-0.1,0,178)"/>
<path style="fill-rule:nonzero;fill:rgb(100%,100%,100%);fill-opacity:1;stroke-width:10;stroke-linecap:butt;stroke-linejoin:miter;stroke:rgb(13.729858%,12.159729%,12.548828%);stroke-opacity:1;stroke-miterlimit:4;" d="M 812.304688 1388.203125 L 1049.179688 1420.898438 " transform="matrix(0.1,0,0,-0.1,0,178)"/>
<path style="fill-rule:nonzero;fill:rgb(100%,100%,100%);fill-opacity:1;stroke-width:10;stroke-linecap:butt;stroke-linejoin:miter;stroke:rgb(13.729858%,12.159729%,12.548828%);stroke-opacity:1;stroke-miterlimit:4;" d="M 192.304688 1433.203125 L 62.304688 1698.203125 " transform="matrix(0.1,0,0,-0.1,0,178)"/>
<path style="fill-rule:nonzero;fill:rgb(100%,100%,100%);fill-opacity:1;stroke-width:10;stroke-linecap:butt;stroke-linejoin:miter;stroke:rgb(13.729858%,12.159729%,12.548828%);stroke-opacity:1;stroke-miterlimit:4;" d="M 1955.46875 1509.726562 L 1897.304688 1253.90625 " transform="matrix(0.1,0,0,-0.1,0,178)"/>
<path style="fill-rule:nonzero;fill:rgb(100%,100%,100%);fill-opacity:1;stroke-width:10;stroke-linecap:butt;stroke-linejoin:miter;stroke:rgb(13.729858%,12.159729%,12.548828%);stroke-opacity:1;stroke-miterlimit:4;" d="M 1897.304688 1172.5 L 2007.304688 863.203125 " transform="matrix(0.1,0,0,-0.1,0,178)"/>
<path style="fill-rule:nonzero;fill:rgb(100%,100%,100%);fill-opacity:1;stroke-width:10;stroke-linecap:butt;stroke-linejoin:miter;stroke:rgb(13.729858%,12.159729%,12.548828%);stroke-opacity:1;stroke-miterlimit:4;" d="M 2517.304688 1538.203125 L 1996.132812 1550.390625 " transform="matrix(0.1,0,0,-0.1,0,178)"/>
<path style="fill-rule:nonzero;fill:rgb(100%,100%,100%);fill-opacity:1;stroke-width:10;stroke-linecap:butt;stroke-linejoin:miter;stroke:rgb(13.729858%,12.159729%,12.548828%);stroke-opacity:1;stroke-miterlimit:4;" d="M 2572.304688 1483.203125 L 2757.304688 1108.203125 " transform="matrix(0.1,0,0,-0.1,0,178)"/>
<path style="fill-rule:nonzero;fill:rgb(100%,100%,100%);fill-opacity:1;stroke-width:10;stroke-linecap:butt;stroke-linejoin:miter;stroke:rgb(13.729858%,12.159729%,12.548828%);stroke-opacity:1;stroke-miterlimit:4;" d="M 2737.304688 1043.203125 L 2062.304688 833.203125 " transform="matrix(0.1,0,0,-0.1,0,178)"/>
<path style="fill-rule:nonzero;fill:rgb(100%,100%,100%);fill-opacity:1;stroke-width:10;stroke-linecap:butt;stroke-linejoin:miter;stroke:rgb(13.729858%,12.159729%,12.548828%);stroke-opacity:1;stroke-miterlimit:4;" d="M 2527.304688 1503.203125 L 2037.304688 868.203125 " transform="matrix(0.1,0,0,-0.1,0,178)"/>
<path style="fill-rule:nonzero;fill:rgb(100%,100%,100%);fill-opacity:1;stroke-width:10;stroke-linecap:butt;stroke-linejoin:miter;stroke:rgb(13.729858%,12.159729%,12.548828%);stroke-opacity:1;stroke-miterlimit:4;" d="M 2052.304688 793.203125 L 3322.304688 298.203125 " transform="matrix(0.1,0,0,-0.1,0,178)"/>
<path style="fill-rule:nonzero;fill:rgb(100%,100%,100%);fill-opacity:1;stroke-width:10;stroke-linecap:butt;stroke-linejoin:miter;stroke:rgb(13.729858%,12.159729%,12.548828%);stroke-opacity:1;stroke-miterlimit:4;" d="M 2802.304688 1043.203125 L 3352.304688 318.203125 " transform="matrix(0.1,0,0,-0.1,0,178)"/>
<path style="fill-rule:nonzero;fill:rgb(100%,100%,100%);fill-opacity:1;stroke-width:10;stroke-linecap:butt;stroke-linejoin:miter;stroke:rgb(13.729858%,12.159729%,12.548828%);stroke-opacity:1;stroke-miterlimit:4;" d="M 2732.304688 1083.203125 L 1986.40625 1523.984375 " transform="matrix(0.1,0,0,-0.1,0,178)"/>
<path style="fill-rule:nonzero;fill:rgb(100%,100%,100%);fill-opacity:1;stroke-width:10;stroke-linecap:butt;stroke-linejoin:miter;stroke:rgb(13.729858%,12.159729%,12.548828%);stroke-opacity:1;stroke-miterlimit:4;" d="M 1938.007812 1213.203125 L 2728.710938 1062.03125 " transform="matrix(0.1,0,0,-0.1,0,178)"/>
<path style="fill-rule:nonzero;fill:rgb(100%,100%,100%);fill-opacity:1;stroke-width:10;stroke-linecap:butt;stroke-linejoin:miter;stroke:rgb(13.729858%,12.159729%,12.548828%);stroke-opacity:1;stroke-miterlimit:4;" d="M 2519.414062 1527.148438 L 1927.304688 1248.203125 " transform="matrix(0.1,0,0,-0.1,0,178)"/>
</g>
</svg>
