<?xml version="1.0" encoding="UTF-8"?>
<svg xmlns="http://www.w3.org/2000/svg" xmlns:xlink="http://www.w3.org/1999/xlink" width="34pt" height="43pt" viewBox="0 0 34 43" version="1.1">
<defs>
<clipPath id="clip1">
  <path d="M 0 0.96875 L 9 0.96875 L 9 10 L 0 10 Z M 0 0.96875 "/>
</clipPath>
<clipPath id="clip2">
  <path d="M 8 0.96875 L 18 0.96875 L 18 10 L 8 10 Z M 8 0.96875 "/>
</clipPath>
<clipPath id="clip3">
  <path d="M 16 0.96875 L 26 0.96875 L 26 10 L 16 10 Z M 16 0.96875 "/>
</clipPath>
<clipPath id="clip4">
  <path d="M 24 0.96875 L 33 0.96875 L 33 10 L 24 10 Z M 24 0.96875 "/>
</clipPath>
<clipPath id="clip5">
  <path d="M 24 9 L 33 9 L 33 19 L 24 19 Z M 24 9 "/>
</clipPath>
<clipPath id="clip6">
  <path d="M 0 34 L 9 34 L 9 42.96875 L 0 42.96875 Z M 0 34 "/>
</clipPath>
</defs>
<g id="surface1">
<path style=" stroke:none;fill-rule:nonzero;fill:rgb(100%,100%,100%);fill-opacity:1;" d="M 0.5 9.46875 L 8.5 9.46875 L 8.5 1.46875 L 0.5 1.46875 Z M 0.5 9.46875 "/>
<g clip-path="url(#clip1)" clip-rule="nonzero">
<path style="fill:none;stroke-width:10;stroke-linecap:butt;stroke-linejoin:miter;stroke:rgb(13.729858%,12.159729%,12.548828%);stroke-opacity:1;stroke-miterlimit:4;" d="M 5 335.3125 L 85 335.3125 L 85 415.3125 L 5 415.3125 Z M 5 335.3125 " transform="matrix(0.1,0,0,-0.1,0,43)"/>
</g>
<path style=" stroke:none;fill-rule:nonzero;fill:rgb(100%,100%,100%);fill-opacity:1;" d="M 8.574219 9.46875 L 16.574219 9.46875 L 16.574219 1.46875 L 8.574219 1.46875 Z M 8.574219 9.46875 "/>
<g clip-path="url(#clip2)" clip-rule="nonzero">
<path style="fill:none;stroke-width:10;stroke-linecap:butt;stroke-linejoin:miter;stroke:rgb(13.729858%,12.159729%,12.548828%);stroke-opacity:1;stroke-miterlimit:4;" d="M 85.742188 335.3125 L 165.742188 335.3125 L 165.742188 415.3125 L 85.742188 415.3125 Z M 85.742188 335.3125 " transform="matrix(0.1,0,0,-0.1,0,43)"/>
</g>
<path style=" stroke:none;fill-rule:nonzero;fill:rgb(100%,100%,100%);fill-opacity:1;" d="M 16.574219 9.46875 L 24.574219 9.46875 L 24.574219 1.46875 L 16.574219 1.46875 Z M 16.574219 9.46875 "/>
<g clip-path="url(#clip3)" clip-rule="nonzero">
<path style="fill:none;stroke-width:10;stroke-linecap:butt;stroke-linejoin:miter;stroke:rgb(13.729858%,12.159729%,12.548828%);stroke-opacity:1;stroke-miterlimit:4;" d="M 165.742188 335.3125 L 245.742188 335.3125 L 245.742188 415.3125 L 165.742188 415.3125 Z M 165.742188 335.3125 " transform="matrix(0.1,0,0,-0.1,0,43)"/>
</g>
<path style=" stroke:none;fill-rule:nonzero;fill:rgb(100%,100%,100%);fill-opacity:1;" d="M 24.753906 9.46875 L 32.753906 9.46875 L 32.753906 1.46875 L 24.753906 1.46875 Z M 24.753906 9.46875 "/>
<g clip-path="url(#clip4)" clip-rule="nonzero">
<path style="fill:none;stroke-width:10;stroke-linecap:butt;stroke-linejoin:miter;stroke:rgb(13.729858%,12.159729%,12.548828%);stroke-opacity:1;stroke-miterlimit:4;" d="M 247.539062 335.3125 L 327.539062 335.3125 L 327.539062 415.3125 L 247.539062 415.3125 Z M 247.539062 335.3125 " transform="matrix(0.1,0,0,-0.1,0,43)"/>
</g>
<path style=" stroke:none;fill-rule:nonzero;fill:rgb(100%,100%,100%);fill-opacity:1;" d="M 24.753906 17.648438 L 32.753906 17.648438 L 32.753906 9.648438 L 24.753906 9.648438 Z M 24.753906 17.648438 "/>
<g clip-path="url(#clip5)" clip-rule="nonzero">
<path style="fill:none;stroke-width:10;stroke-linecap:butt;stroke-linejoin:miter;stroke:rgb(13.729858%,12.159729%,12.548828%);stroke-opacity:1;stroke-miterlimit:4;" d="M 247.539062 253.515625 L 327.539062 253.515625 L 327.539062 333.515625 L 247.539062 333.515625 Z M 247.539062 253.515625 " transform="matrix(0.1,0,0,-0.1,0,43)"/>
</g>
<path style="fill-rule:nonzero;fill:rgb(100%,100%,100%);fill-opacity:1;stroke-width:10;stroke-linecap:butt;stroke-linejoin:miter;stroke:rgb(13.729858%,12.159729%,12.548828%);stroke-opacity:1;stroke-miterlimit:4;" d="M 165.742188 253.515625 L 245.742188 253.515625 L 245.742188 333.515625 L 165.742188 333.515625 Z M 165.742188 253.515625 " transform="matrix(0.1,0,0,-0.1,0,43)"/>
<path style="fill-rule:nonzero;fill:rgb(100%,100%,100%);fill-opacity:1;stroke-width:10;stroke-linecap:butt;stroke-linejoin:miter;stroke:rgb(13.729858%,12.159729%,12.548828%);stroke-opacity:1;stroke-miterlimit:4;" d="M 85.742188 253.515625 L 165.742188 253.515625 L 165.742188 333.515625 L 85.742188 333.515625 Z M 85.742188 253.515625 " transform="matrix(0.1,0,0,-0.1,0,43)"/>
<path style="fill-rule:nonzero;fill:rgb(100%,100%,100%);fill-opacity:1;stroke-width:10;stroke-linecap:butt;stroke-linejoin:miter;stroke:rgb(13.729858%,12.159729%,12.548828%);stroke-opacity:1;stroke-miterlimit:4;" d="M 5 253.515625 L 85 253.515625 L 85 333.515625 L 5 333.515625 Z M 5 253.515625 " transform="matrix(0.1,0,0,-0.1,0,43)"/>
<path style="fill-rule:nonzero;fill:rgb(100%,100%,100%);fill-opacity:1;stroke-width:10;stroke-linecap:butt;stroke-linejoin:miter;stroke:rgb(13.729858%,12.159729%,12.548828%);stroke-opacity:1;stroke-miterlimit:4;" d="M 5 173.320312 L 85 173.320312 L 85 253.320312 L 5 253.320312 Z M 5 173.320312 " transform="matrix(0.1,0,0,-0.1,0,43)"/>
<path style="fill-rule:nonzero;fill:rgb(100%,100%,100%);fill-opacity:1;stroke-width:10;stroke-linecap:butt;stroke-linejoin:miter;stroke:rgb(13.729858%,12.159729%,12.548828%);stroke-opacity:1;stroke-miterlimit:4;" d="M 85.742188 173.320312 L 165.742188 173.320312 L 165.742188 253.320312 L 85.742188 253.320312 Z M 85.742188 173.320312 " transform="matrix(0.1,0,0,-0.1,0,43)"/>
<path style="fill-rule:nonzero;fill:rgb(100%,100%,100%);fill-opacity:1;stroke-width:10;stroke-linecap:butt;stroke-linejoin:miter;stroke:rgb(13.729858%,12.159729%,12.548828%);stroke-opacity:1;stroke-miterlimit:4;" d="M 165.742188 173.320312 L 245.742188 173.320312 L 245.742188 253.320312 L 165.742188 253.320312 Z M 165.742188 173.320312 " transform="matrix(0.1,0,0,-0.1,0,43)"/>
<path style="fill-rule:nonzero;fill:rgb(100%,100%,100%);fill-opacity:1;stroke-width:10;stroke-linecap:butt;stroke-linejoin:miter;stroke:rgb(13.729858%,12.159729%,12.548828%);stroke-opacity:1;stroke-miterlimit:4;" d="M 5 88.554688 L 85 88.554688 L 85 168.554688 L 5 168.554688 Z M 5 88.554688 " transform="matrix(0.1,0,0,-0.1,0,43)"/>
<g clip-path="url(#clip6)" clip-rule="nonzero">
<path style="fill-rule:nonzero;fill:rgb(100%,100%,100%);fill-opacity:1;stroke-width:10;stroke-linecap:butt;stroke-linejoin:miter;stroke:rgb(13.729858%,12.159729%,12.548828%);stroke-opacity:1;stroke-miterlimit:4;" d="M 5 5 L 85 5 L 85 85 L 5 85 Z M 5 5 " transform="matrix(0.1,0,0,-0.1,0,43)"/>
</g>
</g>
</svg>
